%TF.GenerationSoftware,KiCad,Pcbnew,5.1.6*%
%TF.CreationDate,2021-01-14T16:45:27+01:00*%
%TF.ProjectId,din2usb_adapter,64696e32-7573-4625-9f61-646170746572,rev?*%
%TF.SameCoordinates,Original*%
%TF.FileFunction,Copper,L1,Top*%
%TF.FilePolarity,Positive*%
%FSLAX46Y46*%
G04 Gerber Fmt 4.6, Leading zero omitted, Abs format (unit mm)*
G04 Created by KiCad (PCBNEW 5.1.6) date 2021-01-14 16:45:27*
%MOMM*%
%LPD*%
G01*
G04 APERTURE LIST*
%TA.AperFunction,ComponentPad*%
%ADD10O,4.000000X2.000000*%
%TD*%
%TA.AperFunction,ComponentPad*%
%ADD11C,1.600000*%
%TD*%
%TA.AperFunction,ComponentPad*%
%ADD12R,1.600000X1.600000*%
%TD*%
%TA.AperFunction,ComponentPad*%
%ADD13O,2.000000X3.500000*%
%TD*%
%TA.AperFunction,ComponentPad*%
%ADD14R,1.700000X1.700000*%
%TD*%
%TA.AperFunction,ComponentPad*%
%ADD15O,1.700000X1.700000*%
%TD*%
%TA.AperFunction,ComponentPad*%
%ADD16R,1.727200X2.250000*%
%TD*%
%TA.AperFunction,ComponentPad*%
%ADD17O,1.727200X2.250000*%
%TD*%
%TA.AperFunction,ComponentPad*%
%ADD18C,7.400000*%
%TD*%
%TA.AperFunction,ComponentPad*%
%ADD19O,1.600000X1.600000*%
%TD*%
%TA.AperFunction,ComponentPad*%
%ADD20C,1.800000*%
%TD*%
%TA.AperFunction,ComponentPad*%
%ADD21R,1.800000X1.800000*%
%TD*%
%TA.AperFunction,Conductor*%
%ADD22C,0.250000*%
%TD*%
%TA.AperFunction,Conductor*%
%ADD23C,0.400000*%
%TD*%
%TA.AperFunction,Conductor*%
%ADD24C,0.254000*%
%TD*%
G04 APERTURE END LIST*
D10*
%TO.P,P2,7*%
%TO.N,GND*%
X132050000Y-107790000D03*
D11*
%TO.P,P2,6*%
%TO.N,N/C*%
X128650000Y-101340000D03*
%TO.P,P2,5*%
%TO.N,/CLOCK2*%
X135450000Y-101340000D03*
%TO.P,P2,4*%
%TO.N,+5V*%
X128650000Y-104140000D03*
%TO.P,P2,3*%
%TO.N,GND*%
X135450000Y-104140000D03*
%TO.P,P2,2*%
%TO.N,N/C*%
X130750000Y-104140000D03*
D12*
%TO.P,P2,1*%
%TO.N,/DATA2*%
X133350000Y-104140000D03*
D13*
%TO.P,P2,7*%
%TO.N,GND*%
X138900000Y-106990000D03*
X125200000Y-106990000D03*
%TD*%
D10*
%TO.P,P1,7*%
%TO.N,GND*%
X114270000Y-107790000D03*
D11*
%TO.P,P1,6*%
%TO.N,N/C*%
X110870000Y-101340000D03*
%TO.P,P1,5*%
%TO.N,/CLOCK1*%
X117670000Y-101340000D03*
%TO.P,P1,4*%
%TO.N,+5V*%
X110870000Y-104140000D03*
%TO.P,P1,3*%
%TO.N,GND*%
X117670000Y-104140000D03*
%TO.P,P1,2*%
%TO.N,N/C*%
X112970000Y-104140000D03*
D12*
%TO.P,P1,1*%
%TO.N,/DATA1*%
X115570000Y-104140000D03*
D13*
%TO.P,P1,7*%
%TO.N,GND*%
X121120000Y-106990000D03*
X107420000Y-106990000D03*
%TD*%
D14*
%TO.P,J1,1*%
%TO.N,Net-(J1-Pad1)*%
X86360000Y-96520000D03*
D15*
%TO.P,J1,2*%
%TO.N,Net-(J1-Pad2)*%
X86360000Y-99060000D03*
%TD*%
D16*
%TO.P,U1,1*%
%TO.N,N/C*%
X147370800Y-71120000D03*
D17*
%TO.P,U1,2*%
X144830800Y-71120000D03*
%TO.P,U1,3*%
X142290800Y-71120000D03*
%TO.P,U1,4*%
X139750800Y-71120000D03*
%TO.P,U1,5*%
X137210800Y-71120000D03*
%TO.P,U1,6*%
%TO.N,/KB1*%
X134670800Y-71120000D03*
%TO.P,U1,7*%
%TO.N,/MOUSE1*%
X132130800Y-71120000D03*
%TO.P,U1,8*%
%TO.N,/KB2*%
X129590800Y-71120000D03*
%TO.P,U1,9*%
%TO.N,/MOUSE2*%
X127050800Y-71120000D03*
%TO.P,U1,10*%
%TO.N,N/C*%
X124510800Y-71120000D03*
%TO.P,U1,11*%
X121970800Y-71120000D03*
%TO.P,U1,12*%
X119430800Y-71120000D03*
%TO.P,U1,13*%
X116890800Y-71120000D03*
%TO.P,U1,14*%
X114350800Y-71120000D03*
%TO.P,U1,15*%
X111810800Y-71120000D03*
%TO.P,U1,16*%
X109270800Y-71120000D03*
%TO.P,U1,17*%
X106730800Y-71120000D03*
%TO.P,U1,18*%
X104190800Y-71120000D03*
%TO.P,U1,19*%
%TO.N,GND*%
X101650800Y-71120000D03*
%TO.P,U1,20*%
X99110800Y-71120000D03*
%TO.P,U1,21*%
%TO.N,N/C*%
X99110800Y-86360000D03*
%TO.P,U1,22*%
X101650800Y-86360000D03*
%TO.P,U1,23*%
X104190800Y-86360000D03*
%TO.P,U1,24*%
X106730800Y-86360000D03*
%TO.P,U1,25*%
X109270800Y-86360000D03*
%TO.P,U1,26*%
%TO.N,Net-(J1-Pad1)*%
X111810800Y-86360000D03*
%TO.P,U1,27*%
%TO.N,Net-(J1-Pad2)*%
X114350800Y-86360000D03*
%TO.P,U1,28*%
%TO.N,N/C*%
X116890800Y-86360000D03*
%TO.P,U1,29*%
X119430800Y-86360000D03*
%TO.P,U1,30*%
%TO.N,/CLOCK1*%
X121970800Y-86360000D03*
%TO.P,U1,31*%
%TO.N,/DATA1*%
X124510800Y-86360000D03*
%TO.P,U1,32*%
%TO.N,/CLOCK2*%
X127050800Y-86360000D03*
%TO.P,U1,33*%
%TO.N,N/C*%
X129590800Y-86360000D03*
%TO.P,U1,34*%
%TO.N,/DATA2*%
X132130800Y-86360000D03*
%TO.P,U1,35*%
%TO.N,N/C*%
X134670800Y-86360000D03*
%TO.P,U1,36*%
X137210800Y-86360000D03*
%TO.P,U1,37*%
X139750800Y-86360000D03*
%TO.P,U1,38*%
%TO.N,+5V*%
X142290800Y-86360000D03*
%TO.P,U1,39*%
%TO.N,GND*%
X144830800Y-86360000D03*
%TO.P,U1,40*%
%TO.N,N/C*%
X147421600Y-86360000D03*
%TD*%
D18*
%TO.P,H3,1*%
%TO.N,N/C*%
X161290000Y-109220000D03*
%TD*%
%TO.P,H2,1*%
%TO.N,N/C*%
X86360000Y-109220000D03*
%TD*%
%TO.P,H4,1*%
%TO.N,N/C*%
X161290000Y-67310000D03*
%TD*%
%TO.P,H1,1*%
%TO.N,N/C*%
X86360000Y-67310000D03*
%TD*%
D19*
%TO.P,R8,2*%
%TO.N,Net-(D4-Pad2)*%
X153670000Y-102870000D03*
D11*
%TO.P,R8,1*%
%TO.N,/MOUSE2*%
X153670000Y-92710000D03*
%TD*%
D19*
%TO.P,R7,2*%
%TO.N,Net-(D3-Pad2)*%
X147320000Y-102870000D03*
D11*
%TO.P,R7,1*%
%TO.N,/KB2*%
X147320000Y-92710000D03*
%TD*%
D19*
%TO.P,R6,2*%
%TO.N,Net-(D2-Pad2)*%
X101600000Y-102870000D03*
D11*
%TO.P,R6,1*%
%TO.N,/MOUSE1*%
X101600000Y-92710000D03*
%TD*%
D19*
%TO.P,R5,2*%
%TO.N,Net-(D1-Pad2)*%
X95250000Y-102870000D03*
D11*
%TO.P,R5,1*%
%TO.N,/KB1*%
X95250000Y-92710000D03*
%TD*%
D19*
%TO.P,R4,2*%
%TO.N,/DATA2*%
X138430000Y-96520000D03*
D11*
%TO.P,R4,1*%
%TO.N,+5V*%
X128270000Y-96520000D03*
%TD*%
D19*
%TO.P,R3,2*%
%TO.N,/CLOCK2*%
X138430000Y-92710000D03*
D11*
%TO.P,R3,1*%
%TO.N,+5V*%
X128270000Y-92710000D03*
%TD*%
D19*
%TO.P,R2,2*%
%TO.N,/DATA1*%
X120650000Y-96520000D03*
D11*
%TO.P,R2,1*%
%TO.N,+5V*%
X110490000Y-96520000D03*
%TD*%
D19*
%TO.P,R1,2*%
%TO.N,/CLOCK1*%
X120650000Y-92710000D03*
D11*
%TO.P,R1,1*%
%TO.N,+5V*%
X110490000Y-92710000D03*
%TD*%
D20*
%TO.P,D4,2*%
%TO.N,Net-(D4-Pad2)*%
X153670000Y-107950000D03*
D21*
%TO.P,D4,1*%
%TO.N,GND*%
X151130000Y-107950000D03*
%TD*%
D20*
%TO.P,D3,2*%
%TO.N,Net-(D3-Pad2)*%
X147320000Y-107950000D03*
D21*
%TO.P,D3,1*%
%TO.N,GND*%
X144780000Y-107950000D03*
%TD*%
D20*
%TO.P,D2,2*%
%TO.N,Net-(D2-Pad2)*%
X101600000Y-107950000D03*
D21*
%TO.P,D2,1*%
%TO.N,GND*%
X99060000Y-107950000D03*
%TD*%
D20*
%TO.P,D1,2*%
%TO.N,Net-(D1-Pad2)*%
X95250000Y-107950000D03*
D21*
%TO.P,D1,1*%
%TO.N,GND*%
X92710000Y-107950000D03*
%TD*%
D22*
%TO.N,Net-(D1-Pad2)*%
X95250000Y-107950000D02*
X95250000Y-102870000D01*
D23*
%TO.N,GND*%
X144830800Y-86360000D02*
X144830800Y-94759200D01*
X138300000Y-106990000D02*
X138900000Y-106990000D01*
X135450000Y-104140000D02*
X135450000Y-104390000D01*
X126000000Y-107790000D02*
X125200000Y-106990000D01*
X125200000Y-106990000D02*
X121120000Y-106990000D01*
X121120000Y-106990000D02*
X120520000Y-106990000D01*
X117670000Y-104140000D02*
X117670000Y-104390000D01*
X108220000Y-107790000D02*
X107420000Y-106990000D01*
X107420000Y-106990000D02*
X109530000Y-106990000D01*
X110330000Y-107790000D02*
X114270000Y-107790000D01*
X109530000Y-106990000D02*
X110330000Y-107790000D01*
X107420000Y-106990000D02*
X107420000Y-107210000D01*
X104140000Y-110490000D02*
X99060000Y-110490000D01*
X99060000Y-110490000D02*
X99060000Y-107950000D01*
X92710000Y-110490000D02*
X92710000Y-107950000D01*
X99060000Y-110490000D02*
X92710000Y-110490000D01*
X138900000Y-106990000D02*
X138900000Y-109690000D01*
X138900000Y-109690000D02*
X139700000Y-110490000D01*
X139700000Y-110490000D02*
X144780000Y-110490000D01*
X144780000Y-110490000D02*
X144780000Y-107950000D01*
X144780000Y-110490000D02*
X151130000Y-110490000D01*
X151130000Y-110490000D02*
X151130000Y-107950000D01*
X144780000Y-94810000D02*
X144830800Y-94759200D01*
X144780000Y-107950000D02*
X144780000Y-94810000D01*
X132050000Y-107790000D02*
X132050000Y-110460000D01*
X132050000Y-110460000D02*
X132020000Y-110490000D01*
X132020000Y-110490000D02*
X125730000Y-110490000D01*
X125200000Y-108480000D02*
X125200000Y-106990000D01*
X125200000Y-106990000D02*
X125200000Y-109960000D01*
X125200000Y-109960000D02*
X125730000Y-110490000D01*
X117670000Y-104140000D02*
X118940000Y-105410000D01*
X118940000Y-105410000D02*
X118940000Y-106240000D01*
X119690000Y-106990000D02*
X121120000Y-106990000D01*
X118940000Y-106240000D02*
X119690000Y-106990000D01*
X119690000Y-106990000D02*
X119070000Y-106990000D01*
X118270000Y-107790000D02*
X114270000Y-107790000D01*
X119070000Y-106990000D02*
X118270000Y-107790000D01*
X135450000Y-104140000D02*
X136720000Y-105410000D01*
X136720000Y-105410000D02*
X136720000Y-106240000D01*
X137470000Y-106990000D02*
X138900000Y-106990000D01*
X136720000Y-106240000D02*
X137470000Y-106990000D01*
X132050000Y-107790000D02*
X132240000Y-107790000D01*
X132050000Y-107790000D02*
X134460000Y-107790000D01*
X134460000Y-107790000D02*
X135450000Y-106800000D01*
X136160000Y-106800000D02*
X136720000Y-106240000D01*
X135450000Y-106800000D02*
X136160000Y-106800000D01*
X107420000Y-106990000D02*
X107420000Y-109750000D01*
X107420000Y-109750000D02*
X106680000Y-110490000D01*
X106680000Y-110490000D02*
X102870000Y-110490000D01*
D22*
%TO.N,Net-(D2-Pad2)*%
X101600000Y-107950000D02*
X101600000Y-102870000D01*
%TO.N,Net-(D3-Pad2)*%
X147320000Y-107950000D02*
X147320000Y-102870000D01*
%TO.N,Net-(D4-Pad2)*%
X153670000Y-107950000D02*
X153670000Y-102870000D01*
D23*
%TO.N,+5V*%
X135940800Y-92710000D02*
X128270000Y-92710000D01*
X142290800Y-86360000D02*
X135940800Y-92710000D01*
X111690001Y-91509999D02*
X110490000Y-92710000D01*
X127069999Y-91509999D02*
X111690001Y-91509999D01*
X128270000Y-92710000D02*
X127069999Y-91509999D01*
X127449999Y-102939999D02*
X128650000Y-104140000D01*
X127449999Y-97340001D02*
X127449999Y-102939999D01*
X128270000Y-96520000D02*
X127449999Y-97340001D01*
X109669999Y-102939999D02*
X110870000Y-104140000D01*
X109669999Y-97340001D02*
X109669999Y-102939999D01*
X110490000Y-96520000D02*
X109669999Y-97340001D01*
X110490000Y-92710000D02*
X110490000Y-96520000D01*
X128270000Y-92710000D02*
X128270000Y-96520000D01*
D22*
%TO.N,/DATA1*%
X117660003Y-103014999D02*
X116695001Y-103014999D01*
X120650000Y-100025002D02*
X117660003Y-103014999D01*
X116695001Y-103014999D02*
X115570000Y-104140000D01*
X120650000Y-96520000D02*
X120650000Y-100025002D01*
%TO.N,/DATA2*%
X135440003Y-103014999D02*
X134475001Y-103014999D01*
X134475001Y-103014999D02*
X133350000Y-104140000D01*
X138430000Y-100025002D02*
X135440003Y-103014999D01*
X138430000Y-96520000D02*
X138430000Y-100025002D01*
%TO.N,/MOUSE1*%
X128402190Y-70366262D02*
X129098462Y-69669990D01*
X129098462Y-69669990D02*
X130680790Y-69669990D01*
X128402190Y-74848610D02*
X128402190Y-70366262D01*
X118079410Y-85171390D02*
X128402190Y-74848610D01*
X118079410Y-87113738D02*
X118079410Y-85171390D01*
X117383138Y-87810010D02*
X118079410Y-87113738D01*
X106499990Y-87810010D02*
X117383138Y-87810010D01*
X101600000Y-92710000D02*
X106499990Y-87810010D01*
X130680790Y-69669990D02*
X132130800Y-71120000D01*
%TO.N,/KB2*%
X131040810Y-72570010D02*
X129590800Y-71120000D01*
X148610210Y-85606262D02*
X135573958Y-72570010D01*
X148610210Y-91419790D02*
X148610210Y-85606262D01*
X135573958Y-72570010D02*
X131040810Y-72570010D01*
X147320000Y-92710000D02*
X148610210Y-91419790D01*
%TO.N,/MOUSE2*%
X153670000Y-85830070D02*
X140409940Y-72570010D01*
X130867190Y-69219979D02*
X127575821Y-69219979D01*
X140409940Y-72570010D02*
X139258462Y-72570010D01*
X131317200Y-69669990D02*
X130867190Y-69219979D01*
X137703138Y-69669990D02*
X131317200Y-69669990D01*
X139258462Y-72570010D02*
X138399410Y-71710958D01*
X127575821Y-69219979D02*
X127050800Y-69745000D01*
X153670000Y-92710000D02*
X153670000Y-85830070D01*
X138399410Y-71710958D02*
X138399410Y-70366262D01*
X127050800Y-69745000D02*
X127050800Y-71120000D01*
X138399410Y-70366262D02*
X137703138Y-69669990D01*
%TD*%
D24*
%TO.N,GND*%
G36*
X157922786Y-64546599D02*
G01*
X157448373Y-65256608D01*
X157121592Y-66045527D01*
X156955000Y-66883040D01*
X156955000Y-67736960D01*
X157121592Y-68574473D01*
X157448373Y-69363392D01*
X157922786Y-70073401D01*
X158526599Y-70677214D01*
X159236608Y-71151627D01*
X160025527Y-71478408D01*
X160863040Y-71645000D01*
X161716960Y-71645000D01*
X162554473Y-71478408D01*
X163343392Y-71151627D01*
X164053401Y-70677214D01*
X164440000Y-70290615D01*
X164440001Y-106239386D01*
X164053401Y-105852786D01*
X163343392Y-105378373D01*
X162554473Y-105051592D01*
X161716960Y-104885000D01*
X160863040Y-104885000D01*
X160025527Y-105051592D01*
X159236608Y-105378373D01*
X158526599Y-105852786D01*
X157922786Y-106456599D01*
X157448373Y-107166608D01*
X157121592Y-107955527D01*
X156955000Y-108793040D01*
X156955000Y-109646960D01*
X157121592Y-110484473D01*
X157448373Y-111273392D01*
X157922786Y-111983401D01*
X158309385Y-112370000D01*
X89340615Y-112370000D01*
X89727214Y-111983401D01*
X90201627Y-111273392D01*
X90528408Y-110484473D01*
X90695000Y-109646960D01*
X90695000Y-108850000D01*
X91171928Y-108850000D01*
X91184188Y-108974482D01*
X91220498Y-109094180D01*
X91279463Y-109204494D01*
X91358815Y-109301185D01*
X91455506Y-109380537D01*
X91565820Y-109439502D01*
X91685518Y-109475812D01*
X91810000Y-109488072D01*
X92424250Y-109485000D01*
X92583000Y-109326250D01*
X92583000Y-108077000D01*
X91333750Y-108077000D01*
X91175000Y-108235750D01*
X91171928Y-108850000D01*
X90695000Y-108850000D01*
X90695000Y-108793040D01*
X90528408Y-107955527D01*
X90201627Y-107166608D01*
X90123713Y-107050000D01*
X91171928Y-107050000D01*
X91175000Y-107664250D01*
X91333750Y-107823000D01*
X92583000Y-107823000D01*
X92583000Y-106573750D01*
X92837000Y-106573750D01*
X92837000Y-107823000D01*
X92857000Y-107823000D01*
X92857000Y-108077000D01*
X92837000Y-108077000D01*
X92837000Y-109326250D01*
X92995750Y-109485000D01*
X93610000Y-109488072D01*
X93734482Y-109475812D01*
X93854180Y-109439502D01*
X93964494Y-109380537D01*
X94061185Y-109301185D01*
X94140537Y-109204494D01*
X94199502Y-109094180D01*
X94205056Y-109075873D01*
X94271495Y-109142312D01*
X94522905Y-109310299D01*
X94802257Y-109426011D01*
X95098816Y-109485000D01*
X95401184Y-109485000D01*
X95697743Y-109426011D01*
X95977095Y-109310299D01*
X96228505Y-109142312D01*
X96442312Y-108928505D01*
X96494767Y-108850000D01*
X97521928Y-108850000D01*
X97534188Y-108974482D01*
X97570498Y-109094180D01*
X97629463Y-109204494D01*
X97708815Y-109301185D01*
X97805506Y-109380537D01*
X97915820Y-109439502D01*
X98035518Y-109475812D01*
X98160000Y-109488072D01*
X98774250Y-109485000D01*
X98933000Y-109326250D01*
X98933000Y-108077000D01*
X97683750Y-108077000D01*
X97525000Y-108235750D01*
X97521928Y-108850000D01*
X96494767Y-108850000D01*
X96610299Y-108677095D01*
X96726011Y-108397743D01*
X96785000Y-108101184D01*
X96785000Y-107798816D01*
X96726011Y-107502257D01*
X96610299Y-107222905D01*
X96494768Y-107050000D01*
X97521928Y-107050000D01*
X97525000Y-107664250D01*
X97683750Y-107823000D01*
X98933000Y-107823000D01*
X98933000Y-106573750D01*
X99187000Y-106573750D01*
X99187000Y-107823000D01*
X99207000Y-107823000D01*
X99207000Y-108077000D01*
X99187000Y-108077000D01*
X99187000Y-109326250D01*
X99345750Y-109485000D01*
X99960000Y-109488072D01*
X100084482Y-109475812D01*
X100204180Y-109439502D01*
X100314494Y-109380537D01*
X100411185Y-109301185D01*
X100490537Y-109204494D01*
X100549502Y-109094180D01*
X100555056Y-109075873D01*
X100621495Y-109142312D01*
X100872905Y-109310299D01*
X101152257Y-109426011D01*
X101448816Y-109485000D01*
X101751184Y-109485000D01*
X102047743Y-109426011D01*
X102327095Y-109310299D01*
X102578505Y-109142312D01*
X102792312Y-108928505D01*
X102960299Y-108677095D01*
X103076011Y-108397743D01*
X103135000Y-108101184D01*
X103135000Y-107798816D01*
X103076011Y-107502257D01*
X102960299Y-107222905D01*
X102889536Y-107117000D01*
X105785000Y-107117000D01*
X105785000Y-107867000D01*
X105841193Y-108183532D01*
X105958058Y-108483020D01*
X106131105Y-108753954D01*
X106353683Y-108985922D01*
X106617239Y-109170010D01*
X106911645Y-109299144D01*
X107039566Y-109330124D01*
X107293000Y-109210777D01*
X107293000Y-107117000D01*
X107547000Y-107117000D01*
X107547000Y-109210777D01*
X107800434Y-109330124D01*
X107928355Y-109299144D01*
X108222761Y-109170010D01*
X108486317Y-108985922D01*
X108708895Y-108753954D01*
X108881942Y-108483020D01*
X108998807Y-108183532D01*
X109001132Y-108170434D01*
X111679876Y-108170434D01*
X111710856Y-108298355D01*
X111839990Y-108592761D01*
X112024078Y-108856317D01*
X112256046Y-109078895D01*
X112526980Y-109251942D01*
X112826468Y-109368807D01*
X113143000Y-109425000D01*
X114143000Y-109425000D01*
X114143000Y-107917000D01*
X114397000Y-107917000D01*
X114397000Y-109425000D01*
X115397000Y-109425000D01*
X115713532Y-109368807D01*
X116013020Y-109251942D01*
X116283954Y-109078895D01*
X116515922Y-108856317D01*
X116700010Y-108592761D01*
X116829144Y-108298355D01*
X116860124Y-108170434D01*
X116740777Y-107917000D01*
X114397000Y-107917000D01*
X114143000Y-107917000D01*
X111799223Y-107917000D01*
X111679876Y-108170434D01*
X109001132Y-108170434D01*
X109055000Y-107867000D01*
X109055000Y-107409566D01*
X111679876Y-107409566D01*
X111799223Y-107663000D01*
X114143000Y-107663000D01*
X114143000Y-106155000D01*
X114397000Y-106155000D01*
X114397000Y-107663000D01*
X116740777Y-107663000D01*
X116860124Y-107409566D01*
X116829144Y-107281645D01*
X116756927Y-107117000D01*
X119485000Y-107117000D01*
X119485000Y-107867000D01*
X119541193Y-108183532D01*
X119658058Y-108483020D01*
X119831105Y-108753954D01*
X120053683Y-108985922D01*
X120317239Y-109170010D01*
X120611645Y-109299144D01*
X120739566Y-109330124D01*
X120993000Y-109210777D01*
X120993000Y-107117000D01*
X121247000Y-107117000D01*
X121247000Y-109210777D01*
X121500434Y-109330124D01*
X121628355Y-109299144D01*
X121922761Y-109170010D01*
X122186317Y-108985922D01*
X122408895Y-108753954D01*
X122581942Y-108483020D01*
X122698807Y-108183532D01*
X122755000Y-107867000D01*
X122755000Y-107117000D01*
X123565000Y-107117000D01*
X123565000Y-107867000D01*
X123621193Y-108183532D01*
X123738058Y-108483020D01*
X123911105Y-108753954D01*
X124133683Y-108985922D01*
X124397239Y-109170010D01*
X124691645Y-109299144D01*
X124819566Y-109330124D01*
X125073000Y-109210777D01*
X125073000Y-107117000D01*
X125327000Y-107117000D01*
X125327000Y-109210777D01*
X125580434Y-109330124D01*
X125708355Y-109299144D01*
X126002761Y-109170010D01*
X126266317Y-108985922D01*
X126488895Y-108753954D01*
X126661942Y-108483020D01*
X126778807Y-108183532D01*
X126781132Y-108170434D01*
X129459876Y-108170434D01*
X129490856Y-108298355D01*
X129619990Y-108592761D01*
X129804078Y-108856317D01*
X130036046Y-109078895D01*
X130306980Y-109251942D01*
X130606468Y-109368807D01*
X130923000Y-109425000D01*
X131923000Y-109425000D01*
X131923000Y-107917000D01*
X132177000Y-107917000D01*
X132177000Y-109425000D01*
X133177000Y-109425000D01*
X133493532Y-109368807D01*
X133793020Y-109251942D01*
X134063954Y-109078895D01*
X134295922Y-108856317D01*
X134480010Y-108592761D01*
X134609144Y-108298355D01*
X134640124Y-108170434D01*
X134520777Y-107917000D01*
X132177000Y-107917000D01*
X131923000Y-107917000D01*
X129579223Y-107917000D01*
X129459876Y-108170434D01*
X126781132Y-108170434D01*
X126835000Y-107867000D01*
X126835000Y-107409566D01*
X129459876Y-107409566D01*
X129579223Y-107663000D01*
X131923000Y-107663000D01*
X131923000Y-106155000D01*
X132177000Y-106155000D01*
X132177000Y-107663000D01*
X134520777Y-107663000D01*
X134640124Y-107409566D01*
X134609144Y-107281645D01*
X134536927Y-107117000D01*
X137265000Y-107117000D01*
X137265000Y-107867000D01*
X137321193Y-108183532D01*
X137438058Y-108483020D01*
X137611105Y-108753954D01*
X137833683Y-108985922D01*
X138097239Y-109170010D01*
X138391645Y-109299144D01*
X138519566Y-109330124D01*
X138773000Y-109210777D01*
X138773000Y-107117000D01*
X139027000Y-107117000D01*
X139027000Y-109210777D01*
X139280434Y-109330124D01*
X139408355Y-109299144D01*
X139702761Y-109170010D01*
X139966317Y-108985922D01*
X140096736Y-108850000D01*
X143241928Y-108850000D01*
X143254188Y-108974482D01*
X143290498Y-109094180D01*
X143349463Y-109204494D01*
X143428815Y-109301185D01*
X143525506Y-109380537D01*
X143635820Y-109439502D01*
X143755518Y-109475812D01*
X143880000Y-109488072D01*
X144494250Y-109485000D01*
X144653000Y-109326250D01*
X144653000Y-108077000D01*
X143403750Y-108077000D01*
X143245000Y-108235750D01*
X143241928Y-108850000D01*
X140096736Y-108850000D01*
X140188895Y-108753954D01*
X140361942Y-108483020D01*
X140478807Y-108183532D01*
X140535000Y-107867000D01*
X140535000Y-107117000D01*
X139027000Y-107117000D01*
X138773000Y-107117000D01*
X137265000Y-107117000D01*
X134536927Y-107117000D01*
X134507539Y-107050000D01*
X143241928Y-107050000D01*
X143245000Y-107664250D01*
X143403750Y-107823000D01*
X144653000Y-107823000D01*
X144653000Y-106573750D01*
X144907000Y-106573750D01*
X144907000Y-107823000D01*
X144927000Y-107823000D01*
X144927000Y-108077000D01*
X144907000Y-108077000D01*
X144907000Y-109326250D01*
X145065750Y-109485000D01*
X145680000Y-109488072D01*
X145804482Y-109475812D01*
X145924180Y-109439502D01*
X146034494Y-109380537D01*
X146131185Y-109301185D01*
X146210537Y-109204494D01*
X146269502Y-109094180D01*
X146275056Y-109075873D01*
X146341495Y-109142312D01*
X146592905Y-109310299D01*
X146872257Y-109426011D01*
X147168816Y-109485000D01*
X147471184Y-109485000D01*
X147767743Y-109426011D01*
X148047095Y-109310299D01*
X148298505Y-109142312D01*
X148512312Y-108928505D01*
X148564767Y-108850000D01*
X149591928Y-108850000D01*
X149604188Y-108974482D01*
X149640498Y-109094180D01*
X149699463Y-109204494D01*
X149778815Y-109301185D01*
X149875506Y-109380537D01*
X149985820Y-109439502D01*
X150105518Y-109475812D01*
X150230000Y-109488072D01*
X150844250Y-109485000D01*
X151003000Y-109326250D01*
X151003000Y-108077000D01*
X149753750Y-108077000D01*
X149595000Y-108235750D01*
X149591928Y-108850000D01*
X148564767Y-108850000D01*
X148680299Y-108677095D01*
X148796011Y-108397743D01*
X148855000Y-108101184D01*
X148855000Y-107798816D01*
X148796011Y-107502257D01*
X148680299Y-107222905D01*
X148564768Y-107050000D01*
X149591928Y-107050000D01*
X149595000Y-107664250D01*
X149753750Y-107823000D01*
X151003000Y-107823000D01*
X151003000Y-106573750D01*
X151257000Y-106573750D01*
X151257000Y-107823000D01*
X151277000Y-107823000D01*
X151277000Y-108077000D01*
X151257000Y-108077000D01*
X151257000Y-109326250D01*
X151415750Y-109485000D01*
X152030000Y-109488072D01*
X152154482Y-109475812D01*
X152274180Y-109439502D01*
X152384494Y-109380537D01*
X152481185Y-109301185D01*
X152560537Y-109204494D01*
X152619502Y-109094180D01*
X152625056Y-109075873D01*
X152691495Y-109142312D01*
X152942905Y-109310299D01*
X153222257Y-109426011D01*
X153518816Y-109485000D01*
X153821184Y-109485000D01*
X154117743Y-109426011D01*
X154397095Y-109310299D01*
X154648505Y-109142312D01*
X154862312Y-108928505D01*
X155030299Y-108677095D01*
X155146011Y-108397743D01*
X155205000Y-108101184D01*
X155205000Y-107798816D01*
X155146011Y-107502257D01*
X155030299Y-107222905D01*
X154862312Y-106971495D01*
X154648505Y-106757688D01*
X154430000Y-106611687D01*
X154430000Y-104088043D01*
X154584759Y-103984637D01*
X154784637Y-103784759D01*
X154941680Y-103549727D01*
X155049853Y-103288574D01*
X155105000Y-103011335D01*
X155105000Y-102728665D01*
X155049853Y-102451426D01*
X154941680Y-102190273D01*
X154784637Y-101955241D01*
X154584759Y-101755363D01*
X154349727Y-101598320D01*
X154088574Y-101490147D01*
X153811335Y-101435000D01*
X153528665Y-101435000D01*
X153251426Y-101490147D01*
X152990273Y-101598320D01*
X152755241Y-101755363D01*
X152555363Y-101955241D01*
X152398320Y-102190273D01*
X152290147Y-102451426D01*
X152235000Y-102728665D01*
X152235000Y-103011335D01*
X152290147Y-103288574D01*
X152398320Y-103549727D01*
X152555363Y-103784759D01*
X152755241Y-103984637D01*
X152910001Y-104088044D01*
X152910000Y-106611687D01*
X152691495Y-106757688D01*
X152625056Y-106824127D01*
X152619502Y-106805820D01*
X152560537Y-106695506D01*
X152481185Y-106598815D01*
X152384494Y-106519463D01*
X152274180Y-106460498D01*
X152154482Y-106424188D01*
X152030000Y-106411928D01*
X151415750Y-106415000D01*
X151257000Y-106573750D01*
X151003000Y-106573750D01*
X150844250Y-106415000D01*
X150230000Y-106411928D01*
X150105518Y-106424188D01*
X149985820Y-106460498D01*
X149875506Y-106519463D01*
X149778815Y-106598815D01*
X149699463Y-106695506D01*
X149640498Y-106805820D01*
X149604188Y-106925518D01*
X149591928Y-107050000D01*
X148564768Y-107050000D01*
X148512312Y-106971495D01*
X148298505Y-106757688D01*
X148080000Y-106611687D01*
X148080000Y-104088043D01*
X148234759Y-103984637D01*
X148434637Y-103784759D01*
X148591680Y-103549727D01*
X148699853Y-103288574D01*
X148755000Y-103011335D01*
X148755000Y-102728665D01*
X148699853Y-102451426D01*
X148591680Y-102190273D01*
X148434637Y-101955241D01*
X148234759Y-101755363D01*
X147999727Y-101598320D01*
X147738574Y-101490147D01*
X147461335Y-101435000D01*
X147178665Y-101435000D01*
X146901426Y-101490147D01*
X146640273Y-101598320D01*
X146405241Y-101755363D01*
X146205363Y-101955241D01*
X146048320Y-102190273D01*
X145940147Y-102451426D01*
X145885000Y-102728665D01*
X145885000Y-103011335D01*
X145940147Y-103288574D01*
X146048320Y-103549727D01*
X146205363Y-103784759D01*
X146405241Y-103984637D01*
X146560001Y-104088044D01*
X146560000Y-106611687D01*
X146341495Y-106757688D01*
X146275056Y-106824127D01*
X146269502Y-106805820D01*
X146210537Y-106695506D01*
X146131185Y-106598815D01*
X146034494Y-106519463D01*
X145924180Y-106460498D01*
X145804482Y-106424188D01*
X145680000Y-106411928D01*
X145065750Y-106415000D01*
X144907000Y-106573750D01*
X144653000Y-106573750D01*
X144494250Y-106415000D01*
X143880000Y-106411928D01*
X143755518Y-106424188D01*
X143635820Y-106460498D01*
X143525506Y-106519463D01*
X143428815Y-106598815D01*
X143349463Y-106695506D01*
X143290498Y-106805820D01*
X143254188Y-106925518D01*
X143241928Y-107050000D01*
X134507539Y-107050000D01*
X134480010Y-106987239D01*
X134295922Y-106723683D01*
X134063954Y-106501105D01*
X133793020Y-106328058D01*
X133493532Y-106211193D01*
X133177000Y-106155000D01*
X132177000Y-106155000D01*
X131923000Y-106155000D01*
X130923000Y-106155000D01*
X130606468Y-106211193D01*
X130306980Y-106328058D01*
X130036046Y-106501105D01*
X129804078Y-106723683D01*
X129619990Y-106987239D01*
X129490856Y-107281645D01*
X129459876Y-107409566D01*
X126835000Y-107409566D01*
X126835000Y-107117000D01*
X125327000Y-107117000D01*
X125073000Y-107117000D01*
X123565000Y-107117000D01*
X122755000Y-107117000D01*
X121247000Y-107117000D01*
X120993000Y-107117000D01*
X119485000Y-107117000D01*
X116756927Y-107117000D01*
X116700010Y-106987239D01*
X116515922Y-106723683D01*
X116283954Y-106501105D01*
X116013020Y-106328058D01*
X115713532Y-106211193D01*
X115397000Y-106155000D01*
X114397000Y-106155000D01*
X114143000Y-106155000D01*
X113143000Y-106155000D01*
X112826468Y-106211193D01*
X112526980Y-106328058D01*
X112256046Y-106501105D01*
X112024078Y-106723683D01*
X111839990Y-106987239D01*
X111710856Y-107281645D01*
X111679876Y-107409566D01*
X109055000Y-107409566D01*
X109055000Y-107117000D01*
X107547000Y-107117000D01*
X107293000Y-107117000D01*
X105785000Y-107117000D01*
X102889536Y-107117000D01*
X102792312Y-106971495D01*
X102578505Y-106757688D01*
X102360000Y-106611687D01*
X102360000Y-106113000D01*
X105785000Y-106113000D01*
X105785000Y-106863000D01*
X107293000Y-106863000D01*
X107293000Y-104769223D01*
X107547000Y-104769223D01*
X107547000Y-106863000D01*
X109055000Y-106863000D01*
X109055000Y-106113000D01*
X119485000Y-106113000D01*
X119485000Y-106863000D01*
X120993000Y-106863000D01*
X120993000Y-104769223D01*
X121247000Y-104769223D01*
X121247000Y-106863000D01*
X122755000Y-106863000D01*
X122755000Y-106113000D01*
X123565000Y-106113000D01*
X123565000Y-106863000D01*
X125073000Y-106863000D01*
X125073000Y-104769223D01*
X125327000Y-104769223D01*
X125327000Y-106863000D01*
X126835000Y-106863000D01*
X126835000Y-106113000D01*
X137265000Y-106113000D01*
X137265000Y-106863000D01*
X138773000Y-106863000D01*
X138773000Y-104769223D01*
X139027000Y-104769223D01*
X139027000Y-106863000D01*
X140535000Y-106863000D01*
X140535000Y-106113000D01*
X140478807Y-105796468D01*
X140361942Y-105496980D01*
X140188895Y-105226046D01*
X139966317Y-104994078D01*
X139702761Y-104809990D01*
X139408355Y-104680856D01*
X139280434Y-104649876D01*
X139027000Y-104769223D01*
X138773000Y-104769223D01*
X138519566Y-104649876D01*
X138391645Y-104680856D01*
X138097239Y-104809990D01*
X137833683Y-104994078D01*
X137611105Y-105226046D01*
X137438058Y-105496980D01*
X137321193Y-105796468D01*
X137265000Y-106113000D01*
X126835000Y-106113000D01*
X126778807Y-105796468D01*
X126661942Y-105496980D01*
X126488895Y-105226046D01*
X126266317Y-104994078D01*
X126002761Y-104809990D01*
X125708355Y-104680856D01*
X125580434Y-104649876D01*
X125327000Y-104769223D01*
X125073000Y-104769223D01*
X124819566Y-104649876D01*
X124691645Y-104680856D01*
X124397239Y-104809990D01*
X124133683Y-104994078D01*
X123911105Y-105226046D01*
X123738058Y-105496980D01*
X123621193Y-105796468D01*
X123565000Y-106113000D01*
X122755000Y-106113000D01*
X122698807Y-105796468D01*
X122581942Y-105496980D01*
X122408895Y-105226046D01*
X122186317Y-104994078D01*
X121922761Y-104809990D01*
X121628355Y-104680856D01*
X121500434Y-104649876D01*
X121247000Y-104769223D01*
X120993000Y-104769223D01*
X120739566Y-104649876D01*
X120611645Y-104680856D01*
X120317239Y-104809990D01*
X120053683Y-104994078D01*
X119831105Y-105226046D01*
X119658058Y-105496980D01*
X119541193Y-105796468D01*
X119485000Y-106113000D01*
X109055000Y-106113000D01*
X108998807Y-105796468D01*
X108881942Y-105496980D01*
X108708895Y-105226046D01*
X108486317Y-104994078D01*
X108222761Y-104809990D01*
X107928355Y-104680856D01*
X107800434Y-104649876D01*
X107547000Y-104769223D01*
X107293000Y-104769223D01*
X107039566Y-104649876D01*
X106911645Y-104680856D01*
X106617239Y-104809990D01*
X106353683Y-104994078D01*
X106131105Y-105226046D01*
X105958058Y-105496980D01*
X105841193Y-105796468D01*
X105785000Y-106113000D01*
X102360000Y-106113000D01*
X102360000Y-104088043D01*
X102514759Y-103984637D01*
X102714637Y-103784759D01*
X102871680Y-103549727D01*
X102979853Y-103288574D01*
X103035000Y-103011335D01*
X103035000Y-102728665D01*
X102979853Y-102451426D01*
X102871680Y-102190273D01*
X102714637Y-101955241D01*
X102514759Y-101755363D01*
X102279727Y-101598320D01*
X102018574Y-101490147D01*
X101741335Y-101435000D01*
X101458665Y-101435000D01*
X101181426Y-101490147D01*
X100920273Y-101598320D01*
X100685241Y-101755363D01*
X100485363Y-101955241D01*
X100328320Y-102190273D01*
X100220147Y-102451426D01*
X100165000Y-102728665D01*
X100165000Y-103011335D01*
X100220147Y-103288574D01*
X100328320Y-103549727D01*
X100485363Y-103784759D01*
X100685241Y-103984637D01*
X100840001Y-104088044D01*
X100840000Y-106611687D01*
X100621495Y-106757688D01*
X100555056Y-106824127D01*
X100549502Y-106805820D01*
X100490537Y-106695506D01*
X100411185Y-106598815D01*
X100314494Y-106519463D01*
X100204180Y-106460498D01*
X100084482Y-106424188D01*
X99960000Y-106411928D01*
X99345750Y-106415000D01*
X99187000Y-106573750D01*
X98933000Y-106573750D01*
X98774250Y-106415000D01*
X98160000Y-106411928D01*
X98035518Y-106424188D01*
X97915820Y-106460498D01*
X97805506Y-106519463D01*
X97708815Y-106598815D01*
X97629463Y-106695506D01*
X97570498Y-106805820D01*
X97534188Y-106925518D01*
X97521928Y-107050000D01*
X96494768Y-107050000D01*
X96442312Y-106971495D01*
X96228505Y-106757688D01*
X96010000Y-106611687D01*
X96010000Y-104088043D01*
X96164759Y-103984637D01*
X96364637Y-103784759D01*
X96521680Y-103549727D01*
X96629853Y-103288574D01*
X96685000Y-103011335D01*
X96685000Y-102728665D01*
X96629853Y-102451426D01*
X96521680Y-102190273D01*
X96364637Y-101955241D01*
X96164759Y-101755363D01*
X95929727Y-101598320D01*
X95668574Y-101490147D01*
X95391335Y-101435000D01*
X95108665Y-101435000D01*
X94831426Y-101490147D01*
X94570273Y-101598320D01*
X94335241Y-101755363D01*
X94135363Y-101955241D01*
X93978320Y-102190273D01*
X93870147Y-102451426D01*
X93815000Y-102728665D01*
X93815000Y-103011335D01*
X93870147Y-103288574D01*
X93978320Y-103549727D01*
X94135363Y-103784759D01*
X94335241Y-103984637D01*
X94490001Y-104088044D01*
X94490000Y-106611687D01*
X94271495Y-106757688D01*
X94205056Y-106824127D01*
X94199502Y-106805820D01*
X94140537Y-106695506D01*
X94061185Y-106598815D01*
X93964494Y-106519463D01*
X93854180Y-106460498D01*
X93734482Y-106424188D01*
X93610000Y-106411928D01*
X92995750Y-106415000D01*
X92837000Y-106573750D01*
X92583000Y-106573750D01*
X92424250Y-106415000D01*
X91810000Y-106411928D01*
X91685518Y-106424188D01*
X91565820Y-106460498D01*
X91455506Y-106519463D01*
X91358815Y-106598815D01*
X91279463Y-106695506D01*
X91220498Y-106805820D01*
X91184188Y-106925518D01*
X91171928Y-107050000D01*
X90123713Y-107050000D01*
X89727214Y-106456599D01*
X89123401Y-105852786D01*
X88413392Y-105378373D01*
X87624473Y-105051592D01*
X86786960Y-104885000D01*
X85933040Y-104885000D01*
X85095527Y-105051592D01*
X84306608Y-105378373D01*
X83596599Y-105852786D01*
X83210000Y-106239385D01*
X83210000Y-95670000D01*
X84871928Y-95670000D01*
X84871928Y-97370000D01*
X84884188Y-97494482D01*
X84920498Y-97614180D01*
X84979463Y-97724494D01*
X85058815Y-97821185D01*
X85155506Y-97900537D01*
X85265820Y-97959502D01*
X85338380Y-97981513D01*
X85206525Y-98113368D01*
X85044010Y-98356589D01*
X84932068Y-98626842D01*
X84875000Y-98913740D01*
X84875000Y-99206260D01*
X84932068Y-99493158D01*
X85044010Y-99763411D01*
X85206525Y-100006632D01*
X85413368Y-100213475D01*
X85656589Y-100375990D01*
X85926842Y-100487932D01*
X86213740Y-100545000D01*
X86506260Y-100545000D01*
X86793158Y-100487932D01*
X87063411Y-100375990D01*
X87306632Y-100213475D01*
X87513475Y-100006632D01*
X87675990Y-99763411D01*
X87787932Y-99493158D01*
X87845000Y-99206260D01*
X87845000Y-98913740D01*
X87787932Y-98626842D01*
X87675990Y-98356589D01*
X87513475Y-98113368D01*
X87381620Y-97981513D01*
X87454180Y-97959502D01*
X87564494Y-97900537D01*
X87661185Y-97821185D01*
X87740537Y-97724494D01*
X87799502Y-97614180D01*
X87835812Y-97494482D01*
X87848072Y-97370000D01*
X87848072Y-95670000D01*
X87835812Y-95545518D01*
X87799502Y-95425820D01*
X87740537Y-95315506D01*
X87661185Y-95218815D01*
X87564494Y-95139463D01*
X87454180Y-95080498D01*
X87334482Y-95044188D01*
X87210000Y-95031928D01*
X85510000Y-95031928D01*
X85385518Y-95044188D01*
X85265820Y-95080498D01*
X85155506Y-95139463D01*
X85058815Y-95218815D01*
X84979463Y-95315506D01*
X84920498Y-95425820D01*
X84884188Y-95545518D01*
X84871928Y-95670000D01*
X83210000Y-95670000D01*
X83210000Y-92568665D01*
X93815000Y-92568665D01*
X93815000Y-92851335D01*
X93870147Y-93128574D01*
X93978320Y-93389727D01*
X94135363Y-93624759D01*
X94335241Y-93824637D01*
X94570273Y-93981680D01*
X94831426Y-94089853D01*
X95108665Y-94145000D01*
X95391335Y-94145000D01*
X95668574Y-94089853D01*
X95929727Y-93981680D01*
X96164759Y-93824637D01*
X96364637Y-93624759D01*
X96521680Y-93389727D01*
X96629853Y-93128574D01*
X96685000Y-92851335D01*
X96685000Y-92568665D01*
X96629853Y-92291426D01*
X96521680Y-92030273D01*
X96364637Y-91795241D01*
X96164759Y-91595363D01*
X95929727Y-91438320D01*
X95668574Y-91330147D01*
X95391335Y-91275000D01*
X95108665Y-91275000D01*
X94831426Y-91330147D01*
X94570273Y-91438320D01*
X94335241Y-91595363D01*
X94135363Y-91795241D01*
X93978320Y-92030273D01*
X93870147Y-92291426D01*
X93815000Y-92568665D01*
X83210000Y-92568665D01*
X83210000Y-86024982D01*
X97612200Y-86024982D01*
X97612200Y-86695019D01*
X97633884Y-86915177D01*
X97719575Y-87197664D01*
X97858731Y-87458006D01*
X98046003Y-87686197D01*
X98274195Y-87873469D01*
X98534537Y-88012625D01*
X98817024Y-88098316D01*
X99110800Y-88127251D01*
X99404577Y-88098316D01*
X99687064Y-88012625D01*
X99947406Y-87873469D01*
X100175597Y-87686197D01*
X100362869Y-87458006D01*
X100380800Y-87424460D01*
X100398731Y-87458006D01*
X100586003Y-87686197D01*
X100814195Y-87873469D01*
X101074537Y-88012625D01*
X101357024Y-88098316D01*
X101650800Y-88127251D01*
X101944577Y-88098316D01*
X102227064Y-88012625D01*
X102487406Y-87873469D01*
X102715597Y-87686197D01*
X102902869Y-87458006D01*
X102920800Y-87424460D01*
X102938731Y-87458006D01*
X103126003Y-87686197D01*
X103354195Y-87873469D01*
X103614537Y-88012625D01*
X103897024Y-88098316D01*
X104190800Y-88127251D01*
X104484577Y-88098316D01*
X104767064Y-88012625D01*
X105027406Y-87873469D01*
X105255597Y-87686197D01*
X105442869Y-87458006D01*
X105460800Y-87424460D01*
X105478731Y-87458006D01*
X105613264Y-87621934D01*
X101923887Y-91311312D01*
X101741335Y-91275000D01*
X101458665Y-91275000D01*
X101181426Y-91330147D01*
X100920273Y-91438320D01*
X100685241Y-91595363D01*
X100485363Y-91795241D01*
X100328320Y-92030273D01*
X100220147Y-92291426D01*
X100165000Y-92568665D01*
X100165000Y-92851335D01*
X100220147Y-93128574D01*
X100328320Y-93389727D01*
X100485363Y-93624759D01*
X100685241Y-93824637D01*
X100920273Y-93981680D01*
X101181426Y-94089853D01*
X101458665Y-94145000D01*
X101741335Y-94145000D01*
X102018574Y-94089853D01*
X102279727Y-93981680D01*
X102514759Y-93824637D01*
X102714637Y-93624759D01*
X102871680Y-93389727D01*
X102979853Y-93128574D01*
X103035000Y-92851335D01*
X103035000Y-92568665D01*
X102998688Y-92386113D01*
X106814792Y-88570010D01*
X117345816Y-88570010D01*
X117383138Y-88573686D01*
X117420460Y-88570010D01*
X117420471Y-88570010D01*
X117532124Y-88559013D01*
X117675385Y-88515556D01*
X117807414Y-88444984D01*
X117923139Y-88350011D01*
X117946941Y-88321008D01*
X118484503Y-87783447D01*
X118594195Y-87873469D01*
X118854537Y-88012625D01*
X119137024Y-88098316D01*
X119430800Y-88127251D01*
X119724577Y-88098316D01*
X120007064Y-88012625D01*
X120267406Y-87873469D01*
X120495597Y-87686197D01*
X120682869Y-87458006D01*
X120700800Y-87424460D01*
X120718731Y-87458006D01*
X120906003Y-87686197D01*
X121134195Y-87873469D01*
X121394537Y-88012625D01*
X121677024Y-88098316D01*
X121970800Y-88127251D01*
X122264577Y-88098316D01*
X122547064Y-88012625D01*
X122807406Y-87873469D01*
X123035597Y-87686197D01*
X123222869Y-87458006D01*
X123240800Y-87424460D01*
X123258731Y-87458006D01*
X123446003Y-87686197D01*
X123674195Y-87873469D01*
X123934537Y-88012625D01*
X124217024Y-88098316D01*
X124510800Y-88127251D01*
X124804577Y-88098316D01*
X125087064Y-88012625D01*
X125347406Y-87873469D01*
X125575597Y-87686197D01*
X125762869Y-87458006D01*
X125780800Y-87424460D01*
X125798731Y-87458006D01*
X125986003Y-87686197D01*
X126214195Y-87873469D01*
X126474537Y-88012625D01*
X126757024Y-88098316D01*
X127050800Y-88127251D01*
X127344577Y-88098316D01*
X127627064Y-88012625D01*
X127887406Y-87873469D01*
X128115597Y-87686197D01*
X128302869Y-87458006D01*
X128320800Y-87424460D01*
X128338731Y-87458006D01*
X128526003Y-87686197D01*
X128754195Y-87873469D01*
X129014537Y-88012625D01*
X129297024Y-88098316D01*
X129590800Y-88127251D01*
X129884577Y-88098316D01*
X130167064Y-88012625D01*
X130427406Y-87873469D01*
X130655597Y-87686197D01*
X130842869Y-87458006D01*
X130860800Y-87424460D01*
X130878731Y-87458006D01*
X131066003Y-87686197D01*
X131294195Y-87873469D01*
X131554537Y-88012625D01*
X131837024Y-88098316D01*
X132130800Y-88127251D01*
X132424577Y-88098316D01*
X132707064Y-88012625D01*
X132967406Y-87873469D01*
X133195597Y-87686197D01*
X133382869Y-87458006D01*
X133400800Y-87424460D01*
X133418731Y-87458006D01*
X133606003Y-87686197D01*
X133834195Y-87873469D01*
X134094537Y-88012625D01*
X134377024Y-88098316D01*
X134670800Y-88127251D01*
X134964577Y-88098316D01*
X135247064Y-88012625D01*
X135507406Y-87873469D01*
X135735597Y-87686197D01*
X135922869Y-87458006D01*
X135940800Y-87424460D01*
X135958731Y-87458006D01*
X136146003Y-87686197D01*
X136374195Y-87873469D01*
X136634537Y-88012625D01*
X136917024Y-88098316D01*
X137210800Y-88127251D01*
X137504577Y-88098316D01*
X137787064Y-88012625D01*
X138047406Y-87873469D01*
X138275597Y-87686197D01*
X138462869Y-87458006D01*
X138480800Y-87424460D01*
X138498731Y-87458006D01*
X138686003Y-87686197D01*
X138914195Y-87873469D01*
X139174537Y-88012625D01*
X139391494Y-88078438D01*
X135594933Y-91875000D01*
X129437930Y-91875000D01*
X129384637Y-91795241D01*
X129184759Y-91595363D01*
X128949727Y-91438320D01*
X128688574Y-91330147D01*
X128411335Y-91275000D01*
X128128665Y-91275000D01*
X128034582Y-91293714D01*
X127689444Y-90948577D01*
X127663290Y-90916708D01*
X127536145Y-90812363D01*
X127391086Y-90734827D01*
X127233688Y-90687081D01*
X127111018Y-90674999D01*
X127111017Y-90674999D01*
X127069999Y-90670959D01*
X127028981Y-90674999D01*
X111731019Y-90674999D01*
X111690001Y-90670959D01*
X111648983Y-90674999D01*
X111648982Y-90674999D01*
X111526312Y-90687081D01*
X111436764Y-90714245D01*
X111368914Y-90734827D01*
X111223855Y-90812363D01*
X111141695Y-90879790D01*
X111096710Y-90916708D01*
X111070564Y-90948567D01*
X110725417Y-91293714D01*
X110631335Y-91275000D01*
X110348665Y-91275000D01*
X110071426Y-91330147D01*
X109810273Y-91438320D01*
X109575241Y-91595363D01*
X109375363Y-91795241D01*
X109218320Y-92030273D01*
X109110147Y-92291426D01*
X109055000Y-92568665D01*
X109055000Y-92851335D01*
X109110147Y-93128574D01*
X109218320Y-93389727D01*
X109375363Y-93624759D01*
X109575241Y-93824637D01*
X109655000Y-93877930D01*
X109655001Y-95352069D01*
X109575241Y-95405363D01*
X109375363Y-95605241D01*
X109218320Y-95840273D01*
X109110147Y-96101426D01*
X109055000Y-96378665D01*
X109055000Y-96661335D01*
X109072904Y-96751345D01*
X108999256Y-96841087D01*
X108972363Y-96873856D01*
X108894827Y-97018915D01*
X108847081Y-97176313D01*
X108830959Y-97340001D01*
X108834999Y-97381020D01*
X108835000Y-102898971D01*
X108830959Y-102939999D01*
X108847081Y-103103687D01*
X108894827Y-103261085D01*
X108968270Y-103398486D01*
X108972364Y-103406145D01*
X109076709Y-103533290D01*
X109108573Y-103559440D01*
X109453714Y-103904582D01*
X109435000Y-103998665D01*
X109435000Y-104281335D01*
X109490147Y-104558574D01*
X109598320Y-104819727D01*
X109755363Y-105054759D01*
X109955241Y-105254637D01*
X110190273Y-105411680D01*
X110451426Y-105519853D01*
X110728665Y-105575000D01*
X111011335Y-105575000D01*
X111288574Y-105519853D01*
X111549727Y-105411680D01*
X111784759Y-105254637D01*
X111920000Y-105119396D01*
X112055241Y-105254637D01*
X112290273Y-105411680D01*
X112551426Y-105519853D01*
X112828665Y-105575000D01*
X113111335Y-105575000D01*
X113388574Y-105519853D01*
X113649727Y-105411680D01*
X113884759Y-105254637D01*
X114084637Y-105054759D01*
X114135703Y-104978333D01*
X114144188Y-105064482D01*
X114180498Y-105184180D01*
X114239463Y-105294494D01*
X114318815Y-105391185D01*
X114415506Y-105470537D01*
X114525820Y-105529502D01*
X114645518Y-105565812D01*
X114770000Y-105578072D01*
X116370000Y-105578072D01*
X116494482Y-105565812D01*
X116614180Y-105529502D01*
X116724494Y-105470537D01*
X116821185Y-105391185D01*
X116900537Y-105294494D01*
X116903014Y-105289859D01*
X116928486Y-105376671D01*
X117183996Y-105497571D01*
X117458184Y-105566300D01*
X117740512Y-105580217D01*
X118020130Y-105538787D01*
X118286292Y-105443603D01*
X118411514Y-105376671D01*
X118483097Y-105132702D01*
X117670000Y-104319605D01*
X117655858Y-104333748D01*
X117476253Y-104154143D01*
X117490395Y-104140000D01*
X117849605Y-104140000D01*
X118662702Y-104953097D01*
X118906671Y-104881514D01*
X119027571Y-104626004D01*
X119096300Y-104351816D01*
X119110217Y-104069488D01*
X119068787Y-103789870D01*
X118973603Y-103523708D01*
X118906671Y-103398486D01*
X118662702Y-103326903D01*
X117849605Y-104140000D01*
X117490395Y-104140000D01*
X117476253Y-104125858D01*
X117655858Y-103946253D01*
X117670000Y-103960395D01*
X117891388Y-103739007D01*
X117952250Y-103720545D01*
X118084279Y-103649973D01*
X118200004Y-103555000D01*
X118223807Y-103525996D01*
X121161003Y-100588801D01*
X121190001Y-100565003D01*
X121284974Y-100449278D01*
X121355546Y-100317249D01*
X121399003Y-100173988D01*
X121410000Y-100062335D01*
X121410000Y-100062326D01*
X121413676Y-100025003D01*
X121410000Y-99987680D01*
X121410000Y-97738043D01*
X121564759Y-97634637D01*
X121764637Y-97434759D01*
X121921680Y-97199727D01*
X122029853Y-96938574D01*
X122085000Y-96661335D01*
X122085000Y-96378665D01*
X122029853Y-96101426D01*
X121921680Y-95840273D01*
X121764637Y-95605241D01*
X121564759Y-95405363D01*
X121329727Y-95248320D01*
X121068574Y-95140147D01*
X120791335Y-95085000D01*
X120508665Y-95085000D01*
X120231426Y-95140147D01*
X119970273Y-95248320D01*
X119735241Y-95405363D01*
X119535363Y-95605241D01*
X119378320Y-95840273D01*
X119270147Y-96101426D01*
X119215000Y-96378665D01*
X119215000Y-96661335D01*
X119270147Y-96938574D01*
X119378320Y-97199727D01*
X119535363Y-97434759D01*
X119735241Y-97634637D01*
X119890000Y-97738044D01*
X119890001Y-99710199D01*
X118940978Y-100659222D01*
X118784637Y-100425241D01*
X118584759Y-100225363D01*
X118349727Y-100068320D01*
X118088574Y-99960147D01*
X117811335Y-99905000D01*
X117528665Y-99905000D01*
X117251426Y-99960147D01*
X116990273Y-100068320D01*
X116755241Y-100225363D01*
X116555363Y-100425241D01*
X116398320Y-100660273D01*
X116290147Y-100921426D01*
X116235000Y-101198665D01*
X116235000Y-101481335D01*
X116290147Y-101758574D01*
X116398320Y-102019727D01*
X116555363Y-102254759D01*
X116564754Y-102264150D01*
X116546015Y-102265996D01*
X116402754Y-102309453D01*
X116270725Y-102380025D01*
X116155000Y-102474998D01*
X116131202Y-102503996D01*
X115933270Y-102701928D01*
X114770000Y-102701928D01*
X114645518Y-102714188D01*
X114525820Y-102750498D01*
X114415506Y-102809463D01*
X114318815Y-102888815D01*
X114239463Y-102985506D01*
X114180498Y-103095820D01*
X114144188Y-103215518D01*
X114135703Y-103301667D01*
X114084637Y-103225241D01*
X113884759Y-103025363D01*
X113649727Y-102868320D01*
X113388574Y-102760147D01*
X113111335Y-102705000D01*
X112828665Y-102705000D01*
X112551426Y-102760147D01*
X112290273Y-102868320D01*
X112055241Y-103025363D01*
X111920000Y-103160604D01*
X111784759Y-103025363D01*
X111549727Y-102868320D01*
X111288574Y-102760147D01*
X111187290Y-102740000D01*
X111288574Y-102719853D01*
X111549727Y-102611680D01*
X111784759Y-102454637D01*
X111984637Y-102254759D01*
X112141680Y-102019727D01*
X112249853Y-101758574D01*
X112305000Y-101481335D01*
X112305000Y-101198665D01*
X112249853Y-100921426D01*
X112141680Y-100660273D01*
X111984637Y-100425241D01*
X111784759Y-100225363D01*
X111549727Y-100068320D01*
X111288574Y-99960147D01*
X111011335Y-99905000D01*
X110728665Y-99905000D01*
X110504999Y-99949491D01*
X110504999Y-97955000D01*
X110631335Y-97955000D01*
X110908574Y-97899853D01*
X111169727Y-97791680D01*
X111404759Y-97634637D01*
X111604637Y-97434759D01*
X111761680Y-97199727D01*
X111869853Y-96938574D01*
X111925000Y-96661335D01*
X111925000Y-96378665D01*
X111869853Y-96101426D01*
X111761680Y-95840273D01*
X111604637Y-95605241D01*
X111404759Y-95405363D01*
X111325000Y-95352070D01*
X111325000Y-93877930D01*
X111404759Y-93824637D01*
X111604637Y-93624759D01*
X111761680Y-93389727D01*
X111869853Y-93128574D01*
X111925000Y-92851335D01*
X111925000Y-92568665D01*
X111906286Y-92474583D01*
X112035870Y-92344999D01*
X119259491Y-92344999D01*
X119215000Y-92568665D01*
X119215000Y-92851335D01*
X119270147Y-93128574D01*
X119378320Y-93389727D01*
X119535363Y-93624759D01*
X119735241Y-93824637D01*
X119970273Y-93981680D01*
X120231426Y-94089853D01*
X120508665Y-94145000D01*
X120791335Y-94145000D01*
X121068574Y-94089853D01*
X121329727Y-93981680D01*
X121564759Y-93824637D01*
X121764637Y-93624759D01*
X121921680Y-93389727D01*
X122029853Y-93128574D01*
X122085000Y-92851335D01*
X122085000Y-92568665D01*
X122040509Y-92344999D01*
X126724132Y-92344999D01*
X126853714Y-92474582D01*
X126835000Y-92568665D01*
X126835000Y-92851335D01*
X126890147Y-93128574D01*
X126998320Y-93389727D01*
X127155363Y-93624759D01*
X127355241Y-93824637D01*
X127435000Y-93877930D01*
X127435001Y-95352069D01*
X127355241Y-95405363D01*
X127155363Y-95605241D01*
X126998320Y-95840273D01*
X126890147Y-96101426D01*
X126835000Y-96378665D01*
X126835000Y-96661335D01*
X126852904Y-96751345D01*
X126779256Y-96841087D01*
X126752363Y-96873856D01*
X126674827Y-97018915D01*
X126627081Y-97176313D01*
X126610959Y-97340001D01*
X126614999Y-97381020D01*
X126615000Y-102898971D01*
X126610959Y-102939999D01*
X126627081Y-103103687D01*
X126674827Y-103261085D01*
X126748270Y-103398486D01*
X126752364Y-103406145D01*
X126856709Y-103533290D01*
X126888573Y-103559440D01*
X127233714Y-103904582D01*
X127215000Y-103998665D01*
X127215000Y-104281335D01*
X127270147Y-104558574D01*
X127378320Y-104819727D01*
X127535363Y-105054759D01*
X127735241Y-105254637D01*
X127970273Y-105411680D01*
X128231426Y-105519853D01*
X128508665Y-105575000D01*
X128791335Y-105575000D01*
X129068574Y-105519853D01*
X129329727Y-105411680D01*
X129564759Y-105254637D01*
X129700000Y-105119396D01*
X129835241Y-105254637D01*
X130070273Y-105411680D01*
X130331426Y-105519853D01*
X130608665Y-105575000D01*
X130891335Y-105575000D01*
X131168574Y-105519853D01*
X131429727Y-105411680D01*
X131664759Y-105254637D01*
X131864637Y-105054759D01*
X131915703Y-104978333D01*
X131924188Y-105064482D01*
X131960498Y-105184180D01*
X132019463Y-105294494D01*
X132098815Y-105391185D01*
X132195506Y-105470537D01*
X132305820Y-105529502D01*
X132425518Y-105565812D01*
X132550000Y-105578072D01*
X134150000Y-105578072D01*
X134274482Y-105565812D01*
X134394180Y-105529502D01*
X134504494Y-105470537D01*
X134601185Y-105391185D01*
X134680537Y-105294494D01*
X134683014Y-105289859D01*
X134708486Y-105376671D01*
X134963996Y-105497571D01*
X135238184Y-105566300D01*
X135520512Y-105580217D01*
X135800130Y-105538787D01*
X136066292Y-105443603D01*
X136191514Y-105376671D01*
X136263097Y-105132702D01*
X135450000Y-104319605D01*
X135435858Y-104333748D01*
X135256253Y-104154143D01*
X135270395Y-104140000D01*
X135629605Y-104140000D01*
X136442702Y-104953097D01*
X136686671Y-104881514D01*
X136807571Y-104626004D01*
X136876300Y-104351816D01*
X136890217Y-104069488D01*
X136848787Y-103789870D01*
X136753603Y-103523708D01*
X136686671Y-103398486D01*
X136442702Y-103326903D01*
X135629605Y-104140000D01*
X135270395Y-104140000D01*
X135256253Y-104125858D01*
X135435858Y-103946253D01*
X135450000Y-103960395D01*
X135671388Y-103739007D01*
X135732250Y-103720545D01*
X135864279Y-103649973D01*
X135980004Y-103555000D01*
X136003807Y-103525996D01*
X138941003Y-100588801D01*
X138970001Y-100565003D01*
X139064974Y-100449278D01*
X139135546Y-100317249D01*
X139179003Y-100173988D01*
X139190000Y-100062335D01*
X139190000Y-100062326D01*
X139193676Y-100025003D01*
X139190000Y-99987680D01*
X139190000Y-97738043D01*
X139344759Y-97634637D01*
X139544637Y-97434759D01*
X139701680Y-97199727D01*
X139809853Y-96938574D01*
X139865000Y-96661335D01*
X139865000Y-96378665D01*
X139809853Y-96101426D01*
X139701680Y-95840273D01*
X139544637Y-95605241D01*
X139344759Y-95405363D01*
X139109727Y-95248320D01*
X138848574Y-95140147D01*
X138571335Y-95085000D01*
X138288665Y-95085000D01*
X138011426Y-95140147D01*
X137750273Y-95248320D01*
X137515241Y-95405363D01*
X137315363Y-95605241D01*
X137158320Y-95840273D01*
X137050147Y-96101426D01*
X136995000Y-96378665D01*
X136995000Y-96661335D01*
X137050147Y-96938574D01*
X137158320Y-97199727D01*
X137315363Y-97434759D01*
X137515241Y-97634637D01*
X137670000Y-97738044D01*
X137670001Y-99710199D01*
X136720978Y-100659222D01*
X136564637Y-100425241D01*
X136364759Y-100225363D01*
X136129727Y-100068320D01*
X135868574Y-99960147D01*
X135591335Y-99905000D01*
X135308665Y-99905000D01*
X135031426Y-99960147D01*
X134770273Y-100068320D01*
X134535241Y-100225363D01*
X134335363Y-100425241D01*
X134178320Y-100660273D01*
X134070147Y-100921426D01*
X134015000Y-101198665D01*
X134015000Y-101481335D01*
X134070147Y-101758574D01*
X134178320Y-102019727D01*
X134335363Y-102254759D01*
X134344754Y-102264150D01*
X134326015Y-102265996D01*
X134182754Y-102309453D01*
X134050725Y-102380025D01*
X133935000Y-102474998D01*
X133911202Y-102503996D01*
X133713270Y-102701928D01*
X132550000Y-102701928D01*
X132425518Y-102714188D01*
X132305820Y-102750498D01*
X132195506Y-102809463D01*
X132098815Y-102888815D01*
X132019463Y-102985506D01*
X131960498Y-103095820D01*
X131924188Y-103215518D01*
X131915703Y-103301667D01*
X131864637Y-103225241D01*
X131664759Y-103025363D01*
X131429727Y-102868320D01*
X131168574Y-102760147D01*
X130891335Y-102705000D01*
X130608665Y-102705000D01*
X130331426Y-102760147D01*
X130070273Y-102868320D01*
X129835241Y-103025363D01*
X129700000Y-103160604D01*
X129564759Y-103025363D01*
X129329727Y-102868320D01*
X129068574Y-102760147D01*
X128967290Y-102740000D01*
X129068574Y-102719853D01*
X129329727Y-102611680D01*
X129564759Y-102454637D01*
X129764637Y-102254759D01*
X129921680Y-102019727D01*
X130029853Y-101758574D01*
X130085000Y-101481335D01*
X130085000Y-101198665D01*
X130029853Y-100921426D01*
X129921680Y-100660273D01*
X129764637Y-100425241D01*
X129564759Y-100225363D01*
X129329727Y-100068320D01*
X129068574Y-99960147D01*
X128791335Y-99905000D01*
X128508665Y-99905000D01*
X128284999Y-99949491D01*
X128284999Y-97955000D01*
X128411335Y-97955000D01*
X128688574Y-97899853D01*
X128949727Y-97791680D01*
X129184759Y-97634637D01*
X129384637Y-97434759D01*
X129541680Y-97199727D01*
X129649853Y-96938574D01*
X129705000Y-96661335D01*
X129705000Y-96378665D01*
X129649853Y-96101426D01*
X129541680Y-95840273D01*
X129384637Y-95605241D01*
X129184759Y-95405363D01*
X129105000Y-95352070D01*
X129105000Y-93877930D01*
X129184759Y-93824637D01*
X129384637Y-93624759D01*
X129437930Y-93545000D01*
X135899782Y-93545000D01*
X135940800Y-93549040D01*
X135981818Y-93545000D01*
X135981819Y-93545000D01*
X136104489Y-93532918D01*
X136261887Y-93485172D01*
X136406946Y-93407636D01*
X136534091Y-93303291D01*
X136560246Y-93271421D01*
X136995000Y-92836667D01*
X136995000Y-92851335D01*
X137050147Y-93128574D01*
X137158320Y-93389727D01*
X137315363Y-93624759D01*
X137515241Y-93824637D01*
X137750273Y-93981680D01*
X138011426Y-94089853D01*
X138288665Y-94145000D01*
X138571335Y-94145000D01*
X138848574Y-94089853D01*
X139109727Y-93981680D01*
X139344759Y-93824637D01*
X139544637Y-93624759D01*
X139701680Y-93389727D01*
X139809853Y-93128574D01*
X139865000Y-92851335D01*
X139865000Y-92568665D01*
X139809853Y-92291426D01*
X139701680Y-92030273D01*
X139544637Y-91795241D01*
X139344759Y-91595363D01*
X139109727Y-91438320D01*
X138848574Y-91330147D01*
X138571335Y-91275000D01*
X138556667Y-91275000D01*
X141794720Y-88036948D01*
X141997024Y-88098316D01*
X142290800Y-88127251D01*
X142584577Y-88098316D01*
X142867064Y-88012625D01*
X143127406Y-87873469D01*
X143355597Y-87686197D01*
X143542869Y-87458006D01*
X143563907Y-87418647D01*
X143655317Y-87559574D01*
X143860932Y-87770873D01*
X144103819Y-87937998D01*
X144374643Y-88054527D01*
X144471774Y-88076358D01*
X144703800Y-87955217D01*
X144703800Y-86487000D01*
X144683800Y-86487000D01*
X144683800Y-86233000D01*
X144703800Y-86233000D01*
X144703800Y-84764783D01*
X144471774Y-84643642D01*
X144374643Y-84665473D01*
X144103819Y-84782002D01*
X143860932Y-84949127D01*
X143655317Y-85160426D01*
X143563907Y-85301353D01*
X143542869Y-85261994D01*
X143355597Y-85033803D01*
X143127405Y-84846531D01*
X142867063Y-84707375D01*
X142584576Y-84621684D01*
X142290800Y-84592749D01*
X141997023Y-84621684D01*
X141714536Y-84707375D01*
X141454194Y-84846531D01*
X141226003Y-85033803D01*
X141038731Y-85261995D01*
X141020800Y-85295541D01*
X141002869Y-85261994D01*
X140815597Y-85033803D01*
X140587405Y-84846531D01*
X140327063Y-84707375D01*
X140044576Y-84621684D01*
X139750800Y-84592749D01*
X139457023Y-84621684D01*
X139174536Y-84707375D01*
X138914194Y-84846531D01*
X138686003Y-85033803D01*
X138498731Y-85261995D01*
X138480800Y-85295541D01*
X138462869Y-85261994D01*
X138275597Y-85033803D01*
X138047405Y-84846531D01*
X137787063Y-84707375D01*
X137504576Y-84621684D01*
X137210800Y-84592749D01*
X136917023Y-84621684D01*
X136634536Y-84707375D01*
X136374194Y-84846531D01*
X136146003Y-85033803D01*
X135958731Y-85261995D01*
X135940800Y-85295541D01*
X135922869Y-85261994D01*
X135735597Y-85033803D01*
X135507405Y-84846531D01*
X135247063Y-84707375D01*
X134964576Y-84621684D01*
X134670800Y-84592749D01*
X134377023Y-84621684D01*
X134094536Y-84707375D01*
X133834194Y-84846531D01*
X133606003Y-85033803D01*
X133418731Y-85261995D01*
X133400800Y-85295541D01*
X133382869Y-85261994D01*
X133195597Y-85033803D01*
X132967405Y-84846531D01*
X132707063Y-84707375D01*
X132424576Y-84621684D01*
X132130800Y-84592749D01*
X131837023Y-84621684D01*
X131554536Y-84707375D01*
X131294194Y-84846531D01*
X131066003Y-85033803D01*
X130878731Y-85261995D01*
X130860800Y-85295541D01*
X130842869Y-85261994D01*
X130655597Y-85033803D01*
X130427405Y-84846531D01*
X130167063Y-84707375D01*
X129884576Y-84621684D01*
X129590800Y-84592749D01*
X129297023Y-84621684D01*
X129014536Y-84707375D01*
X128754194Y-84846531D01*
X128526003Y-85033803D01*
X128338731Y-85261995D01*
X128320800Y-85295541D01*
X128302869Y-85261994D01*
X128115597Y-85033803D01*
X127887405Y-84846531D01*
X127627063Y-84707375D01*
X127344576Y-84621684D01*
X127050800Y-84592749D01*
X126757023Y-84621684D01*
X126474536Y-84707375D01*
X126214194Y-84846531D01*
X125986003Y-85033803D01*
X125798731Y-85261995D01*
X125780800Y-85295541D01*
X125762869Y-85261994D01*
X125575597Y-85033803D01*
X125347405Y-84846531D01*
X125087063Y-84707375D01*
X124804576Y-84621684D01*
X124510800Y-84592749D01*
X124217023Y-84621684D01*
X123934536Y-84707375D01*
X123674194Y-84846531D01*
X123446003Y-85033803D01*
X123258731Y-85261995D01*
X123240800Y-85295541D01*
X123222869Y-85261994D01*
X123035597Y-85033803D01*
X122807405Y-84846531D01*
X122547063Y-84707375D01*
X122264576Y-84621684D01*
X121970800Y-84592749D01*
X121677023Y-84621684D01*
X121394536Y-84707375D01*
X121134194Y-84846531D01*
X120906003Y-85033803D01*
X120718731Y-85261995D01*
X120700800Y-85295541D01*
X120682869Y-85261994D01*
X120495597Y-85033803D01*
X120267405Y-84846531D01*
X120007063Y-84707375D01*
X119724576Y-84621684D01*
X119705770Y-84619832D01*
X128913199Y-75412403D01*
X128942191Y-75388611D01*
X128965985Y-75359618D01*
X128965989Y-75359614D01*
X129037163Y-75272887D01*
X129037164Y-75272886D01*
X129107736Y-75140857D01*
X129151193Y-74997596D01*
X129162190Y-74885943D01*
X129162190Y-74885934D01*
X129165866Y-74848611D01*
X129162190Y-74811288D01*
X129162190Y-72817415D01*
X129297023Y-72858316D01*
X129590800Y-72887251D01*
X129884576Y-72858316D01*
X130167063Y-72772625D01*
X130168080Y-72772082D01*
X130477010Y-73081012D01*
X130500809Y-73110011D01*
X130616534Y-73204984D01*
X130748563Y-73275556D01*
X130891824Y-73319013D01*
X131003477Y-73330010D01*
X131003487Y-73330010D01*
X131040810Y-73333686D01*
X131078133Y-73330010D01*
X135259157Y-73330010D01*
X146709256Y-84780111D01*
X146584994Y-84846531D01*
X146356803Y-85033803D01*
X146169531Y-85261995D01*
X146125544Y-85344289D01*
X146006283Y-85160426D01*
X145800668Y-84949127D01*
X145557781Y-84782002D01*
X145286957Y-84665473D01*
X145189826Y-84643642D01*
X144957800Y-84764783D01*
X144957800Y-86233000D01*
X144977800Y-86233000D01*
X144977800Y-86487000D01*
X144957800Y-86487000D01*
X144957800Y-87955217D01*
X145189826Y-88076358D01*
X145286957Y-88054527D01*
X145557781Y-87937998D01*
X145800668Y-87770873D01*
X146006283Y-87559574D01*
X146125543Y-87375711D01*
X146169531Y-87458006D01*
X146356803Y-87686197D01*
X146584995Y-87873469D01*
X146845337Y-88012625D01*
X147127824Y-88098316D01*
X147421600Y-88127251D01*
X147715377Y-88098316D01*
X147850211Y-88057415D01*
X147850210Y-91104987D01*
X147643886Y-91311312D01*
X147461335Y-91275000D01*
X147178665Y-91275000D01*
X146901426Y-91330147D01*
X146640273Y-91438320D01*
X146405241Y-91595363D01*
X146205363Y-91795241D01*
X146048320Y-92030273D01*
X145940147Y-92291426D01*
X145885000Y-92568665D01*
X145885000Y-92851335D01*
X145940147Y-93128574D01*
X146048320Y-93389727D01*
X146205363Y-93624759D01*
X146405241Y-93824637D01*
X146640273Y-93981680D01*
X146901426Y-94089853D01*
X147178665Y-94145000D01*
X147461335Y-94145000D01*
X147738574Y-94089853D01*
X147999727Y-93981680D01*
X148234759Y-93824637D01*
X148434637Y-93624759D01*
X148591680Y-93389727D01*
X148699853Y-93128574D01*
X148755000Y-92851335D01*
X148755000Y-92568665D01*
X148718688Y-92386114D01*
X149121219Y-91983584D01*
X149150211Y-91959791D01*
X149174005Y-91930798D01*
X149174009Y-91930794D01*
X149245183Y-91844067D01*
X149245184Y-91844066D01*
X149315756Y-91712037D01*
X149359213Y-91568776D01*
X149370210Y-91457123D01*
X149370210Y-91457114D01*
X149373886Y-91419791D01*
X149370210Y-91382468D01*
X149370210Y-85643584D01*
X149373886Y-85606261D01*
X149370210Y-85568938D01*
X149370210Y-85568929D01*
X149359213Y-85457276D01*
X149315756Y-85314015D01*
X149245184Y-85181986D01*
X149205850Y-85134057D01*
X149174009Y-85095258D01*
X149174005Y-85095254D01*
X149150211Y-85066261D01*
X149121218Y-85042467D01*
X136939255Y-72860506D01*
X137210800Y-72887251D01*
X137504576Y-72858316D01*
X137787063Y-72772625D01*
X138047405Y-72633469D01*
X138157098Y-72543447D01*
X138694662Y-73081012D01*
X138718461Y-73110011D01*
X138747459Y-73133809D01*
X138834185Y-73204984D01*
X138966215Y-73275556D01*
X139109476Y-73319013D01*
X139221129Y-73330010D01*
X139221139Y-73330010D01*
X139258462Y-73333686D01*
X139295784Y-73330010D01*
X140095139Y-73330010D01*
X152910001Y-86144873D01*
X152910000Y-91491956D01*
X152755241Y-91595363D01*
X152555363Y-91795241D01*
X152398320Y-92030273D01*
X152290147Y-92291426D01*
X152235000Y-92568665D01*
X152235000Y-92851335D01*
X152290147Y-93128574D01*
X152398320Y-93389727D01*
X152555363Y-93624759D01*
X152755241Y-93824637D01*
X152990273Y-93981680D01*
X153251426Y-94089853D01*
X153528665Y-94145000D01*
X153811335Y-94145000D01*
X154088574Y-94089853D01*
X154349727Y-93981680D01*
X154584759Y-93824637D01*
X154784637Y-93624759D01*
X154941680Y-93389727D01*
X155049853Y-93128574D01*
X155105000Y-92851335D01*
X155105000Y-92568665D01*
X155049853Y-92291426D01*
X154941680Y-92030273D01*
X154784637Y-91795241D01*
X154584759Y-91595363D01*
X154430000Y-91491957D01*
X154430000Y-85867395D01*
X154433676Y-85830070D01*
X154430000Y-85792745D01*
X154430000Y-85792737D01*
X154419003Y-85681084D01*
X154375546Y-85537823D01*
X154304974Y-85405794D01*
X154210001Y-85290069D01*
X154181003Y-85266271D01*
X141656146Y-72741415D01*
X141714536Y-72772625D01*
X141997023Y-72858316D01*
X142290800Y-72887251D01*
X142584576Y-72858316D01*
X142867063Y-72772625D01*
X143127405Y-72633469D01*
X143355597Y-72446197D01*
X143542869Y-72218006D01*
X143560800Y-72184459D01*
X143578731Y-72218005D01*
X143766003Y-72446197D01*
X143994194Y-72633469D01*
X144254536Y-72772625D01*
X144537023Y-72858316D01*
X144830800Y-72887251D01*
X145124576Y-72858316D01*
X145407063Y-72772625D01*
X145667405Y-72633469D01*
X145895597Y-72446197D01*
X145902214Y-72438135D01*
X145917698Y-72489180D01*
X145976663Y-72599494D01*
X146056015Y-72696185D01*
X146152706Y-72775537D01*
X146263020Y-72834502D01*
X146382718Y-72870812D01*
X146507200Y-72883072D01*
X148234400Y-72883072D01*
X148358882Y-72870812D01*
X148478580Y-72834502D01*
X148588894Y-72775537D01*
X148685585Y-72696185D01*
X148764937Y-72599494D01*
X148823902Y-72489180D01*
X148860212Y-72369482D01*
X148872472Y-72245000D01*
X148872472Y-69995000D01*
X148860212Y-69870518D01*
X148823902Y-69750820D01*
X148764937Y-69640506D01*
X148685585Y-69543815D01*
X148588894Y-69464463D01*
X148478580Y-69405498D01*
X148358882Y-69369188D01*
X148234400Y-69356928D01*
X146507200Y-69356928D01*
X146382718Y-69369188D01*
X146263020Y-69405498D01*
X146152706Y-69464463D01*
X146056015Y-69543815D01*
X145976663Y-69640506D01*
X145917698Y-69750820D01*
X145902214Y-69801865D01*
X145895597Y-69793803D01*
X145667406Y-69606531D01*
X145407064Y-69467375D01*
X145124577Y-69381684D01*
X144830800Y-69352749D01*
X144537024Y-69381684D01*
X144254537Y-69467375D01*
X143994195Y-69606531D01*
X143766003Y-69793803D01*
X143578731Y-70021994D01*
X143560800Y-70055540D01*
X143542869Y-70021994D01*
X143355597Y-69793803D01*
X143127406Y-69606531D01*
X142867064Y-69467375D01*
X142584577Y-69381684D01*
X142290800Y-69352749D01*
X141997024Y-69381684D01*
X141714537Y-69467375D01*
X141454195Y-69606531D01*
X141226003Y-69793803D01*
X141038731Y-70021994D01*
X141020800Y-70055540D01*
X141002869Y-70021994D01*
X140815597Y-69793803D01*
X140587406Y-69606531D01*
X140327064Y-69467375D01*
X140044577Y-69381684D01*
X139750800Y-69352749D01*
X139457024Y-69381684D01*
X139174537Y-69467375D01*
X138914195Y-69606531D01*
X138804503Y-69696553D01*
X138266941Y-69158992D01*
X138243139Y-69129989D01*
X138127414Y-69035016D01*
X137995385Y-68964444D01*
X137852124Y-68920987D01*
X137740471Y-68909990D01*
X137740460Y-68909990D01*
X137703138Y-68906314D01*
X137665816Y-68909990D01*
X131632002Y-68909990D01*
X131430990Y-68708977D01*
X131407191Y-68679978D01*
X131291466Y-68585005D01*
X131159437Y-68514433D01*
X131016176Y-68470976D01*
X130904523Y-68459979D01*
X130904513Y-68459979D01*
X130867190Y-68456303D01*
X130829865Y-68459979D01*
X127613144Y-68459979D01*
X127575821Y-68456303D01*
X127538498Y-68459979D01*
X127538488Y-68459979D01*
X127426835Y-68470976D01*
X127283574Y-68514433D01*
X127151545Y-68585005D01*
X127035820Y-68679978D01*
X127012021Y-68708977D01*
X126539802Y-69181197D01*
X126510799Y-69204999D01*
X126477385Y-69245715D01*
X126415826Y-69320724D01*
X126385348Y-69377744D01*
X126345254Y-69452754D01*
X126314942Y-69552680D01*
X126214195Y-69606531D01*
X125986003Y-69793803D01*
X125798731Y-70021994D01*
X125780800Y-70055540D01*
X125762869Y-70021994D01*
X125575597Y-69793803D01*
X125347406Y-69606531D01*
X125087064Y-69467375D01*
X124804577Y-69381684D01*
X124510800Y-69352749D01*
X124217024Y-69381684D01*
X123934537Y-69467375D01*
X123674195Y-69606531D01*
X123446003Y-69793803D01*
X123258731Y-70021994D01*
X123240800Y-70055540D01*
X123222869Y-70021994D01*
X123035597Y-69793803D01*
X122807406Y-69606531D01*
X122547064Y-69467375D01*
X122264577Y-69381684D01*
X121970800Y-69352749D01*
X121677024Y-69381684D01*
X121394537Y-69467375D01*
X121134195Y-69606531D01*
X120906003Y-69793803D01*
X120718731Y-70021994D01*
X120700800Y-70055540D01*
X120682869Y-70021994D01*
X120495597Y-69793803D01*
X120267406Y-69606531D01*
X120007064Y-69467375D01*
X119724577Y-69381684D01*
X119430800Y-69352749D01*
X119137024Y-69381684D01*
X118854537Y-69467375D01*
X118594195Y-69606531D01*
X118366003Y-69793803D01*
X118178731Y-70021994D01*
X118160800Y-70055540D01*
X118142869Y-70021994D01*
X117955597Y-69793803D01*
X117727406Y-69606531D01*
X117467064Y-69467375D01*
X117184577Y-69381684D01*
X116890800Y-69352749D01*
X116597024Y-69381684D01*
X116314537Y-69467375D01*
X116054195Y-69606531D01*
X115826003Y-69793803D01*
X115638731Y-70021994D01*
X115620800Y-70055540D01*
X115602869Y-70021994D01*
X115415597Y-69793803D01*
X115187406Y-69606531D01*
X114927064Y-69467375D01*
X114644577Y-69381684D01*
X114350800Y-69352749D01*
X114057024Y-69381684D01*
X113774537Y-69467375D01*
X113514195Y-69606531D01*
X113286003Y-69793803D01*
X113098731Y-70021994D01*
X113080800Y-70055540D01*
X113062869Y-70021994D01*
X112875597Y-69793803D01*
X112647406Y-69606531D01*
X112387064Y-69467375D01*
X112104577Y-69381684D01*
X111810800Y-69352749D01*
X111517024Y-69381684D01*
X111234537Y-69467375D01*
X110974195Y-69606531D01*
X110746003Y-69793803D01*
X110558731Y-70021994D01*
X110540800Y-70055540D01*
X110522869Y-70021994D01*
X110335597Y-69793803D01*
X110107406Y-69606531D01*
X109847064Y-69467375D01*
X109564577Y-69381684D01*
X109270800Y-69352749D01*
X108977024Y-69381684D01*
X108694537Y-69467375D01*
X108434195Y-69606531D01*
X108206003Y-69793803D01*
X108018731Y-70021994D01*
X108000800Y-70055540D01*
X107982869Y-70021994D01*
X107795597Y-69793803D01*
X107567406Y-69606531D01*
X107307064Y-69467375D01*
X107024577Y-69381684D01*
X106730800Y-69352749D01*
X106437024Y-69381684D01*
X106154537Y-69467375D01*
X105894195Y-69606531D01*
X105666003Y-69793803D01*
X105478731Y-70021994D01*
X105460800Y-70055540D01*
X105442869Y-70021994D01*
X105255597Y-69793803D01*
X105027406Y-69606531D01*
X104767064Y-69467375D01*
X104484577Y-69381684D01*
X104190800Y-69352749D01*
X103897024Y-69381684D01*
X103614537Y-69467375D01*
X103354195Y-69606531D01*
X103126003Y-69793803D01*
X102938731Y-70021994D01*
X102917693Y-70061353D01*
X102826283Y-69920426D01*
X102620668Y-69709127D01*
X102377781Y-69542002D01*
X102106957Y-69425473D01*
X102009826Y-69403642D01*
X101777800Y-69524783D01*
X101777800Y-70993000D01*
X101797800Y-70993000D01*
X101797800Y-71247000D01*
X101777800Y-71247000D01*
X101777800Y-72715217D01*
X102009826Y-72836358D01*
X102106957Y-72814527D01*
X102377781Y-72697998D01*
X102620668Y-72530873D01*
X102826283Y-72319574D01*
X102917694Y-72178647D01*
X102938731Y-72218005D01*
X103126003Y-72446197D01*
X103354194Y-72633469D01*
X103614536Y-72772625D01*
X103897023Y-72858316D01*
X104190800Y-72887251D01*
X104484576Y-72858316D01*
X104767063Y-72772625D01*
X105027405Y-72633469D01*
X105255597Y-72446197D01*
X105442869Y-72218006D01*
X105460800Y-72184459D01*
X105478731Y-72218005D01*
X105666003Y-72446197D01*
X105894194Y-72633469D01*
X106154536Y-72772625D01*
X106437023Y-72858316D01*
X106730800Y-72887251D01*
X107024576Y-72858316D01*
X107307063Y-72772625D01*
X107567405Y-72633469D01*
X107795597Y-72446197D01*
X107982869Y-72218006D01*
X108000800Y-72184459D01*
X108018731Y-72218005D01*
X108206003Y-72446197D01*
X108434194Y-72633469D01*
X108694536Y-72772625D01*
X108977023Y-72858316D01*
X109270800Y-72887251D01*
X109564576Y-72858316D01*
X109847063Y-72772625D01*
X110107405Y-72633469D01*
X110335597Y-72446197D01*
X110522869Y-72218006D01*
X110540800Y-72184459D01*
X110558731Y-72218005D01*
X110746003Y-72446197D01*
X110974194Y-72633469D01*
X111234536Y-72772625D01*
X111517023Y-72858316D01*
X111810800Y-72887251D01*
X112104576Y-72858316D01*
X112387063Y-72772625D01*
X112647405Y-72633469D01*
X112875597Y-72446197D01*
X113062869Y-72218006D01*
X113080800Y-72184459D01*
X113098731Y-72218005D01*
X113286003Y-72446197D01*
X113514194Y-72633469D01*
X113774536Y-72772625D01*
X114057023Y-72858316D01*
X114350800Y-72887251D01*
X114644576Y-72858316D01*
X114927063Y-72772625D01*
X115187405Y-72633469D01*
X115415597Y-72446197D01*
X115602869Y-72218006D01*
X115620800Y-72184459D01*
X115638731Y-72218005D01*
X115826003Y-72446197D01*
X116054194Y-72633469D01*
X116314536Y-72772625D01*
X116597023Y-72858316D01*
X116890800Y-72887251D01*
X117184576Y-72858316D01*
X117467063Y-72772625D01*
X117727405Y-72633469D01*
X117955597Y-72446197D01*
X118142869Y-72218006D01*
X118160800Y-72184459D01*
X118178731Y-72218005D01*
X118366003Y-72446197D01*
X118594194Y-72633469D01*
X118854536Y-72772625D01*
X119137023Y-72858316D01*
X119430800Y-72887251D01*
X119724576Y-72858316D01*
X120007063Y-72772625D01*
X120267405Y-72633469D01*
X120495597Y-72446197D01*
X120682869Y-72218006D01*
X120700800Y-72184459D01*
X120718731Y-72218005D01*
X120906003Y-72446197D01*
X121134194Y-72633469D01*
X121394536Y-72772625D01*
X121677023Y-72858316D01*
X121970800Y-72887251D01*
X122264576Y-72858316D01*
X122547063Y-72772625D01*
X122807405Y-72633469D01*
X123035597Y-72446197D01*
X123222869Y-72218006D01*
X123240800Y-72184459D01*
X123258731Y-72218005D01*
X123446003Y-72446197D01*
X123674194Y-72633469D01*
X123934536Y-72772625D01*
X124217023Y-72858316D01*
X124510800Y-72887251D01*
X124804576Y-72858316D01*
X125087063Y-72772625D01*
X125347405Y-72633469D01*
X125575597Y-72446197D01*
X125762869Y-72218006D01*
X125780800Y-72184459D01*
X125798731Y-72218005D01*
X125986003Y-72446197D01*
X126214194Y-72633469D01*
X126474536Y-72772625D01*
X126757023Y-72858316D01*
X127050800Y-72887251D01*
X127344576Y-72858316D01*
X127627063Y-72772625D01*
X127642190Y-72764539D01*
X127642190Y-74533807D01*
X117568408Y-84607591D01*
X117539410Y-84631389D01*
X117515612Y-84660387D01*
X117515611Y-84660388D01*
X117474004Y-84711085D01*
X117467063Y-84707375D01*
X117184576Y-84621684D01*
X116890800Y-84592749D01*
X116597023Y-84621684D01*
X116314536Y-84707375D01*
X116054194Y-84846531D01*
X115826003Y-85033803D01*
X115638731Y-85261995D01*
X115620800Y-85295541D01*
X115602869Y-85261994D01*
X115415597Y-85033803D01*
X115187405Y-84846531D01*
X114927063Y-84707375D01*
X114644576Y-84621684D01*
X114350800Y-84592749D01*
X114057023Y-84621684D01*
X113774536Y-84707375D01*
X113514194Y-84846531D01*
X113286003Y-85033803D01*
X113098731Y-85261995D01*
X113080800Y-85295541D01*
X113062869Y-85261994D01*
X112875597Y-85033803D01*
X112647405Y-84846531D01*
X112387063Y-84707375D01*
X112104576Y-84621684D01*
X111810800Y-84592749D01*
X111517023Y-84621684D01*
X111234536Y-84707375D01*
X110974194Y-84846531D01*
X110746003Y-85033803D01*
X110558731Y-85261995D01*
X110540800Y-85295541D01*
X110522869Y-85261994D01*
X110335597Y-85033803D01*
X110107405Y-84846531D01*
X109847063Y-84707375D01*
X109564576Y-84621684D01*
X109270800Y-84592749D01*
X108977023Y-84621684D01*
X108694536Y-84707375D01*
X108434194Y-84846531D01*
X108206003Y-85033803D01*
X108018731Y-85261995D01*
X108000800Y-85295541D01*
X107982869Y-85261994D01*
X107795597Y-85033803D01*
X107567405Y-84846531D01*
X107307063Y-84707375D01*
X107024576Y-84621684D01*
X106730800Y-84592749D01*
X106437023Y-84621684D01*
X106154536Y-84707375D01*
X105894194Y-84846531D01*
X105666003Y-85033803D01*
X105478731Y-85261995D01*
X105460800Y-85295541D01*
X105442869Y-85261994D01*
X105255597Y-85033803D01*
X105027405Y-84846531D01*
X104767063Y-84707375D01*
X104484576Y-84621684D01*
X104190800Y-84592749D01*
X103897023Y-84621684D01*
X103614536Y-84707375D01*
X103354194Y-84846531D01*
X103126003Y-85033803D01*
X102938731Y-85261995D01*
X102920800Y-85295541D01*
X102902869Y-85261994D01*
X102715597Y-85033803D01*
X102487405Y-84846531D01*
X102227063Y-84707375D01*
X101944576Y-84621684D01*
X101650800Y-84592749D01*
X101357023Y-84621684D01*
X101074536Y-84707375D01*
X100814194Y-84846531D01*
X100586003Y-85033803D01*
X100398731Y-85261995D01*
X100380800Y-85295541D01*
X100362869Y-85261994D01*
X100175597Y-85033803D01*
X99947405Y-84846531D01*
X99687063Y-84707375D01*
X99404576Y-84621684D01*
X99110800Y-84592749D01*
X98817023Y-84621684D01*
X98534536Y-84707375D01*
X98274194Y-84846531D01*
X98046003Y-85033803D01*
X97858731Y-85261995D01*
X97719575Y-85522337D01*
X97633884Y-85804824D01*
X97612200Y-86024982D01*
X83210000Y-86024982D01*
X83210000Y-70290615D01*
X83596599Y-70677214D01*
X84306608Y-71151627D01*
X85095527Y-71478408D01*
X85933040Y-71645000D01*
X86786960Y-71645000D01*
X87624473Y-71478408D01*
X88183141Y-71247000D01*
X97612200Y-71247000D01*
X97612200Y-71508400D01*
X97665772Y-71798322D01*
X97774875Y-72072222D01*
X97935317Y-72319574D01*
X98140932Y-72530873D01*
X98383819Y-72697998D01*
X98654643Y-72814527D01*
X98751774Y-72836358D01*
X98983800Y-72715217D01*
X98983800Y-71247000D01*
X99237800Y-71247000D01*
X99237800Y-72715217D01*
X99469826Y-72836358D01*
X99566957Y-72814527D01*
X99837781Y-72697998D01*
X100080668Y-72530873D01*
X100286283Y-72319574D01*
X100380800Y-72173858D01*
X100475317Y-72319574D01*
X100680932Y-72530873D01*
X100923819Y-72697998D01*
X101194643Y-72814527D01*
X101291774Y-72836358D01*
X101523800Y-72715217D01*
X101523800Y-71247000D01*
X99237800Y-71247000D01*
X98983800Y-71247000D01*
X97612200Y-71247000D01*
X88183141Y-71247000D01*
X88413392Y-71151627D01*
X89042006Y-70731600D01*
X97612200Y-70731600D01*
X97612200Y-70993000D01*
X98983800Y-70993000D01*
X98983800Y-69524783D01*
X99237800Y-69524783D01*
X99237800Y-70993000D01*
X101523800Y-70993000D01*
X101523800Y-69524783D01*
X101291774Y-69403642D01*
X101194643Y-69425473D01*
X100923819Y-69542002D01*
X100680932Y-69709127D01*
X100475317Y-69920426D01*
X100380800Y-70066142D01*
X100286283Y-69920426D01*
X100080668Y-69709127D01*
X99837781Y-69542002D01*
X99566957Y-69425473D01*
X99469826Y-69403642D01*
X99237800Y-69524783D01*
X98983800Y-69524783D01*
X98751774Y-69403642D01*
X98654643Y-69425473D01*
X98383819Y-69542002D01*
X98140932Y-69709127D01*
X97935317Y-69920426D01*
X97774875Y-70167778D01*
X97665772Y-70441678D01*
X97612200Y-70731600D01*
X89042006Y-70731600D01*
X89123401Y-70677214D01*
X89727214Y-70073401D01*
X90201627Y-69363392D01*
X90528408Y-68574473D01*
X90695000Y-67736960D01*
X90695000Y-66883040D01*
X90528408Y-66045527D01*
X90201627Y-65256608D01*
X89727214Y-64546599D01*
X89340615Y-64160000D01*
X158309385Y-64160000D01*
X157922786Y-64546599D01*
G37*
X157922786Y-64546599D02*
X157448373Y-65256608D01*
X157121592Y-66045527D01*
X156955000Y-66883040D01*
X156955000Y-67736960D01*
X157121592Y-68574473D01*
X157448373Y-69363392D01*
X157922786Y-70073401D01*
X158526599Y-70677214D01*
X159236608Y-71151627D01*
X160025527Y-71478408D01*
X160863040Y-71645000D01*
X161716960Y-71645000D01*
X162554473Y-71478408D01*
X163343392Y-71151627D01*
X164053401Y-70677214D01*
X164440000Y-70290615D01*
X164440001Y-106239386D01*
X164053401Y-105852786D01*
X163343392Y-105378373D01*
X162554473Y-105051592D01*
X161716960Y-104885000D01*
X160863040Y-104885000D01*
X160025527Y-105051592D01*
X159236608Y-105378373D01*
X158526599Y-105852786D01*
X157922786Y-106456599D01*
X157448373Y-107166608D01*
X157121592Y-107955527D01*
X156955000Y-108793040D01*
X156955000Y-109646960D01*
X157121592Y-110484473D01*
X157448373Y-111273392D01*
X157922786Y-111983401D01*
X158309385Y-112370000D01*
X89340615Y-112370000D01*
X89727214Y-111983401D01*
X90201627Y-111273392D01*
X90528408Y-110484473D01*
X90695000Y-109646960D01*
X90695000Y-108850000D01*
X91171928Y-108850000D01*
X91184188Y-108974482D01*
X91220498Y-109094180D01*
X91279463Y-109204494D01*
X91358815Y-109301185D01*
X91455506Y-109380537D01*
X91565820Y-109439502D01*
X91685518Y-109475812D01*
X91810000Y-109488072D01*
X92424250Y-109485000D01*
X92583000Y-109326250D01*
X92583000Y-108077000D01*
X91333750Y-108077000D01*
X91175000Y-108235750D01*
X91171928Y-108850000D01*
X90695000Y-108850000D01*
X90695000Y-108793040D01*
X90528408Y-107955527D01*
X90201627Y-107166608D01*
X90123713Y-107050000D01*
X91171928Y-107050000D01*
X91175000Y-107664250D01*
X91333750Y-107823000D01*
X92583000Y-107823000D01*
X92583000Y-106573750D01*
X92837000Y-106573750D01*
X92837000Y-107823000D01*
X92857000Y-107823000D01*
X92857000Y-108077000D01*
X92837000Y-108077000D01*
X92837000Y-109326250D01*
X92995750Y-109485000D01*
X93610000Y-109488072D01*
X93734482Y-109475812D01*
X93854180Y-109439502D01*
X93964494Y-109380537D01*
X94061185Y-109301185D01*
X94140537Y-109204494D01*
X94199502Y-109094180D01*
X94205056Y-109075873D01*
X94271495Y-109142312D01*
X94522905Y-109310299D01*
X94802257Y-109426011D01*
X95098816Y-109485000D01*
X95401184Y-109485000D01*
X95697743Y-109426011D01*
X95977095Y-109310299D01*
X96228505Y-109142312D01*
X96442312Y-108928505D01*
X96494767Y-108850000D01*
X97521928Y-108850000D01*
X97534188Y-108974482D01*
X97570498Y-109094180D01*
X97629463Y-109204494D01*
X97708815Y-109301185D01*
X97805506Y-109380537D01*
X97915820Y-109439502D01*
X98035518Y-109475812D01*
X98160000Y-109488072D01*
X98774250Y-109485000D01*
X98933000Y-109326250D01*
X98933000Y-108077000D01*
X97683750Y-108077000D01*
X97525000Y-108235750D01*
X97521928Y-108850000D01*
X96494767Y-108850000D01*
X96610299Y-108677095D01*
X96726011Y-108397743D01*
X96785000Y-108101184D01*
X96785000Y-107798816D01*
X96726011Y-107502257D01*
X96610299Y-107222905D01*
X96494768Y-107050000D01*
X97521928Y-107050000D01*
X97525000Y-107664250D01*
X97683750Y-107823000D01*
X98933000Y-107823000D01*
X98933000Y-106573750D01*
X99187000Y-106573750D01*
X99187000Y-107823000D01*
X99207000Y-107823000D01*
X99207000Y-108077000D01*
X99187000Y-108077000D01*
X99187000Y-109326250D01*
X99345750Y-109485000D01*
X99960000Y-109488072D01*
X100084482Y-109475812D01*
X100204180Y-109439502D01*
X100314494Y-109380537D01*
X100411185Y-109301185D01*
X100490537Y-109204494D01*
X100549502Y-109094180D01*
X100555056Y-109075873D01*
X100621495Y-109142312D01*
X100872905Y-109310299D01*
X101152257Y-109426011D01*
X101448816Y-109485000D01*
X101751184Y-109485000D01*
X102047743Y-109426011D01*
X102327095Y-109310299D01*
X102578505Y-109142312D01*
X102792312Y-108928505D01*
X102960299Y-108677095D01*
X103076011Y-108397743D01*
X103135000Y-108101184D01*
X103135000Y-107798816D01*
X103076011Y-107502257D01*
X102960299Y-107222905D01*
X102889536Y-107117000D01*
X105785000Y-107117000D01*
X105785000Y-107867000D01*
X105841193Y-108183532D01*
X105958058Y-108483020D01*
X106131105Y-108753954D01*
X106353683Y-108985922D01*
X106617239Y-109170010D01*
X106911645Y-109299144D01*
X107039566Y-109330124D01*
X107293000Y-109210777D01*
X107293000Y-107117000D01*
X107547000Y-107117000D01*
X107547000Y-109210777D01*
X107800434Y-109330124D01*
X107928355Y-109299144D01*
X108222761Y-109170010D01*
X108486317Y-108985922D01*
X108708895Y-108753954D01*
X108881942Y-108483020D01*
X108998807Y-108183532D01*
X109001132Y-108170434D01*
X111679876Y-108170434D01*
X111710856Y-108298355D01*
X111839990Y-108592761D01*
X112024078Y-108856317D01*
X112256046Y-109078895D01*
X112526980Y-109251942D01*
X112826468Y-109368807D01*
X113143000Y-109425000D01*
X114143000Y-109425000D01*
X114143000Y-107917000D01*
X114397000Y-107917000D01*
X114397000Y-109425000D01*
X115397000Y-109425000D01*
X115713532Y-109368807D01*
X116013020Y-109251942D01*
X116283954Y-109078895D01*
X116515922Y-108856317D01*
X116700010Y-108592761D01*
X116829144Y-108298355D01*
X116860124Y-108170434D01*
X116740777Y-107917000D01*
X114397000Y-107917000D01*
X114143000Y-107917000D01*
X111799223Y-107917000D01*
X111679876Y-108170434D01*
X109001132Y-108170434D01*
X109055000Y-107867000D01*
X109055000Y-107409566D01*
X111679876Y-107409566D01*
X111799223Y-107663000D01*
X114143000Y-107663000D01*
X114143000Y-106155000D01*
X114397000Y-106155000D01*
X114397000Y-107663000D01*
X116740777Y-107663000D01*
X116860124Y-107409566D01*
X116829144Y-107281645D01*
X116756927Y-107117000D01*
X119485000Y-107117000D01*
X119485000Y-107867000D01*
X119541193Y-108183532D01*
X119658058Y-108483020D01*
X119831105Y-108753954D01*
X120053683Y-108985922D01*
X120317239Y-109170010D01*
X120611645Y-109299144D01*
X120739566Y-109330124D01*
X120993000Y-109210777D01*
X120993000Y-107117000D01*
X121247000Y-107117000D01*
X121247000Y-109210777D01*
X121500434Y-109330124D01*
X121628355Y-109299144D01*
X121922761Y-109170010D01*
X122186317Y-108985922D01*
X122408895Y-108753954D01*
X122581942Y-108483020D01*
X122698807Y-108183532D01*
X122755000Y-107867000D01*
X122755000Y-107117000D01*
X123565000Y-107117000D01*
X123565000Y-107867000D01*
X123621193Y-108183532D01*
X123738058Y-108483020D01*
X123911105Y-108753954D01*
X124133683Y-108985922D01*
X124397239Y-109170010D01*
X124691645Y-109299144D01*
X124819566Y-109330124D01*
X125073000Y-109210777D01*
X125073000Y-107117000D01*
X125327000Y-107117000D01*
X125327000Y-109210777D01*
X125580434Y-109330124D01*
X125708355Y-109299144D01*
X126002761Y-109170010D01*
X126266317Y-108985922D01*
X126488895Y-108753954D01*
X126661942Y-108483020D01*
X126778807Y-108183532D01*
X126781132Y-108170434D01*
X129459876Y-108170434D01*
X129490856Y-108298355D01*
X129619990Y-108592761D01*
X129804078Y-108856317D01*
X130036046Y-109078895D01*
X130306980Y-109251942D01*
X130606468Y-109368807D01*
X130923000Y-109425000D01*
X131923000Y-109425000D01*
X131923000Y-107917000D01*
X132177000Y-107917000D01*
X132177000Y-109425000D01*
X133177000Y-109425000D01*
X133493532Y-109368807D01*
X133793020Y-109251942D01*
X134063954Y-109078895D01*
X134295922Y-108856317D01*
X134480010Y-108592761D01*
X134609144Y-108298355D01*
X134640124Y-108170434D01*
X134520777Y-107917000D01*
X132177000Y-107917000D01*
X131923000Y-107917000D01*
X129579223Y-107917000D01*
X129459876Y-108170434D01*
X126781132Y-108170434D01*
X126835000Y-107867000D01*
X126835000Y-107409566D01*
X129459876Y-107409566D01*
X129579223Y-107663000D01*
X131923000Y-107663000D01*
X131923000Y-106155000D01*
X132177000Y-106155000D01*
X132177000Y-107663000D01*
X134520777Y-107663000D01*
X134640124Y-107409566D01*
X134609144Y-107281645D01*
X134536927Y-107117000D01*
X137265000Y-107117000D01*
X137265000Y-107867000D01*
X137321193Y-108183532D01*
X137438058Y-108483020D01*
X137611105Y-108753954D01*
X137833683Y-108985922D01*
X138097239Y-109170010D01*
X138391645Y-109299144D01*
X138519566Y-109330124D01*
X138773000Y-109210777D01*
X138773000Y-107117000D01*
X139027000Y-107117000D01*
X139027000Y-109210777D01*
X139280434Y-109330124D01*
X139408355Y-109299144D01*
X139702761Y-109170010D01*
X139966317Y-108985922D01*
X140096736Y-108850000D01*
X143241928Y-108850000D01*
X143254188Y-108974482D01*
X143290498Y-109094180D01*
X143349463Y-109204494D01*
X143428815Y-109301185D01*
X143525506Y-109380537D01*
X143635820Y-109439502D01*
X143755518Y-109475812D01*
X143880000Y-109488072D01*
X144494250Y-109485000D01*
X144653000Y-109326250D01*
X144653000Y-108077000D01*
X143403750Y-108077000D01*
X143245000Y-108235750D01*
X143241928Y-108850000D01*
X140096736Y-108850000D01*
X140188895Y-108753954D01*
X140361942Y-108483020D01*
X140478807Y-108183532D01*
X140535000Y-107867000D01*
X140535000Y-107117000D01*
X139027000Y-107117000D01*
X138773000Y-107117000D01*
X137265000Y-107117000D01*
X134536927Y-107117000D01*
X134507539Y-107050000D01*
X143241928Y-107050000D01*
X143245000Y-107664250D01*
X143403750Y-107823000D01*
X144653000Y-107823000D01*
X144653000Y-106573750D01*
X144907000Y-106573750D01*
X144907000Y-107823000D01*
X144927000Y-107823000D01*
X144927000Y-108077000D01*
X144907000Y-108077000D01*
X144907000Y-109326250D01*
X145065750Y-109485000D01*
X145680000Y-109488072D01*
X145804482Y-109475812D01*
X145924180Y-109439502D01*
X146034494Y-109380537D01*
X146131185Y-109301185D01*
X146210537Y-109204494D01*
X146269502Y-109094180D01*
X146275056Y-109075873D01*
X146341495Y-109142312D01*
X146592905Y-109310299D01*
X146872257Y-109426011D01*
X147168816Y-109485000D01*
X147471184Y-109485000D01*
X147767743Y-109426011D01*
X148047095Y-109310299D01*
X148298505Y-109142312D01*
X148512312Y-108928505D01*
X148564767Y-108850000D01*
X149591928Y-108850000D01*
X149604188Y-108974482D01*
X149640498Y-109094180D01*
X149699463Y-109204494D01*
X149778815Y-109301185D01*
X149875506Y-109380537D01*
X149985820Y-109439502D01*
X150105518Y-109475812D01*
X150230000Y-109488072D01*
X150844250Y-109485000D01*
X151003000Y-109326250D01*
X151003000Y-108077000D01*
X149753750Y-108077000D01*
X149595000Y-108235750D01*
X149591928Y-108850000D01*
X148564767Y-108850000D01*
X148680299Y-108677095D01*
X148796011Y-108397743D01*
X148855000Y-108101184D01*
X148855000Y-107798816D01*
X148796011Y-107502257D01*
X148680299Y-107222905D01*
X148564768Y-107050000D01*
X149591928Y-107050000D01*
X149595000Y-107664250D01*
X149753750Y-107823000D01*
X151003000Y-107823000D01*
X151003000Y-106573750D01*
X151257000Y-106573750D01*
X151257000Y-107823000D01*
X151277000Y-107823000D01*
X151277000Y-108077000D01*
X151257000Y-108077000D01*
X151257000Y-109326250D01*
X151415750Y-109485000D01*
X152030000Y-109488072D01*
X152154482Y-109475812D01*
X152274180Y-109439502D01*
X152384494Y-109380537D01*
X152481185Y-109301185D01*
X152560537Y-109204494D01*
X152619502Y-109094180D01*
X152625056Y-109075873D01*
X152691495Y-109142312D01*
X152942905Y-109310299D01*
X153222257Y-109426011D01*
X153518816Y-109485000D01*
X153821184Y-109485000D01*
X154117743Y-109426011D01*
X154397095Y-109310299D01*
X154648505Y-109142312D01*
X154862312Y-108928505D01*
X155030299Y-108677095D01*
X155146011Y-108397743D01*
X155205000Y-108101184D01*
X155205000Y-107798816D01*
X155146011Y-107502257D01*
X155030299Y-107222905D01*
X154862312Y-106971495D01*
X154648505Y-106757688D01*
X154430000Y-106611687D01*
X154430000Y-104088043D01*
X154584759Y-103984637D01*
X154784637Y-103784759D01*
X154941680Y-103549727D01*
X155049853Y-103288574D01*
X155105000Y-103011335D01*
X155105000Y-102728665D01*
X155049853Y-102451426D01*
X154941680Y-102190273D01*
X154784637Y-101955241D01*
X154584759Y-101755363D01*
X154349727Y-101598320D01*
X154088574Y-101490147D01*
X153811335Y-101435000D01*
X153528665Y-101435000D01*
X153251426Y-101490147D01*
X152990273Y-101598320D01*
X152755241Y-101755363D01*
X152555363Y-101955241D01*
X152398320Y-102190273D01*
X152290147Y-102451426D01*
X152235000Y-102728665D01*
X152235000Y-103011335D01*
X152290147Y-103288574D01*
X152398320Y-103549727D01*
X152555363Y-103784759D01*
X152755241Y-103984637D01*
X152910001Y-104088044D01*
X152910000Y-106611687D01*
X152691495Y-106757688D01*
X152625056Y-106824127D01*
X152619502Y-106805820D01*
X152560537Y-106695506D01*
X152481185Y-106598815D01*
X152384494Y-106519463D01*
X152274180Y-106460498D01*
X152154482Y-106424188D01*
X152030000Y-106411928D01*
X151415750Y-106415000D01*
X151257000Y-106573750D01*
X151003000Y-106573750D01*
X150844250Y-106415000D01*
X150230000Y-106411928D01*
X150105518Y-106424188D01*
X149985820Y-106460498D01*
X149875506Y-106519463D01*
X149778815Y-106598815D01*
X149699463Y-106695506D01*
X149640498Y-106805820D01*
X149604188Y-106925518D01*
X149591928Y-107050000D01*
X148564768Y-107050000D01*
X148512312Y-106971495D01*
X148298505Y-106757688D01*
X148080000Y-106611687D01*
X148080000Y-104088043D01*
X148234759Y-103984637D01*
X148434637Y-103784759D01*
X148591680Y-103549727D01*
X148699853Y-103288574D01*
X148755000Y-103011335D01*
X148755000Y-102728665D01*
X148699853Y-102451426D01*
X148591680Y-102190273D01*
X148434637Y-101955241D01*
X148234759Y-101755363D01*
X147999727Y-101598320D01*
X147738574Y-101490147D01*
X147461335Y-101435000D01*
X147178665Y-101435000D01*
X146901426Y-101490147D01*
X146640273Y-101598320D01*
X146405241Y-101755363D01*
X146205363Y-101955241D01*
X146048320Y-102190273D01*
X145940147Y-102451426D01*
X145885000Y-102728665D01*
X145885000Y-103011335D01*
X145940147Y-103288574D01*
X146048320Y-103549727D01*
X146205363Y-103784759D01*
X146405241Y-103984637D01*
X146560001Y-104088044D01*
X146560000Y-106611687D01*
X146341495Y-106757688D01*
X146275056Y-106824127D01*
X146269502Y-106805820D01*
X146210537Y-106695506D01*
X146131185Y-106598815D01*
X146034494Y-106519463D01*
X145924180Y-106460498D01*
X145804482Y-106424188D01*
X145680000Y-106411928D01*
X145065750Y-106415000D01*
X144907000Y-106573750D01*
X144653000Y-106573750D01*
X144494250Y-106415000D01*
X143880000Y-106411928D01*
X143755518Y-106424188D01*
X143635820Y-106460498D01*
X143525506Y-106519463D01*
X143428815Y-106598815D01*
X143349463Y-106695506D01*
X143290498Y-106805820D01*
X143254188Y-106925518D01*
X143241928Y-107050000D01*
X134507539Y-107050000D01*
X134480010Y-106987239D01*
X134295922Y-106723683D01*
X134063954Y-106501105D01*
X133793020Y-106328058D01*
X133493532Y-106211193D01*
X133177000Y-106155000D01*
X132177000Y-106155000D01*
X131923000Y-106155000D01*
X130923000Y-106155000D01*
X130606468Y-106211193D01*
X130306980Y-106328058D01*
X130036046Y-106501105D01*
X129804078Y-106723683D01*
X129619990Y-106987239D01*
X129490856Y-107281645D01*
X129459876Y-107409566D01*
X126835000Y-107409566D01*
X126835000Y-107117000D01*
X125327000Y-107117000D01*
X125073000Y-107117000D01*
X123565000Y-107117000D01*
X122755000Y-107117000D01*
X121247000Y-107117000D01*
X120993000Y-107117000D01*
X119485000Y-107117000D01*
X116756927Y-107117000D01*
X116700010Y-106987239D01*
X116515922Y-106723683D01*
X116283954Y-106501105D01*
X116013020Y-106328058D01*
X115713532Y-106211193D01*
X115397000Y-106155000D01*
X114397000Y-106155000D01*
X114143000Y-106155000D01*
X113143000Y-106155000D01*
X112826468Y-106211193D01*
X112526980Y-106328058D01*
X112256046Y-106501105D01*
X112024078Y-106723683D01*
X111839990Y-106987239D01*
X111710856Y-107281645D01*
X111679876Y-107409566D01*
X109055000Y-107409566D01*
X109055000Y-107117000D01*
X107547000Y-107117000D01*
X107293000Y-107117000D01*
X105785000Y-107117000D01*
X102889536Y-107117000D01*
X102792312Y-106971495D01*
X102578505Y-106757688D01*
X102360000Y-106611687D01*
X102360000Y-106113000D01*
X105785000Y-106113000D01*
X105785000Y-106863000D01*
X107293000Y-106863000D01*
X107293000Y-104769223D01*
X107547000Y-104769223D01*
X107547000Y-106863000D01*
X109055000Y-106863000D01*
X109055000Y-106113000D01*
X119485000Y-106113000D01*
X119485000Y-106863000D01*
X120993000Y-106863000D01*
X120993000Y-104769223D01*
X121247000Y-104769223D01*
X121247000Y-106863000D01*
X122755000Y-106863000D01*
X122755000Y-106113000D01*
X123565000Y-106113000D01*
X123565000Y-106863000D01*
X125073000Y-106863000D01*
X125073000Y-104769223D01*
X125327000Y-104769223D01*
X125327000Y-106863000D01*
X126835000Y-106863000D01*
X126835000Y-106113000D01*
X137265000Y-106113000D01*
X137265000Y-106863000D01*
X138773000Y-106863000D01*
X138773000Y-104769223D01*
X139027000Y-104769223D01*
X139027000Y-106863000D01*
X140535000Y-106863000D01*
X140535000Y-106113000D01*
X140478807Y-105796468D01*
X140361942Y-105496980D01*
X140188895Y-105226046D01*
X139966317Y-104994078D01*
X139702761Y-104809990D01*
X139408355Y-104680856D01*
X139280434Y-104649876D01*
X139027000Y-104769223D01*
X138773000Y-104769223D01*
X138519566Y-104649876D01*
X138391645Y-104680856D01*
X138097239Y-104809990D01*
X137833683Y-104994078D01*
X137611105Y-105226046D01*
X137438058Y-105496980D01*
X137321193Y-105796468D01*
X137265000Y-106113000D01*
X126835000Y-106113000D01*
X126778807Y-105796468D01*
X126661942Y-105496980D01*
X126488895Y-105226046D01*
X126266317Y-104994078D01*
X126002761Y-104809990D01*
X125708355Y-104680856D01*
X125580434Y-104649876D01*
X125327000Y-104769223D01*
X125073000Y-104769223D01*
X124819566Y-104649876D01*
X124691645Y-104680856D01*
X124397239Y-104809990D01*
X124133683Y-104994078D01*
X123911105Y-105226046D01*
X123738058Y-105496980D01*
X123621193Y-105796468D01*
X123565000Y-106113000D01*
X122755000Y-106113000D01*
X122698807Y-105796468D01*
X122581942Y-105496980D01*
X122408895Y-105226046D01*
X122186317Y-104994078D01*
X121922761Y-104809990D01*
X121628355Y-104680856D01*
X121500434Y-104649876D01*
X121247000Y-104769223D01*
X120993000Y-104769223D01*
X120739566Y-104649876D01*
X120611645Y-104680856D01*
X120317239Y-104809990D01*
X120053683Y-104994078D01*
X119831105Y-105226046D01*
X119658058Y-105496980D01*
X119541193Y-105796468D01*
X119485000Y-106113000D01*
X109055000Y-106113000D01*
X108998807Y-105796468D01*
X108881942Y-105496980D01*
X108708895Y-105226046D01*
X108486317Y-104994078D01*
X108222761Y-104809990D01*
X107928355Y-104680856D01*
X107800434Y-104649876D01*
X107547000Y-104769223D01*
X107293000Y-104769223D01*
X107039566Y-104649876D01*
X106911645Y-104680856D01*
X106617239Y-104809990D01*
X106353683Y-104994078D01*
X106131105Y-105226046D01*
X105958058Y-105496980D01*
X105841193Y-105796468D01*
X105785000Y-106113000D01*
X102360000Y-106113000D01*
X102360000Y-104088043D01*
X102514759Y-103984637D01*
X102714637Y-103784759D01*
X102871680Y-103549727D01*
X102979853Y-103288574D01*
X103035000Y-103011335D01*
X103035000Y-102728665D01*
X102979853Y-102451426D01*
X102871680Y-102190273D01*
X102714637Y-101955241D01*
X102514759Y-101755363D01*
X102279727Y-101598320D01*
X102018574Y-101490147D01*
X101741335Y-101435000D01*
X101458665Y-101435000D01*
X101181426Y-101490147D01*
X100920273Y-101598320D01*
X100685241Y-101755363D01*
X100485363Y-101955241D01*
X100328320Y-102190273D01*
X100220147Y-102451426D01*
X100165000Y-102728665D01*
X100165000Y-103011335D01*
X100220147Y-103288574D01*
X100328320Y-103549727D01*
X100485363Y-103784759D01*
X100685241Y-103984637D01*
X100840001Y-104088044D01*
X100840000Y-106611687D01*
X100621495Y-106757688D01*
X100555056Y-106824127D01*
X100549502Y-106805820D01*
X100490537Y-106695506D01*
X100411185Y-106598815D01*
X100314494Y-106519463D01*
X100204180Y-106460498D01*
X100084482Y-106424188D01*
X99960000Y-106411928D01*
X99345750Y-106415000D01*
X99187000Y-106573750D01*
X98933000Y-106573750D01*
X98774250Y-106415000D01*
X98160000Y-106411928D01*
X98035518Y-106424188D01*
X97915820Y-106460498D01*
X97805506Y-106519463D01*
X97708815Y-106598815D01*
X97629463Y-106695506D01*
X97570498Y-106805820D01*
X97534188Y-106925518D01*
X97521928Y-107050000D01*
X96494768Y-107050000D01*
X96442312Y-106971495D01*
X96228505Y-106757688D01*
X96010000Y-106611687D01*
X96010000Y-104088043D01*
X96164759Y-103984637D01*
X96364637Y-103784759D01*
X96521680Y-103549727D01*
X96629853Y-103288574D01*
X96685000Y-103011335D01*
X96685000Y-102728665D01*
X96629853Y-102451426D01*
X96521680Y-102190273D01*
X96364637Y-101955241D01*
X96164759Y-101755363D01*
X95929727Y-101598320D01*
X95668574Y-101490147D01*
X95391335Y-101435000D01*
X95108665Y-101435000D01*
X94831426Y-101490147D01*
X94570273Y-101598320D01*
X94335241Y-101755363D01*
X94135363Y-101955241D01*
X93978320Y-102190273D01*
X93870147Y-102451426D01*
X93815000Y-102728665D01*
X93815000Y-103011335D01*
X93870147Y-103288574D01*
X93978320Y-103549727D01*
X94135363Y-103784759D01*
X94335241Y-103984637D01*
X94490001Y-104088044D01*
X94490000Y-106611687D01*
X94271495Y-106757688D01*
X94205056Y-106824127D01*
X94199502Y-106805820D01*
X94140537Y-106695506D01*
X94061185Y-106598815D01*
X93964494Y-106519463D01*
X93854180Y-106460498D01*
X93734482Y-106424188D01*
X93610000Y-106411928D01*
X92995750Y-106415000D01*
X92837000Y-106573750D01*
X92583000Y-106573750D01*
X92424250Y-106415000D01*
X91810000Y-106411928D01*
X91685518Y-106424188D01*
X91565820Y-106460498D01*
X91455506Y-106519463D01*
X91358815Y-106598815D01*
X91279463Y-106695506D01*
X91220498Y-106805820D01*
X91184188Y-106925518D01*
X91171928Y-107050000D01*
X90123713Y-107050000D01*
X89727214Y-106456599D01*
X89123401Y-105852786D01*
X88413392Y-105378373D01*
X87624473Y-105051592D01*
X86786960Y-104885000D01*
X85933040Y-104885000D01*
X85095527Y-105051592D01*
X84306608Y-105378373D01*
X83596599Y-105852786D01*
X83210000Y-106239385D01*
X83210000Y-95670000D01*
X84871928Y-95670000D01*
X84871928Y-97370000D01*
X84884188Y-97494482D01*
X84920498Y-97614180D01*
X84979463Y-97724494D01*
X85058815Y-97821185D01*
X85155506Y-97900537D01*
X85265820Y-97959502D01*
X85338380Y-97981513D01*
X85206525Y-98113368D01*
X85044010Y-98356589D01*
X84932068Y-98626842D01*
X84875000Y-98913740D01*
X84875000Y-99206260D01*
X84932068Y-99493158D01*
X85044010Y-99763411D01*
X85206525Y-100006632D01*
X85413368Y-100213475D01*
X85656589Y-100375990D01*
X85926842Y-100487932D01*
X86213740Y-100545000D01*
X86506260Y-100545000D01*
X86793158Y-100487932D01*
X87063411Y-100375990D01*
X87306632Y-100213475D01*
X87513475Y-100006632D01*
X87675990Y-99763411D01*
X87787932Y-99493158D01*
X87845000Y-99206260D01*
X87845000Y-98913740D01*
X87787932Y-98626842D01*
X87675990Y-98356589D01*
X87513475Y-98113368D01*
X87381620Y-97981513D01*
X87454180Y-97959502D01*
X87564494Y-97900537D01*
X87661185Y-97821185D01*
X87740537Y-97724494D01*
X87799502Y-97614180D01*
X87835812Y-97494482D01*
X87848072Y-97370000D01*
X87848072Y-95670000D01*
X87835812Y-95545518D01*
X87799502Y-95425820D01*
X87740537Y-95315506D01*
X87661185Y-95218815D01*
X87564494Y-95139463D01*
X87454180Y-95080498D01*
X87334482Y-95044188D01*
X87210000Y-95031928D01*
X85510000Y-95031928D01*
X85385518Y-95044188D01*
X85265820Y-95080498D01*
X85155506Y-95139463D01*
X85058815Y-95218815D01*
X84979463Y-95315506D01*
X84920498Y-95425820D01*
X84884188Y-95545518D01*
X84871928Y-95670000D01*
X83210000Y-95670000D01*
X83210000Y-92568665D01*
X93815000Y-92568665D01*
X93815000Y-92851335D01*
X93870147Y-93128574D01*
X93978320Y-93389727D01*
X94135363Y-93624759D01*
X94335241Y-93824637D01*
X94570273Y-93981680D01*
X94831426Y-94089853D01*
X95108665Y-94145000D01*
X95391335Y-94145000D01*
X95668574Y-94089853D01*
X95929727Y-93981680D01*
X96164759Y-93824637D01*
X96364637Y-93624759D01*
X96521680Y-93389727D01*
X96629853Y-93128574D01*
X96685000Y-92851335D01*
X96685000Y-92568665D01*
X96629853Y-92291426D01*
X96521680Y-92030273D01*
X96364637Y-91795241D01*
X96164759Y-91595363D01*
X95929727Y-91438320D01*
X95668574Y-91330147D01*
X95391335Y-91275000D01*
X95108665Y-91275000D01*
X94831426Y-91330147D01*
X94570273Y-91438320D01*
X94335241Y-91595363D01*
X94135363Y-91795241D01*
X93978320Y-92030273D01*
X93870147Y-92291426D01*
X93815000Y-92568665D01*
X83210000Y-92568665D01*
X83210000Y-86024982D01*
X97612200Y-86024982D01*
X97612200Y-86695019D01*
X97633884Y-86915177D01*
X97719575Y-87197664D01*
X97858731Y-87458006D01*
X98046003Y-87686197D01*
X98274195Y-87873469D01*
X98534537Y-88012625D01*
X98817024Y-88098316D01*
X99110800Y-88127251D01*
X99404577Y-88098316D01*
X99687064Y-88012625D01*
X99947406Y-87873469D01*
X100175597Y-87686197D01*
X100362869Y-87458006D01*
X100380800Y-87424460D01*
X100398731Y-87458006D01*
X100586003Y-87686197D01*
X100814195Y-87873469D01*
X101074537Y-88012625D01*
X101357024Y-88098316D01*
X101650800Y-88127251D01*
X101944577Y-88098316D01*
X102227064Y-88012625D01*
X102487406Y-87873469D01*
X102715597Y-87686197D01*
X102902869Y-87458006D01*
X102920800Y-87424460D01*
X102938731Y-87458006D01*
X103126003Y-87686197D01*
X103354195Y-87873469D01*
X103614537Y-88012625D01*
X103897024Y-88098316D01*
X104190800Y-88127251D01*
X104484577Y-88098316D01*
X104767064Y-88012625D01*
X105027406Y-87873469D01*
X105255597Y-87686197D01*
X105442869Y-87458006D01*
X105460800Y-87424460D01*
X105478731Y-87458006D01*
X105613264Y-87621934D01*
X101923887Y-91311312D01*
X101741335Y-91275000D01*
X101458665Y-91275000D01*
X101181426Y-91330147D01*
X100920273Y-91438320D01*
X100685241Y-91595363D01*
X100485363Y-91795241D01*
X100328320Y-92030273D01*
X100220147Y-92291426D01*
X100165000Y-92568665D01*
X100165000Y-92851335D01*
X100220147Y-93128574D01*
X100328320Y-93389727D01*
X100485363Y-93624759D01*
X100685241Y-93824637D01*
X100920273Y-93981680D01*
X101181426Y-94089853D01*
X101458665Y-94145000D01*
X101741335Y-94145000D01*
X102018574Y-94089853D01*
X102279727Y-93981680D01*
X102514759Y-93824637D01*
X102714637Y-93624759D01*
X102871680Y-93389727D01*
X102979853Y-93128574D01*
X103035000Y-92851335D01*
X103035000Y-92568665D01*
X102998688Y-92386113D01*
X106814792Y-88570010D01*
X117345816Y-88570010D01*
X117383138Y-88573686D01*
X117420460Y-88570010D01*
X117420471Y-88570010D01*
X117532124Y-88559013D01*
X117675385Y-88515556D01*
X117807414Y-88444984D01*
X117923139Y-88350011D01*
X117946941Y-88321008D01*
X118484503Y-87783447D01*
X118594195Y-87873469D01*
X118854537Y-88012625D01*
X119137024Y-88098316D01*
X119430800Y-88127251D01*
X119724577Y-88098316D01*
X120007064Y-88012625D01*
X120267406Y-87873469D01*
X120495597Y-87686197D01*
X120682869Y-87458006D01*
X120700800Y-87424460D01*
X120718731Y-87458006D01*
X120906003Y-87686197D01*
X121134195Y-87873469D01*
X121394537Y-88012625D01*
X121677024Y-88098316D01*
X121970800Y-88127251D01*
X122264577Y-88098316D01*
X122547064Y-88012625D01*
X122807406Y-87873469D01*
X123035597Y-87686197D01*
X123222869Y-87458006D01*
X123240800Y-87424460D01*
X123258731Y-87458006D01*
X123446003Y-87686197D01*
X123674195Y-87873469D01*
X123934537Y-88012625D01*
X124217024Y-88098316D01*
X124510800Y-88127251D01*
X124804577Y-88098316D01*
X125087064Y-88012625D01*
X125347406Y-87873469D01*
X125575597Y-87686197D01*
X125762869Y-87458006D01*
X125780800Y-87424460D01*
X125798731Y-87458006D01*
X125986003Y-87686197D01*
X126214195Y-87873469D01*
X126474537Y-88012625D01*
X126757024Y-88098316D01*
X127050800Y-88127251D01*
X127344577Y-88098316D01*
X127627064Y-88012625D01*
X127887406Y-87873469D01*
X128115597Y-87686197D01*
X128302869Y-87458006D01*
X128320800Y-87424460D01*
X128338731Y-87458006D01*
X128526003Y-87686197D01*
X128754195Y-87873469D01*
X129014537Y-88012625D01*
X129297024Y-88098316D01*
X129590800Y-88127251D01*
X129884577Y-88098316D01*
X130167064Y-88012625D01*
X130427406Y-87873469D01*
X130655597Y-87686197D01*
X130842869Y-87458006D01*
X130860800Y-87424460D01*
X130878731Y-87458006D01*
X131066003Y-87686197D01*
X131294195Y-87873469D01*
X131554537Y-88012625D01*
X131837024Y-88098316D01*
X132130800Y-88127251D01*
X132424577Y-88098316D01*
X132707064Y-88012625D01*
X132967406Y-87873469D01*
X133195597Y-87686197D01*
X133382869Y-87458006D01*
X133400800Y-87424460D01*
X133418731Y-87458006D01*
X133606003Y-87686197D01*
X133834195Y-87873469D01*
X134094537Y-88012625D01*
X134377024Y-88098316D01*
X134670800Y-88127251D01*
X134964577Y-88098316D01*
X135247064Y-88012625D01*
X135507406Y-87873469D01*
X135735597Y-87686197D01*
X135922869Y-87458006D01*
X135940800Y-87424460D01*
X135958731Y-87458006D01*
X136146003Y-87686197D01*
X136374195Y-87873469D01*
X136634537Y-88012625D01*
X136917024Y-88098316D01*
X137210800Y-88127251D01*
X137504577Y-88098316D01*
X137787064Y-88012625D01*
X138047406Y-87873469D01*
X138275597Y-87686197D01*
X138462869Y-87458006D01*
X138480800Y-87424460D01*
X138498731Y-87458006D01*
X138686003Y-87686197D01*
X138914195Y-87873469D01*
X139174537Y-88012625D01*
X139391494Y-88078438D01*
X135594933Y-91875000D01*
X129437930Y-91875000D01*
X129384637Y-91795241D01*
X129184759Y-91595363D01*
X128949727Y-91438320D01*
X128688574Y-91330147D01*
X128411335Y-91275000D01*
X128128665Y-91275000D01*
X128034582Y-91293714D01*
X127689444Y-90948577D01*
X127663290Y-90916708D01*
X127536145Y-90812363D01*
X127391086Y-90734827D01*
X127233688Y-90687081D01*
X127111018Y-90674999D01*
X127111017Y-90674999D01*
X127069999Y-90670959D01*
X127028981Y-90674999D01*
X111731019Y-90674999D01*
X111690001Y-90670959D01*
X111648983Y-90674999D01*
X111648982Y-90674999D01*
X111526312Y-90687081D01*
X111436764Y-90714245D01*
X111368914Y-90734827D01*
X111223855Y-90812363D01*
X111141695Y-90879790D01*
X111096710Y-90916708D01*
X111070564Y-90948567D01*
X110725417Y-91293714D01*
X110631335Y-91275000D01*
X110348665Y-91275000D01*
X110071426Y-91330147D01*
X109810273Y-91438320D01*
X109575241Y-91595363D01*
X109375363Y-91795241D01*
X109218320Y-92030273D01*
X109110147Y-92291426D01*
X109055000Y-92568665D01*
X109055000Y-92851335D01*
X109110147Y-93128574D01*
X109218320Y-93389727D01*
X109375363Y-93624759D01*
X109575241Y-93824637D01*
X109655000Y-93877930D01*
X109655001Y-95352069D01*
X109575241Y-95405363D01*
X109375363Y-95605241D01*
X109218320Y-95840273D01*
X109110147Y-96101426D01*
X109055000Y-96378665D01*
X109055000Y-96661335D01*
X109072904Y-96751345D01*
X108999256Y-96841087D01*
X108972363Y-96873856D01*
X108894827Y-97018915D01*
X108847081Y-97176313D01*
X108830959Y-97340001D01*
X108834999Y-97381020D01*
X108835000Y-102898971D01*
X108830959Y-102939999D01*
X108847081Y-103103687D01*
X108894827Y-103261085D01*
X108968270Y-103398486D01*
X108972364Y-103406145D01*
X109076709Y-103533290D01*
X109108573Y-103559440D01*
X109453714Y-103904582D01*
X109435000Y-103998665D01*
X109435000Y-104281335D01*
X109490147Y-104558574D01*
X109598320Y-104819727D01*
X109755363Y-105054759D01*
X109955241Y-105254637D01*
X110190273Y-105411680D01*
X110451426Y-105519853D01*
X110728665Y-105575000D01*
X111011335Y-105575000D01*
X111288574Y-105519853D01*
X111549727Y-105411680D01*
X111784759Y-105254637D01*
X111920000Y-105119396D01*
X112055241Y-105254637D01*
X112290273Y-105411680D01*
X112551426Y-105519853D01*
X112828665Y-105575000D01*
X113111335Y-105575000D01*
X113388574Y-105519853D01*
X113649727Y-105411680D01*
X113884759Y-105254637D01*
X114084637Y-105054759D01*
X114135703Y-104978333D01*
X114144188Y-105064482D01*
X114180498Y-105184180D01*
X114239463Y-105294494D01*
X114318815Y-105391185D01*
X114415506Y-105470537D01*
X114525820Y-105529502D01*
X114645518Y-105565812D01*
X114770000Y-105578072D01*
X116370000Y-105578072D01*
X116494482Y-105565812D01*
X116614180Y-105529502D01*
X116724494Y-105470537D01*
X116821185Y-105391185D01*
X116900537Y-105294494D01*
X116903014Y-105289859D01*
X116928486Y-105376671D01*
X117183996Y-105497571D01*
X117458184Y-105566300D01*
X117740512Y-105580217D01*
X118020130Y-105538787D01*
X118286292Y-105443603D01*
X118411514Y-105376671D01*
X118483097Y-105132702D01*
X117670000Y-104319605D01*
X117655858Y-104333748D01*
X117476253Y-104154143D01*
X117490395Y-104140000D01*
X117849605Y-104140000D01*
X118662702Y-104953097D01*
X118906671Y-104881514D01*
X119027571Y-104626004D01*
X119096300Y-104351816D01*
X119110217Y-104069488D01*
X119068787Y-103789870D01*
X118973603Y-103523708D01*
X118906671Y-103398486D01*
X118662702Y-103326903D01*
X117849605Y-104140000D01*
X117490395Y-104140000D01*
X117476253Y-104125858D01*
X117655858Y-103946253D01*
X117670000Y-103960395D01*
X117891388Y-103739007D01*
X117952250Y-103720545D01*
X118084279Y-103649973D01*
X118200004Y-103555000D01*
X118223807Y-103525996D01*
X121161003Y-100588801D01*
X121190001Y-100565003D01*
X121284974Y-100449278D01*
X121355546Y-100317249D01*
X121399003Y-100173988D01*
X121410000Y-100062335D01*
X121410000Y-100062326D01*
X121413676Y-100025003D01*
X121410000Y-99987680D01*
X121410000Y-97738043D01*
X121564759Y-97634637D01*
X121764637Y-97434759D01*
X121921680Y-97199727D01*
X122029853Y-96938574D01*
X122085000Y-96661335D01*
X122085000Y-96378665D01*
X122029853Y-96101426D01*
X121921680Y-95840273D01*
X121764637Y-95605241D01*
X121564759Y-95405363D01*
X121329727Y-95248320D01*
X121068574Y-95140147D01*
X120791335Y-95085000D01*
X120508665Y-95085000D01*
X120231426Y-95140147D01*
X119970273Y-95248320D01*
X119735241Y-95405363D01*
X119535363Y-95605241D01*
X119378320Y-95840273D01*
X119270147Y-96101426D01*
X119215000Y-96378665D01*
X119215000Y-96661335D01*
X119270147Y-96938574D01*
X119378320Y-97199727D01*
X119535363Y-97434759D01*
X119735241Y-97634637D01*
X119890000Y-97738044D01*
X119890001Y-99710199D01*
X118940978Y-100659222D01*
X118784637Y-100425241D01*
X118584759Y-100225363D01*
X118349727Y-100068320D01*
X118088574Y-99960147D01*
X117811335Y-99905000D01*
X117528665Y-99905000D01*
X117251426Y-99960147D01*
X116990273Y-100068320D01*
X116755241Y-100225363D01*
X116555363Y-100425241D01*
X116398320Y-100660273D01*
X116290147Y-100921426D01*
X116235000Y-101198665D01*
X116235000Y-101481335D01*
X116290147Y-101758574D01*
X116398320Y-102019727D01*
X116555363Y-102254759D01*
X116564754Y-102264150D01*
X116546015Y-102265996D01*
X116402754Y-102309453D01*
X116270725Y-102380025D01*
X116155000Y-102474998D01*
X116131202Y-102503996D01*
X115933270Y-102701928D01*
X114770000Y-102701928D01*
X114645518Y-102714188D01*
X114525820Y-102750498D01*
X114415506Y-102809463D01*
X114318815Y-102888815D01*
X114239463Y-102985506D01*
X114180498Y-103095820D01*
X114144188Y-103215518D01*
X114135703Y-103301667D01*
X114084637Y-103225241D01*
X113884759Y-103025363D01*
X113649727Y-102868320D01*
X113388574Y-102760147D01*
X113111335Y-102705000D01*
X112828665Y-102705000D01*
X112551426Y-102760147D01*
X112290273Y-102868320D01*
X112055241Y-103025363D01*
X111920000Y-103160604D01*
X111784759Y-103025363D01*
X111549727Y-102868320D01*
X111288574Y-102760147D01*
X111187290Y-102740000D01*
X111288574Y-102719853D01*
X111549727Y-102611680D01*
X111784759Y-102454637D01*
X111984637Y-102254759D01*
X112141680Y-102019727D01*
X112249853Y-101758574D01*
X112305000Y-101481335D01*
X112305000Y-101198665D01*
X112249853Y-100921426D01*
X112141680Y-100660273D01*
X111984637Y-100425241D01*
X111784759Y-100225363D01*
X111549727Y-100068320D01*
X111288574Y-99960147D01*
X111011335Y-99905000D01*
X110728665Y-99905000D01*
X110504999Y-99949491D01*
X110504999Y-97955000D01*
X110631335Y-97955000D01*
X110908574Y-97899853D01*
X111169727Y-97791680D01*
X111404759Y-97634637D01*
X111604637Y-97434759D01*
X111761680Y-97199727D01*
X111869853Y-96938574D01*
X111925000Y-96661335D01*
X111925000Y-96378665D01*
X111869853Y-96101426D01*
X111761680Y-95840273D01*
X111604637Y-95605241D01*
X111404759Y-95405363D01*
X111325000Y-95352070D01*
X111325000Y-93877930D01*
X111404759Y-93824637D01*
X111604637Y-93624759D01*
X111761680Y-93389727D01*
X111869853Y-93128574D01*
X111925000Y-92851335D01*
X111925000Y-92568665D01*
X111906286Y-92474583D01*
X112035870Y-92344999D01*
X119259491Y-92344999D01*
X119215000Y-92568665D01*
X119215000Y-92851335D01*
X119270147Y-93128574D01*
X119378320Y-93389727D01*
X119535363Y-93624759D01*
X119735241Y-93824637D01*
X119970273Y-93981680D01*
X120231426Y-94089853D01*
X120508665Y-94145000D01*
X120791335Y-94145000D01*
X121068574Y-94089853D01*
X121329727Y-93981680D01*
X121564759Y-93824637D01*
X121764637Y-93624759D01*
X121921680Y-93389727D01*
X122029853Y-93128574D01*
X122085000Y-92851335D01*
X122085000Y-92568665D01*
X122040509Y-92344999D01*
X126724132Y-92344999D01*
X126853714Y-92474582D01*
X126835000Y-92568665D01*
X126835000Y-92851335D01*
X126890147Y-93128574D01*
X126998320Y-93389727D01*
X127155363Y-93624759D01*
X127355241Y-93824637D01*
X127435000Y-93877930D01*
X127435001Y-95352069D01*
X127355241Y-95405363D01*
X127155363Y-95605241D01*
X126998320Y-95840273D01*
X126890147Y-96101426D01*
X126835000Y-96378665D01*
X126835000Y-96661335D01*
X126852904Y-96751345D01*
X126779256Y-96841087D01*
X126752363Y-96873856D01*
X126674827Y-97018915D01*
X126627081Y-97176313D01*
X126610959Y-97340001D01*
X126614999Y-97381020D01*
X126615000Y-102898971D01*
X126610959Y-102939999D01*
X126627081Y-103103687D01*
X126674827Y-103261085D01*
X126748270Y-103398486D01*
X126752364Y-103406145D01*
X126856709Y-103533290D01*
X126888573Y-103559440D01*
X127233714Y-103904582D01*
X127215000Y-103998665D01*
X127215000Y-104281335D01*
X127270147Y-104558574D01*
X127378320Y-104819727D01*
X127535363Y-105054759D01*
X127735241Y-105254637D01*
X127970273Y-105411680D01*
X128231426Y-105519853D01*
X128508665Y-105575000D01*
X128791335Y-105575000D01*
X129068574Y-105519853D01*
X129329727Y-105411680D01*
X129564759Y-105254637D01*
X129700000Y-105119396D01*
X129835241Y-105254637D01*
X130070273Y-105411680D01*
X130331426Y-105519853D01*
X130608665Y-105575000D01*
X130891335Y-105575000D01*
X131168574Y-105519853D01*
X131429727Y-105411680D01*
X131664759Y-105254637D01*
X131864637Y-105054759D01*
X131915703Y-104978333D01*
X131924188Y-105064482D01*
X131960498Y-105184180D01*
X132019463Y-105294494D01*
X132098815Y-105391185D01*
X132195506Y-105470537D01*
X132305820Y-105529502D01*
X132425518Y-105565812D01*
X132550000Y-105578072D01*
X134150000Y-105578072D01*
X134274482Y-105565812D01*
X134394180Y-105529502D01*
X134504494Y-105470537D01*
X134601185Y-105391185D01*
X134680537Y-105294494D01*
X134683014Y-105289859D01*
X134708486Y-105376671D01*
X134963996Y-105497571D01*
X135238184Y-105566300D01*
X135520512Y-105580217D01*
X135800130Y-105538787D01*
X136066292Y-105443603D01*
X136191514Y-105376671D01*
X136263097Y-105132702D01*
X135450000Y-104319605D01*
X135435858Y-104333748D01*
X135256253Y-104154143D01*
X135270395Y-104140000D01*
X135629605Y-104140000D01*
X136442702Y-104953097D01*
X136686671Y-104881514D01*
X136807571Y-104626004D01*
X136876300Y-104351816D01*
X136890217Y-104069488D01*
X136848787Y-103789870D01*
X136753603Y-103523708D01*
X136686671Y-103398486D01*
X136442702Y-103326903D01*
X135629605Y-104140000D01*
X135270395Y-104140000D01*
X135256253Y-104125858D01*
X135435858Y-103946253D01*
X135450000Y-103960395D01*
X135671388Y-103739007D01*
X135732250Y-103720545D01*
X135864279Y-103649973D01*
X135980004Y-103555000D01*
X136003807Y-103525996D01*
X138941003Y-100588801D01*
X138970001Y-100565003D01*
X139064974Y-100449278D01*
X139135546Y-100317249D01*
X139179003Y-100173988D01*
X139190000Y-100062335D01*
X139190000Y-100062326D01*
X139193676Y-100025003D01*
X139190000Y-99987680D01*
X139190000Y-97738043D01*
X139344759Y-97634637D01*
X139544637Y-97434759D01*
X139701680Y-97199727D01*
X139809853Y-96938574D01*
X139865000Y-96661335D01*
X139865000Y-96378665D01*
X139809853Y-96101426D01*
X139701680Y-95840273D01*
X139544637Y-95605241D01*
X139344759Y-95405363D01*
X139109727Y-95248320D01*
X138848574Y-95140147D01*
X138571335Y-95085000D01*
X138288665Y-95085000D01*
X138011426Y-95140147D01*
X137750273Y-95248320D01*
X137515241Y-95405363D01*
X137315363Y-95605241D01*
X137158320Y-95840273D01*
X137050147Y-96101426D01*
X136995000Y-96378665D01*
X136995000Y-96661335D01*
X137050147Y-96938574D01*
X137158320Y-97199727D01*
X137315363Y-97434759D01*
X137515241Y-97634637D01*
X137670000Y-97738044D01*
X137670001Y-99710199D01*
X136720978Y-100659222D01*
X136564637Y-100425241D01*
X136364759Y-100225363D01*
X136129727Y-100068320D01*
X135868574Y-99960147D01*
X135591335Y-99905000D01*
X135308665Y-99905000D01*
X135031426Y-99960147D01*
X134770273Y-100068320D01*
X134535241Y-100225363D01*
X134335363Y-100425241D01*
X134178320Y-100660273D01*
X134070147Y-100921426D01*
X134015000Y-101198665D01*
X134015000Y-101481335D01*
X134070147Y-101758574D01*
X134178320Y-102019727D01*
X134335363Y-102254759D01*
X134344754Y-102264150D01*
X134326015Y-102265996D01*
X134182754Y-102309453D01*
X134050725Y-102380025D01*
X133935000Y-102474998D01*
X133911202Y-102503996D01*
X133713270Y-102701928D01*
X132550000Y-102701928D01*
X132425518Y-102714188D01*
X132305820Y-102750498D01*
X132195506Y-102809463D01*
X132098815Y-102888815D01*
X132019463Y-102985506D01*
X131960498Y-103095820D01*
X131924188Y-103215518D01*
X131915703Y-103301667D01*
X131864637Y-103225241D01*
X131664759Y-103025363D01*
X131429727Y-102868320D01*
X131168574Y-102760147D01*
X130891335Y-102705000D01*
X130608665Y-102705000D01*
X130331426Y-102760147D01*
X130070273Y-102868320D01*
X129835241Y-103025363D01*
X129700000Y-103160604D01*
X129564759Y-103025363D01*
X129329727Y-102868320D01*
X129068574Y-102760147D01*
X128967290Y-102740000D01*
X129068574Y-102719853D01*
X129329727Y-102611680D01*
X129564759Y-102454637D01*
X129764637Y-102254759D01*
X129921680Y-102019727D01*
X130029853Y-101758574D01*
X130085000Y-101481335D01*
X130085000Y-101198665D01*
X130029853Y-100921426D01*
X129921680Y-100660273D01*
X129764637Y-100425241D01*
X129564759Y-100225363D01*
X129329727Y-100068320D01*
X129068574Y-99960147D01*
X128791335Y-99905000D01*
X128508665Y-99905000D01*
X128284999Y-99949491D01*
X128284999Y-97955000D01*
X128411335Y-97955000D01*
X128688574Y-97899853D01*
X128949727Y-97791680D01*
X129184759Y-97634637D01*
X129384637Y-97434759D01*
X129541680Y-97199727D01*
X129649853Y-96938574D01*
X129705000Y-96661335D01*
X129705000Y-96378665D01*
X129649853Y-96101426D01*
X129541680Y-95840273D01*
X129384637Y-95605241D01*
X129184759Y-95405363D01*
X129105000Y-95352070D01*
X129105000Y-93877930D01*
X129184759Y-93824637D01*
X129384637Y-93624759D01*
X129437930Y-93545000D01*
X135899782Y-93545000D01*
X135940800Y-93549040D01*
X135981818Y-93545000D01*
X135981819Y-93545000D01*
X136104489Y-93532918D01*
X136261887Y-93485172D01*
X136406946Y-93407636D01*
X136534091Y-93303291D01*
X136560246Y-93271421D01*
X136995000Y-92836667D01*
X136995000Y-92851335D01*
X137050147Y-93128574D01*
X137158320Y-93389727D01*
X137315363Y-93624759D01*
X137515241Y-93824637D01*
X137750273Y-93981680D01*
X138011426Y-94089853D01*
X138288665Y-94145000D01*
X138571335Y-94145000D01*
X138848574Y-94089853D01*
X139109727Y-93981680D01*
X139344759Y-93824637D01*
X139544637Y-93624759D01*
X139701680Y-93389727D01*
X139809853Y-93128574D01*
X139865000Y-92851335D01*
X139865000Y-92568665D01*
X139809853Y-92291426D01*
X139701680Y-92030273D01*
X139544637Y-91795241D01*
X139344759Y-91595363D01*
X139109727Y-91438320D01*
X138848574Y-91330147D01*
X138571335Y-91275000D01*
X138556667Y-91275000D01*
X141794720Y-88036948D01*
X141997024Y-88098316D01*
X142290800Y-88127251D01*
X142584577Y-88098316D01*
X142867064Y-88012625D01*
X143127406Y-87873469D01*
X143355597Y-87686197D01*
X143542869Y-87458006D01*
X143563907Y-87418647D01*
X143655317Y-87559574D01*
X143860932Y-87770873D01*
X144103819Y-87937998D01*
X144374643Y-88054527D01*
X144471774Y-88076358D01*
X144703800Y-87955217D01*
X144703800Y-86487000D01*
X144683800Y-86487000D01*
X144683800Y-86233000D01*
X144703800Y-86233000D01*
X144703800Y-84764783D01*
X144471774Y-84643642D01*
X144374643Y-84665473D01*
X144103819Y-84782002D01*
X143860932Y-84949127D01*
X143655317Y-85160426D01*
X143563907Y-85301353D01*
X143542869Y-85261994D01*
X143355597Y-85033803D01*
X143127405Y-84846531D01*
X142867063Y-84707375D01*
X142584576Y-84621684D01*
X142290800Y-84592749D01*
X141997023Y-84621684D01*
X141714536Y-84707375D01*
X141454194Y-84846531D01*
X141226003Y-85033803D01*
X141038731Y-85261995D01*
X141020800Y-85295541D01*
X141002869Y-85261994D01*
X140815597Y-85033803D01*
X140587405Y-84846531D01*
X140327063Y-84707375D01*
X140044576Y-84621684D01*
X139750800Y-84592749D01*
X139457023Y-84621684D01*
X139174536Y-84707375D01*
X138914194Y-84846531D01*
X138686003Y-85033803D01*
X138498731Y-85261995D01*
X138480800Y-85295541D01*
X138462869Y-85261994D01*
X138275597Y-85033803D01*
X138047405Y-84846531D01*
X137787063Y-84707375D01*
X137504576Y-84621684D01*
X137210800Y-84592749D01*
X136917023Y-84621684D01*
X136634536Y-84707375D01*
X136374194Y-84846531D01*
X136146003Y-85033803D01*
X135958731Y-85261995D01*
X135940800Y-85295541D01*
X135922869Y-85261994D01*
X135735597Y-85033803D01*
X135507405Y-84846531D01*
X135247063Y-84707375D01*
X134964576Y-84621684D01*
X134670800Y-84592749D01*
X134377023Y-84621684D01*
X134094536Y-84707375D01*
X133834194Y-84846531D01*
X133606003Y-85033803D01*
X133418731Y-85261995D01*
X133400800Y-85295541D01*
X133382869Y-85261994D01*
X133195597Y-85033803D01*
X132967405Y-84846531D01*
X132707063Y-84707375D01*
X132424576Y-84621684D01*
X132130800Y-84592749D01*
X131837023Y-84621684D01*
X131554536Y-84707375D01*
X131294194Y-84846531D01*
X131066003Y-85033803D01*
X130878731Y-85261995D01*
X130860800Y-85295541D01*
X130842869Y-85261994D01*
X130655597Y-85033803D01*
X130427405Y-84846531D01*
X130167063Y-84707375D01*
X129884576Y-84621684D01*
X129590800Y-84592749D01*
X129297023Y-84621684D01*
X129014536Y-84707375D01*
X128754194Y-84846531D01*
X128526003Y-85033803D01*
X128338731Y-85261995D01*
X128320800Y-85295541D01*
X128302869Y-85261994D01*
X128115597Y-85033803D01*
X127887405Y-84846531D01*
X127627063Y-84707375D01*
X127344576Y-84621684D01*
X127050800Y-84592749D01*
X126757023Y-84621684D01*
X126474536Y-84707375D01*
X126214194Y-84846531D01*
X125986003Y-85033803D01*
X125798731Y-85261995D01*
X125780800Y-85295541D01*
X125762869Y-85261994D01*
X125575597Y-85033803D01*
X125347405Y-84846531D01*
X125087063Y-84707375D01*
X124804576Y-84621684D01*
X124510800Y-84592749D01*
X124217023Y-84621684D01*
X123934536Y-84707375D01*
X123674194Y-84846531D01*
X123446003Y-85033803D01*
X123258731Y-85261995D01*
X123240800Y-85295541D01*
X123222869Y-85261994D01*
X123035597Y-85033803D01*
X122807405Y-84846531D01*
X122547063Y-84707375D01*
X122264576Y-84621684D01*
X121970800Y-84592749D01*
X121677023Y-84621684D01*
X121394536Y-84707375D01*
X121134194Y-84846531D01*
X120906003Y-85033803D01*
X120718731Y-85261995D01*
X120700800Y-85295541D01*
X120682869Y-85261994D01*
X120495597Y-85033803D01*
X120267405Y-84846531D01*
X120007063Y-84707375D01*
X119724576Y-84621684D01*
X119705770Y-84619832D01*
X128913199Y-75412403D01*
X128942191Y-75388611D01*
X128965985Y-75359618D01*
X128965989Y-75359614D01*
X129037163Y-75272887D01*
X129037164Y-75272886D01*
X129107736Y-75140857D01*
X129151193Y-74997596D01*
X129162190Y-74885943D01*
X129162190Y-74885934D01*
X129165866Y-74848611D01*
X129162190Y-74811288D01*
X129162190Y-72817415D01*
X129297023Y-72858316D01*
X129590800Y-72887251D01*
X129884576Y-72858316D01*
X130167063Y-72772625D01*
X130168080Y-72772082D01*
X130477010Y-73081012D01*
X130500809Y-73110011D01*
X130616534Y-73204984D01*
X130748563Y-73275556D01*
X130891824Y-73319013D01*
X131003477Y-73330010D01*
X131003487Y-73330010D01*
X131040810Y-73333686D01*
X131078133Y-73330010D01*
X135259157Y-73330010D01*
X146709256Y-84780111D01*
X146584994Y-84846531D01*
X146356803Y-85033803D01*
X146169531Y-85261995D01*
X146125544Y-85344289D01*
X146006283Y-85160426D01*
X145800668Y-84949127D01*
X145557781Y-84782002D01*
X145286957Y-84665473D01*
X145189826Y-84643642D01*
X144957800Y-84764783D01*
X144957800Y-86233000D01*
X144977800Y-86233000D01*
X144977800Y-86487000D01*
X144957800Y-86487000D01*
X144957800Y-87955217D01*
X145189826Y-88076358D01*
X145286957Y-88054527D01*
X145557781Y-87937998D01*
X145800668Y-87770873D01*
X146006283Y-87559574D01*
X146125543Y-87375711D01*
X146169531Y-87458006D01*
X146356803Y-87686197D01*
X146584995Y-87873469D01*
X146845337Y-88012625D01*
X147127824Y-88098316D01*
X147421600Y-88127251D01*
X147715377Y-88098316D01*
X147850211Y-88057415D01*
X147850210Y-91104987D01*
X147643886Y-91311312D01*
X147461335Y-91275000D01*
X147178665Y-91275000D01*
X146901426Y-91330147D01*
X146640273Y-91438320D01*
X146405241Y-91595363D01*
X146205363Y-91795241D01*
X146048320Y-92030273D01*
X145940147Y-92291426D01*
X145885000Y-92568665D01*
X145885000Y-92851335D01*
X145940147Y-93128574D01*
X146048320Y-93389727D01*
X146205363Y-93624759D01*
X146405241Y-93824637D01*
X146640273Y-93981680D01*
X146901426Y-94089853D01*
X147178665Y-94145000D01*
X147461335Y-94145000D01*
X147738574Y-94089853D01*
X147999727Y-93981680D01*
X148234759Y-93824637D01*
X148434637Y-93624759D01*
X148591680Y-93389727D01*
X148699853Y-93128574D01*
X148755000Y-92851335D01*
X148755000Y-92568665D01*
X148718688Y-92386114D01*
X149121219Y-91983584D01*
X149150211Y-91959791D01*
X149174005Y-91930798D01*
X149174009Y-91930794D01*
X149245183Y-91844067D01*
X149245184Y-91844066D01*
X149315756Y-91712037D01*
X149359213Y-91568776D01*
X149370210Y-91457123D01*
X149370210Y-91457114D01*
X149373886Y-91419791D01*
X149370210Y-91382468D01*
X149370210Y-85643584D01*
X149373886Y-85606261D01*
X149370210Y-85568938D01*
X149370210Y-85568929D01*
X149359213Y-85457276D01*
X149315756Y-85314015D01*
X149245184Y-85181986D01*
X149205850Y-85134057D01*
X149174009Y-85095258D01*
X149174005Y-85095254D01*
X149150211Y-85066261D01*
X149121218Y-85042467D01*
X136939255Y-72860506D01*
X137210800Y-72887251D01*
X137504576Y-72858316D01*
X137787063Y-72772625D01*
X138047405Y-72633469D01*
X138157098Y-72543447D01*
X138694662Y-73081012D01*
X138718461Y-73110011D01*
X138747459Y-73133809D01*
X138834185Y-73204984D01*
X138966215Y-73275556D01*
X139109476Y-73319013D01*
X139221129Y-73330010D01*
X139221139Y-73330010D01*
X139258462Y-73333686D01*
X139295784Y-73330010D01*
X140095139Y-73330010D01*
X152910001Y-86144873D01*
X152910000Y-91491956D01*
X152755241Y-91595363D01*
X152555363Y-91795241D01*
X152398320Y-92030273D01*
X152290147Y-92291426D01*
X152235000Y-92568665D01*
X152235000Y-92851335D01*
X152290147Y-93128574D01*
X152398320Y-93389727D01*
X152555363Y-93624759D01*
X152755241Y-93824637D01*
X152990273Y-93981680D01*
X153251426Y-94089853D01*
X153528665Y-94145000D01*
X153811335Y-94145000D01*
X154088574Y-94089853D01*
X154349727Y-93981680D01*
X154584759Y-93824637D01*
X154784637Y-93624759D01*
X154941680Y-93389727D01*
X155049853Y-93128574D01*
X155105000Y-92851335D01*
X155105000Y-92568665D01*
X155049853Y-92291426D01*
X154941680Y-92030273D01*
X154784637Y-91795241D01*
X154584759Y-91595363D01*
X154430000Y-91491957D01*
X154430000Y-85867395D01*
X154433676Y-85830070D01*
X154430000Y-85792745D01*
X154430000Y-85792737D01*
X154419003Y-85681084D01*
X154375546Y-85537823D01*
X154304974Y-85405794D01*
X154210001Y-85290069D01*
X154181003Y-85266271D01*
X141656146Y-72741415D01*
X141714536Y-72772625D01*
X141997023Y-72858316D01*
X142290800Y-72887251D01*
X142584576Y-72858316D01*
X142867063Y-72772625D01*
X143127405Y-72633469D01*
X143355597Y-72446197D01*
X143542869Y-72218006D01*
X143560800Y-72184459D01*
X143578731Y-72218005D01*
X143766003Y-72446197D01*
X143994194Y-72633469D01*
X144254536Y-72772625D01*
X144537023Y-72858316D01*
X144830800Y-72887251D01*
X145124576Y-72858316D01*
X145407063Y-72772625D01*
X145667405Y-72633469D01*
X145895597Y-72446197D01*
X145902214Y-72438135D01*
X145917698Y-72489180D01*
X145976663Y-72599494D01*
X146056015Y-72696185D01*
X146152706Y-72775537D01*
X146263020Y-72834502D01*
X146382718Y-72870812D01*
X146507200Y-72883072D01*
X148234400Y-72883072D01*
X148358882Y-72870812D01*
X148478580Y-72834502D01*
X148588894Y-72775537D01*
X148685585Y-72696185D01*
X148764937Y-72599494D01*
X148823902Y-72489180D01*
X148860212Y-72369482D01*
X148872472Y-72245000D01*
X148872472Y-69995000D01*
X148860212Y-69870518D01*
X148823902Y-69750820D01*
X148764937Y-69640506D01*
X148685585Y-69543815D01*
X148588894Y-69464463D01*
X148478580Y-69405498D01*
X148358882Y-69369188D01*
X148234400Y-69356928D01*
X146507200Y-69356928D01*
X146382718Y-69369188D01*
X146263020Y-69405498D01*
X146152706Y-69464463D01*
X146056015Y-69543815D01*
X145976663Y-69640506D01*
X145917698Y-69750820D01*
X145902214Y-69801865D01*
X145895597Y-69793803D01*
X145667406Y-69606531D01*
X145407064Y-69467375D01*
X145124577Y-69381684D01*
X144830800Y-69352749D01*
X144537024Y-69381684D01*
X144254537Y-69467375D01*
X143994195Y-69606531D01*
X143766003Y-69793803D01*
X143578731Y-70021994D01*
X143560800Y-70055540D01*
X143542869Y-70021994D01*
X143355597Y-69793803D01*
X143127406Y-69606531D01*
X142867064Y-69467375D01*
X142584577Y-69381684D01*
X142290800Y-69352749D01*
X141997024Y-69381684D01*
X141714537Y-69467375D01*
X141454195Y-69606531D01*
X141226003Y-69793803D01*
X141038731Y-70021994D01*
X141020800Y-70055540D01*
X141002869Y-70021994D01*
X140815597Y-69793803D01*
X140587406Y-69606531D01*
X140327064Y-69467375D01*
X140044577Y-69381684D01*
X139750800Y-69352749D01*
X139457024Y-69381684D01*
X139174537Y-69467375D01*
X138914195Y-69606531D01*
X138804503Y-69696553D01*
X138266941Y-69158992D01*
X138243139Y-69129989D01*
X138127414Y-69035016D01*
X137995385Y-68964444D01*
X137852124Y-68920987D01*
X137740471Y-68909990D01*
X137740460Y-68909990D01*
X137703138Y-68906314D01*
X137665816Y-68909990D01*
X131632002Y-68909990D01*
X131430990Y-68708977D01*
X131407191Y-68679978D01*
X131291466Y-68585005D01*
X131159437Y-68514433D01*
X131016176Y-68470976D01*
X130904523Y-68459979D01*
X130904513Y-68459979D01*
X130867190Y-68456303D01*
X130829865Y-68459979D01*
X127613144Y-68459979D01*
X127575821Y-68456303D01*
X127538498Y-68459979D01*
X127538488Y-68459979D01*
X127426835Y-68470976D01*
X127283574Y-68514433D01*
X127151545Y-68585005D01*
X127035820Y-68679978D01*
X127012021Y-68708977D01*
X126539802Y-69181197D01*
X126510799Y-69204999D01*
X126477385Y-69245715D01*
X126415826Y-69320724D01*
X126385348Y-69377744D01*
X126345254Y-69452754D01*
X126314942Y-69552680D01*
X126214195Y-69606531D01*
X125986003Y-69793803D01*
X125798731Y-70021994D01*
X125780800Y-70055540D01*
X125762869Y-70021994D01*
X125575597Y-69793803D01*
X125347406Y-69606531D01*
X125087064Y-69467375D01*
X124804577Y-69381684D01*
X124510800Y-69352749D01*
X124217024Y-69381684D01*
X123934537Y-69467375D01*
X123674195Y-69606531D01*
X123446003Y-69793803D01*
X123258731Y-70021994D01*
X123240800Y-70055540D01*
X123222869Y-70021994D01*
X123035597Y-69793803D01*
X122807406Y-69606531D01*
X122547064Y-69467375D01*
X122264577Y-69381684D01*
X121970800Y-69352749D01*
X121677024Y-69381684D01*
X121394537Y-69467375D01*
X121134195Y-69606531D01*
X120906003Y-69793803D01*
X120718731Y-70021994D01*
X120700800Y-70055540D01*
X120682869Y-70021994D01*
X120495597Y-69793803D01*
X120267406Y-69606531D01*
X120007064Y-69467375D01*
X119724577Y-69381684D01*
X119430800Y-69352749D01*
X119137024Y-69381684D01*
X118854537Y-69467375D01*
X118594195Y-69606531D01*
X118366003Y-69793803D01*
X118178731Y-70021994D01*
X118160800Y-70055540D01*
X118142869Y-70021994D01*
X117955597Y-69793803D01*
X117727406Y-69606531D01*
X117467064Y-69467375D01*
X117184577Y-69381684D01*
X116890800Y-69352749D01*
X116597024Y-69381684D01*
X116314537Y-69467375D01*
X116054195Y-69606531D01*
X115826003Y-69793803D01*
X115638731Y-70021994D01*
X115620800Y-70055540D01*
X115602869Y-70021994D01*
X115415597Y-69793803D01*
X115187406Y-69606531D01*
X114927064Y-69467375D01*
X114644577Y-69381684D01*
X114350800Y-69352749D01*
X114057024Y-69381684D01*
X113774537Y-69467375D01*
X113514195Y-69606531D01*
X113286003Y-69793803D01*
X113098731Y-70021994D01*
X113080800Y-70055540D01*
X113062869Y-70021994D01*
X112875597Y-69793803D01*
X112647406Y-69606531D01*
X112387064Y-69467375D01*
X112104577Y-69381684D01*
X111810800Y-69352749D01*
X111517024Y-69381684D01*
X111234537Y-69467375D01*
X110974195Y-69606531D01*
X110746003Y-69793803D01*
X110558731Y-70021994D01*
X110540800Y-70055540D01*
X110522869Y-70021994D01*
X110335597Y-69793803D01*
X110107406Y-69606531D01*
X109847064Y-69467375D01*
X109564577Y-69381684D01*
X109270800Y-69352749D01*
X108977024Y-69381684D01*
X108694537Y-69467375D01*
X108434195Y-69606531D01*
X108206003Y-69793803D01*
X108018731Y-70021994D01*
X108000800Y-70055540D01*
X107982869Y-70021994D01*
X107795597Y-69793803D01*
X107567406Y-69606531D01*
X107307064Y-69467375D01*
X107024577Y-69381684D01*
X106730800Y-69352749D01*
X106437024Y-69381684D01*
X106154537Y-69467375D01*
X105894195Y-69606531D01*
X105666003Y-69793803D01*
X105478731Y-70021994D01*
X105460800Y-70055540D01*
X105442869Y-70021994D01*
X105255597Y-69793803D01*
X105027406Y-69606531D01*
X104767064Y-69467375D01*
X104484577Y-69381684D01*
X104190800Y-69352749D01*
X103897024Y-69381684D01*
X103614537Y-69467375D01*
X103354195Y-69606531D01*
X103126003Y-69793803D01*
X102938731Y-70021994D01*
X102917693Y-70061353D01*
X102826283Y-69920426D01*
X102620668Y-69709127D01*
X102377781Y-69542002D01*
X102106957Y-69425473D01*
X102009826Y-69403642D01*
X101777800Y-69524783D01*
X101777800Y-70993000D01*
X101797800Y-70993000D01*
X101797800Y-71247000D01*
X101777800Y-71247000D01*
X101777800Y-72715217D01*
X102009826Y-72836358D01*
X102106957Y-72814527D01*
X102377781Y-72697998D01*
X102620668Y-72530873D01*
X102826283Y-72319574D01*
X102917694Y-72178647D01*
X102938731Y-72218005D01*
X103126003Y-72446197D01*
X103354194Y-72633469D01*
X103614536Y-72772625D01*
X103897023Y-72858316D01*
X104190800Y-72887251D01*
X104484576Y-72858316D01*
X104767063Y-72772625D01*
X105027405Y-72633469D01*
X105255597Y-72446197D01*
X105442869Y-72218006D01*
X105460800Y-72184459D01*
X105478731Y-72218005D01*
X105666003Y-72446197D01*
X105894194Y-72633469D01*
X106154536Y-72772625D01*
X106437023Y-72858316D01*
X106730800Y-72887251D01*
X107024576Y-72858316D01*
X107307063Y-72772625D01*
X107567405Y-72633469D01*
X107795597Y-72446197D01*
X107982869Y-72218006D01*
X108000800Y-72184459D01*
X108018731Y-72218005D01*
X108206003Y-72446197D01*
X108434194Y-72633469D01*
X108694536Y-72772625D01*
X108977023Y-72858316D01*
X109270800Y-72887251D01*
X109564576Y-72858316D01*
X109847063Y-72772625D01*
X110107405Y-72633469D01*
X110335597Y-72446197D01*
X110522869Y-72218006D01*
X110540800Y-72184459D01*
X110558731Y-72218005D01*
X110746003Y-72446197D01*
X110974194Y-72633469D01*
X111234536Y-72772625D01*
X111517023Y-72858316D01*
X111810800Y-72887251D01*
X112104576Y-72858316D01*
X112387063Y-72772625D01*
X112647405Y-72633469D01*
X112875597Y-72446197D01*
X113062869Y-72218006D01*
X113080800Y-72184459D01*
X113098731Y-72218005D01*
X113286003Y-72446197D01*
X113514194Y-72633469D01*
X113774536Y-72772625D01*
X114057023Y-72858316D01*
X114350800Y-72887251D01*
X114644576Y-72858316D01*
X114927063Y-72772625D01*
X115187405Y-72633469D01*
X115415597Y-72446197D01*
X115602869Y-72218006D01*
X115620800Y-72184459D01*
X115638731Y-72218005D01*
X115826003Y-72446197D01*
X116054194Y-72633469D01*
X116314536Y-72772625D01*
X116597023Y-72858316D01*
X116890800Y-72887251D01*
X117184576Y-72858316D01*
X117467063Y-72772625D01*
X117727405Y-72633469D01*
X117955597Y-72446197D01*
X118142869Y-72218006D01*
X118160800Y-72184459D01*
X118178731Y-72218005D01*
X118366003Y-72446197D01*
X118594194Y-72633469D01*
X118854536Y-72772625D01*
X119137023Y-72858316D01*
X119430800Y-72887251D01*
X119724576Y-72858316D01*
X120007063Y-72772625D01*
X120267405Y-72633469D01*
X120495597Y-72446197D01*
X120682869Y-72218006D01*
X120700800Y-72184459D01*
X120718731Y-72218005D01*
X120906003Y-72446197D01*
X121134194Y-72633469D01*
X121394536Y-72772625D01*
X121677023Y-72858316D01*
X121970800Y-72887251D01*
X122264576Y-72858316D01*
X122547063Y-72772625D01*
X122807405Y-72633469D01*
X123035597Y-72446197D01*
X123222869Y-72218006D01*
X123240800Y-72184459D01*
X123258731Y-72218005D01*
X123446003Y-72446197D01*
X123674194Y-72633469D01*
X123934536Y-72772625D01*
X124217023Y-72858316D01*
X124510800Y-72887251D01*
X124804576Y-72858316D01*
X125087063Y-72772625D01*
X125347405Y-72633469D01*
X125575597Y-72446197D01*
X125762869Y-72218006D01*
X125780800Y-72184459D01*
X125798731Y-72218005D01*
X125986003Y-72446197D01*
X126214194Y-72633469D01*
X126474536Y-72772625D01*
X126757023Y-72858316D01*
X127050800Y-72887251D01*
X127344576Y-72858316D01*
X127627063Y-72772625D01*
X127642190Y-72764539D01*
X127642190Y-74533807D01*
X117568408Y-84607591D01*
X117539410Y-84631389D01*
X117515612Y-84660387D01*
X117515611Y-84660388D01*
X117474004Y-84711085D01*
X117467063Y-84707375D01*
X117184576Y-84621684D01*
X116890800Y-84592749D01*
X116597023Y-84621684D01*
X116314536Y-84707375D01*
X116054194Y-84846531D01*
X115826003Y-85033803D01*
X115638731Y-85261995D01*
X115620800Y-85295541D01*
X115602869Y-85261994D01*
X115415597Y-85033803D01*
X115187405Y-84846531D01*
X114927063Y-84707375D01*
X114644576Y-84621684D01*
X114350800Y-84592749D01*
X114057023Y-84621684D01*
X113774536Y-84707375D01*
X113514194Y-84846531D01*
X113286003Y-85033803D01*
X113098731Y-85261995D01*
X113080800Y-85295541D01*
X113062869Y-85261994D01*
X112875597Y-85033803D01*
X112647405Y-84846531D01*
X112387063Y-84707375D01*
X112104576Y-84621684D01*
X111810800Y-84592749D01*
X111517023Y-84621684D01*
X111234536Y-84707375D01*
X110974194Y-84846531D01*
X110746003Y-85033803D01*
X110558731Y-85261995D01*
X110540800Y-85295541D01*
X110522869Y-85261994D01*
X110335597Y-85033803D01*
X110107405Y-84846531D01*
X109847063Y-84707375D01*
X109564576Y-84621684D01*
X109270800Y-84592749D01*
X108977023Y-84621684D01*
X108694536Y-84707375D01*
X108434194Y-84846531D01*
X108206003Y-85033803D01*
X108018731Y-85261995D01*
X108000800Y-85295541D01*
X107982869Y-85261994D01*
X107795597Y-85033803D01*
X107567405Y-84846531D01*
X107307063Y-84707375D01*
X107024576Y-84621684D01*
X106730800Y-84592749D01*
X106437023Y-84621684D01*
X106154536Y-84707375D01*
X105894194Y-84846531D01*
X105666003Y-85033803D01*
X105478731Y-85261995D01*
X105460800Y-85295541D01*
X105442869Y-85261994D01*
X105255597Y-85033803D01*
X105027405Y-84846531D01*
X104767063Y-84707375D01*
X104484576Y-84621684D01*
X104190800Y-84592749D01*
X103897023Y-84621684D01*
X103614536Y-84707375D01*
X103354194Y-84846531D01*
X103126003Y-85033803D01*
X102938731Y-85261995D01*
X102920800Y-85295541D01*
X102902869Y-85261994D01*
X102715597Y-85033803D01*
X102487405Y-84846531D01*
X102227063Y-84707375D01*
X101944576Y-84621684D01*
X101650800Y-84592749D01*
X101357023Y-84621684D01*
X101074536Y-84707375D01*
X100814194Y-84846531D01*
X100586003Y-85033803D01*
X100398731Y-85261995D01*
X100380800Y-85295541D01*
X100362869Y-85261994D01*
X100175597Y-85033803D01*
X99947405Y-84846531D01*
X99687063Y-84707375D01*
X99404576Y-84621684D01*
X99110800Y-84592749D01*
X98817023Y-84621684D01*
X98534536Y-84707375D01*
X98274194Y-84846531D01*
X98046003Y-85033803D01*
X97858731Y-85261995D01*
X97719575Y-85522337D01*
X97633884Y-85804824D01*
X97612200Y-86024982D01*
X83210000Y-86024982D01*
X83210000Y-70290615D01*
X83596599Y-70677214D01*
X84306608Y-71151627D01*
X85095527Y-71478408D01*
X85933040Y-71645000D01*
X86786960Y-71645000D01*
X87624473Y-71478408D01*
X88183141Y-71247000D01*
X97612200Y-71247000D01*
X97612200Y-71508400D01*
X97665772Y-71798322D01*
X97774875Y-72072222D01*
X97935317Y-72319574D01*
X98140932Y-72530873D01*
X98383819Y-72697998D01*
X98654643Y-72814527D01*
X98751774Y-72836358D01*
X98983800Y-72715217D01*
X98983800Y-71247000D01*
X99237800Y-71247000D01*
X99237800Y-72715217D01*
X99469826Y-72836358D01*
X99566957Y-72814527D01*
X99837781Y-72697998D01*
X100080668Y-72530873D01*
X100286283Y-72319574D01*
X100380800Y-72173858D01*
X100475317Y-72319574D01*
X100680932Y-72530873D01*
X100923819Y-72697998D01*
X101194643Y-72814527D01*
X101291774Y-72836358D01*
X101523800Y-72715217D01*
X101523800Y-71247000D01*
X99237800Y-71247000D01*
X98983800Y-71247000D01*
X97612200Y-71247000D01*
X88183141Y-71247000D01*
X88413392Y-71151627D01*
X89042006Y-70731600D01*
X97612200Y-70731600D01*
X97612200Y-70993000D01*
X98983800Y-70993000D01*
X98983800Y-69524783D01*
X99237800Y-69524783D01*
X99237800Y-70993000D01*
X101523800Y-70993000D01*
X101523800Y-69524783D01*
X101291774Y-69403642D01*
X101194643Y-69425473D01*
X100923819Y-69542002D01*
X100680932Y-69709127D01*
X100475317Y-69920426D01*
X100380800Y-70066142D01*
X100286283Y-69920426D01*
X100080668Y-69709127D01*
X99837781Y-69542002D01*
X99566957Y-69425473D01*
X99469826Y-69403642D01*
X99237800Y-69524783D01*
X98983800Y-69524783D01*
X98751774Y-69403642D01*
X98654643Y-69425473D01*
X98383819Y-69542002D01*
X98140932Y-69709127D01*
X97935317Y-69920426D01*
X97774875Y-70167778D01*
X97665772Y-70441678D01*
X97612200Y-70731600D01*
X89042006Y-70731600D01*
X89123401Y-70677214D01*
X89727214Y-70073401D01*
X90201627Y-69363392D01*
X90528408Y-68574473D01*
X90695000Y-67736960D01*
X90695000Y-66883040D01*
X90528408Y-66045527D01*
X90201627Y-65256608D01*
X89727214Y-64546599D01*
X89340615Y-64160000D01*
X158309385Y-64160000D01*
X157922786Y-64546599D01*
%TD*%
M02*
