%TF.GenerationSoftware,KiCad,Pcbnew,5.1.6*%
%TF.CreationDate,2021-01-14T16:45:27+01:00*%
%TF.ProjectId,din2usb_adapter,64696e32-7573-4625-9f61-646170746572,rev?*%
%TF.SameCoordinates,Original*%
%TF.FileFunction,Legend,Top*%
%TF.FilePolarity,Positive*%
%FSLAX46Y46*%
G04 Gerber Fmt 4.6, Leading zero omitted, Abs format (unit mm)*
G04 Created by KiCad (PCBNEW 5.1.6) date 2021-01-14 16:45:27*
%MOMM*%
%LPD*%
G01*
G04 APERTURE LIST*
%ADD10C,0.120000*%
%ADD11C,0.304800*%
%ADD12C,0.150000*%
%ADD13C,0.222250*%
G04 APERTURE END LIST*
D10*
%TO.C,P2*%
X123950000Y-112740000D02*
X140150000Y-112740000D01*
X123950000Y-99740000D02*
X140150000Y-99740000D01*
X123950000Y-99740000D02*
X123950000Y-112740000D01*
X140150000Y-99740000D02*
X140150000Y-112740000D01*
%TO.C,P1*%
X106170000Y-112740000D02*
X122370000Y-112740000D01*
X106170000Y-99740000D02*
X122370000Y-99740000D01*
X106170000Y-99740000D02*
X106170000Y-112740000D01*
X122370000Y-99740000D02*
X122370000Y-112740000D01*
%TO.C,J1*%
X85030000Y-95190000D02*
X86360000Y-95190000D01*
X85030000Y-96520000D02*
X85030000Y-95190000D01*
X85030000Y-97790000D02*
X87690000Y-97790000D01*
X87690000Y-97790000D02*
X87690000Y-100390000D01*
X85030000Y-97790000D02*
X85030000Y-100390000D01*
X85030000Y-100390000D02*
X87690000Y-100390000D01*
D11*
%TO.C,U1*%
X149910000Y-67240000D02*
X149910000Y-90240000D01*
X96510000Y-67240000D02*
X149910000Y-67240000D01*
X96510000Y-90240000D02*
X96510000Y-67240000D01*
X149910000Y-90240000D02*
X96510000Y-90240000D01*
D10*
%TO.C,R8*%
X153670000Y-101830000D02*
X153670000Y-101060000D01*
X153670000Y-93750000D02*
X153670000Y-94520000D01*
X155040000Y-101060000D02*
X155040000Y-94520000D01*
X152300000Y-101060000D02*
X155040000Y-101060000D01*
X152300000Y-94520000D02*
X152300000Y-101060000D01*
X155040000Y-94520000D02*
X152300000Y-94520000D01*
%TO.C,R7*%
X147320000Y-101830000D02*
X147320000Y-101060000D01*
X147320000Y-93750000D02*
X147320000Y-94520000D01*
X148690000Y-101060000D02*
X148690000Y-94520000D01*
X145950000Y-101060000D02*
X148690000Y-101060000D01*
X145950000Y-94520000D02*
X145950000Y-101060000D01*
X148690000Y-94520000D02*
X145950000Y-94520000D01*
%TO.C,R6*%
X101600000Y-101830000D02*
X101600000Y-101060000D01*
X101600000Y-93750000D02*
X101600000Y-94520000D01*
X102970000Y-101060000D02*
X102970000Y-94520000D01*
X100230000Y-101060000D02*
X102970000Y-101060000D01*
X100230000Y-94520000D02*
X100230000Y-101060000D01*
X102970000Y-94520000D02*
X100230000Y-94520000D01*
%TO.C,R5*%
X95250000Y-101830000D02*
X95250000Y-101060000D01*
X95250000Y-93750000D02*
X95250000Y-94520000D01*
X96620000Y-101060000D02*
X96620000Y-94520000D01*
X93880000Y-101060000D02*
X96620000Y-101060000D01*
X93880000Y-94520000D02*
X93880000Y-101060000D01*
X96620000Y-94520000D02*
X93880000Y-94520000D01*
%TO.C,R4*%
X137390000Y-96520000D02*
X136620000Y-96520000D01*
X129310000Y-96520000D02*
X130080000Y-96520000D01*
X136620000Y-95150000D02*
X130080000Y-95150000D01*
X136620000Y-97890000D02*
X136620000Y-95150000D01*
X130080000Y-97890000D02*
X136620000Y-97890000D01*
X130080000Y-95150000D02*
X130080000Y-97890000D01*
%TO.C,R3*%
X137390000Y-92710000D02*
X136620000Y-92710000D01*
X129310000Y-92710000D02*
X130080000Y-92710000D01*
X136620000Y-91340000D02*
X130080000Y-91340000D01*
X136620000Y-94080000D02*
X136620000Y-91340000D01*
X130080000Y-94080000D02*
X136620000Y-94080000D01*
X130080000Y-91340000D02*
X130080000Y-94080000D01*
%TO.C,R2*%
X119610000Y-96520000D02*
X118840000Y-96520000D01*
X111530000Y-96520000D02*
X112300000Y-96520000D01*
X118840000Y-95150000D02*
X112300000Y-95150000D01*
X118840000Y-97890000D02*
X118840000Y-95150000D01*
X112300000Y-97890000D02*
X118840000Y-97890000D01*
X112300000Y-95150000D02*
X112300000Y-97890000D01*
%TO.C,R1*%
X119610000Y-92710000D02*
X118840000Y-92710000D01*
X111530000Y-92710000D02*
X112300000Y-92710000D01*
X118840000Y-91340000D02*
X112300000Y-91340000D01*
X118840000Y-94080000D02*
X118840000Y-91340000D01*
X112300000Y-94080000D02*
X118840000Y-94080000D01*
X112300000Y-91340000D02*
X112300000Y-94080000D01*
%TO.C,D4*%
X150840000Y-109030000D02*
X150840000Y-109186000D01*
X150840000Y-106714000D02*
X150840000Y-106870000D01*
X153441130Y-109029837D02*
G75*
G02*
X151359039Y-109030000I-1041130J1079837D01*
G01*
X153441130Y-106870163D02*
G75*
G03*
X151359039Y-106870000I-1041130J-1079837D01*
G01*
X154072335Y-109028608D02*
G75*
G02*
X150840000Y-109185516I-1672335J1078608D01*
G01*
X154072335Y-106871392D02*
G75*
G03*
X150840000Y-106714484I-1672335J-1078608D01*
G01*
%TO.C,D3*%
X144490000Y-109030000D02*
X144490000Y-109186000D01*
X144490000Y-106714000D02*
X144490000Y-106870000D01*
X147091130Y-109029837D02*
G75*
G02*
X145009039Y-109030000I-1041130J1079837D01*
G01*
X147091130Y-106870163D02*
G75*
G03*
X145009039Y-106870000I-1041130J-1079837D01*
G01*
X147722335Y-109028608D02*
G75*
G02*
X144490000Y-109185516I-1672335J1078608D01*
G01*
X147722335Y-106871392D02*
G75*
G03*
X144490000Y-106714484I-1672335J-1078608D01*
G01*
%TO.C,D2*%
X98770000Y-109030000D02*
X98770000Y-109186000D01*
X98770000Y-106714000D02*
X98770000Y-106870000D01*
X101371130Y-109029837D02*
G75*
G02*
X99289039Y-109030000I-1041130J1079837D01*
G01*
X101371130Y-106870163D02*
G75*
G03*
X99289039Y-106870000I-1041130J-1079837D01*
G01*
X102002335Y-109028608D02*
G75*
G02*
X98770000Y-109185516I-1672335J1078608D01*
G01*
X102002335Y-106871392D02*
G75*
G03*
X98770000Y-106714484I-1672335J-1078608D01*
G01*
%TO.C,D1*%
X92420000Y-109030000D02*
X92420000Y-109186000D01*
X92420000Y-106714000D02*
X92420000Y-106870000D01*
X95021130Y-109029837D02*
G75*
G02*
X92939039Y-109030000I-1041130J1079837D01*
G01*
X95021130Y-106870163D02*
G75*
G03*
X92939039Y-106870000I-1041130J-1079837D01*
G01*
X95652335Y-109028608D02*
G75*
G02*
X92420000Y-109185516I-1672335J1078608D01*
G01*
X95652335Y-106871392D02*
G75*
G03*
X92420000Y-106714484I-1672335J-1078608D01*
G01*
%TO.C,P2*%
D12*
X131341904Y-114752380D02*
X131341904Y-113752380D01*
X131722857Y-113752380D01*
X131818095Y-113800000D01*
X131865714Y-113847619D01*
X131913333Y-113942857D01*
X131913333Y-114085714D01*
X131865714Y-114180952D01*
X131818095Y-114228571D01*
X131722857Y-114276190D01*
X131341904Y-114276190D01*
X132294285Y-113847619D02*
X132341904Y-113800000D01*
X132437142Y-113752380D01*
X132675238Y-113752380D01*
X132770476Y-113800000D01*
X132818095Y-113847619D01*
X132865714Y-113942857D01*
X132865714Y-114038095D01*
X132818095Y-114180952D01*
X132246666Y-114752380D01*
X132865714Y-114752380D01*
%TO.C,P1*%
X113561904Y-114752380D02*
X113561904Y-113752380D01*
X113942857Y-113752380D01*
X114038095Y-113800000D01*
X114085714Y-113847619D01*
X114133333Y-113942857D01*
X114133333Y-114085714D01*
X114085714Y-114180952D01*
X114038095Y-114228571D01*
X113942857Y-114276190D01*
X113561904Y-114276190D01*
X115085714Y-114752380D02*
X114514285Y-114752380D01*
X114800000Y-114752380D02*
X114800000Y-113752380D01*
X114704761Y-113895238D01*
X114609523Y-113990476D01*
X114514285Y-114038095D01*
%TO.C,J1*%
X86026666Y-93642380D02*
X86026666Y-94356666D01*
X85979047Y-94499523D01*
X85883809Y-94594761D01*
X85740952Y-94642380D01*
X85645714Y-94642380D01*
X87026666Y-94642380D02*
X86455238Y-94642380D01*
X86740952Y-94642380D02*
X86740952Y-93642380D01*
X86645714Y-93785238D01*
X86550476Y-93880476D01*
X86455238Y-93928095D01*
X89693333Y-99492380D02*
X89360000Y-99016190D01*
X89121904Y-99492380D02*
X89121904Y-98492380D01*
X89502857Y-98492380D01*
X89598095Y-98540000D01*
X89645714Y-98587619D01*
X89693333Y-98682857D01*
X89693333Y-98825714D01*
X89645714Y-98920952D01*
X89598095Y-98968571D01*
X89502857Y-99016190D01*
X89121904Y-99016190D01*
X90026666Y-98492380D02*
X90693333Y-99492380D01*
X90693333Y-98492380D02*
X90026666Y-99492380D01*
X89148095Y-95992380D02*
X89719523Y-95992380D01*
X89433809Y-96992380D02*
X89433809Y-95992380D01*
X89957619Y-95992380D02*
X90624285Y-96992380D01*
X90624285Y-95992380D02*
X89957619Y-96992380D01*
%TO.C,U1*%
D13*
X97226966Y-78960133D02*
X97946633Y-78960133D01*
X98031300Y-78917800D01*
X98073633Y-78875466D01*
X98115966Y-78790800D01*
X98115966Y-78621466D01*
X98073633Y-78536800D01*
X98031300Y-78494466D01*
X97946633Y-78452133D01*
X97226966Y-78452133D01*
X98115966Y-77563133D02*
X98115966Y-78071133D01*
X98115966Y-77817133D02*
X97226966Y-77817133D01*
X97353966Y-77901800D01*
X97438633Y-77986466D01*
X97480966Y-78071133D01*
D11*
D13*
X116895033Y-79032100D02*
X117022033Y-79074433D01*
X117064366Y-79116766D01*
X117106700Y-79201433D01*
X117106700Y-79328433D01*
X117064366Y-79413100D01*
X117022033Y-79455433D01*
X116937366Y-79497766D01*
X116598700Y-79497766D01*
X116598700Y-78608766D01*
X116895033Y-78608766D01*
X116979700Y-78651100D01*
X117022033Y-78693433D01*
X117064366Y-78778100D01*
X117064366Y-78862766D01*
X117022033Y-78947433D01*
X116979700Y-78989766D01*
X116895033Y-79032100D01*
X116598700Y-79032100D01*
X117614700Y-79497766D02*
X117530033Y-79455433D01*
X117487700Y-79370766D01*
X117487700Y-78608766D01*
X118334366Y-78905100D02*
X118334366Y-79497766D01*
X117953366Y-78905100D02*
X117953366Y-79370766D01*
X117995700Y-79455433D01*
X118080366Y-79497766D01*
X118207366Y-79497766D01*
X118292033Y-79455433D01*
X118334366Y-79413100D01*
X119096366Y-79455433D02*
X119011700Y-79497766D01*
X118842366Y-79497766D01*
X118757700Y-79455433D01*
X118715366Y-79370766D01*
X118715366Y-79032100D01*
X118757700Y-78947433D01*
X118842366Y-78905100D01*
X119011700Y-78905100D01*
X119096366Y-78947433D01*
X119138700Y-79032100D01*
X119138700Y-79116766D01*
X118715366Y-79201433D01*
X119519700Y-79497766D02*
X119519700Y-78608766D01*
X119858366Y-78608766D01*
X119943033Y-78651100D01*
X119985366Y-78693433D01*
X120027700Y-78778100D01*
X120027700Y-78905100D01*
X119985366Y-78989766D01*
X119943033Y-79032100D01*
X119858366Y-79074433D01*
X119519700Y-79074433D01*
X120408700Y-79497766D02*
X120408700Y-78905100D01*
X120408700Y-78608766D02*
X120366366Y-78651100D01*
X120408700Y-78693433D01*
X120451033Y-78651100D01*
X120408700Y-78608766D01*
X120408700Y-78693433D01*
X120959033Y-79497766D02*
X120874366Y-79455433D01*
X120832033Y-79370766D01*
X120832033Y-78608766D01*
X121424700Y-79497766D02*
X121340033Y-79455433D01*
X121297700Y-79370766D01*
X121297700Y-78608766D01*
X121551700Y-79582433D02*
X122229033Y-79582433D01*
X122398366Y-79455433D02*
X122525366Y-79497766D01*
X122737033Y-79497766D01*
X122821700Y-79455433D01*
X122864033Y-79413100D01*
X122906366Y-79328433D01*
X122906366Y-79243766D01*
X122864033Y-79159100D01*
X122821700Y-79116766D01*
X122737033Y-79074433D01*
X122567700Y-79032100D01*
X122483033Y-78989766D01*
X122440700Y-78947433D01*
X122398366Y-78862766D01*
X122398366Y-78778100D01*
X122440700Y-78693433D01*
X122483033Y-78651100D01*
X122567700Y-78608766D01*
X122779366Y-78608766D01*
X122906366Y-78651100D01*
X123160366Y-78608766D02*
X123668366Y-78608766D01*
X123414366Y-79497766D02*
X123414366Y-78608766D01*
X123964700Y-79497766D02*
X123964700Y-78608766D01*
X124261033Y-79243766D01*
X124557366Y-78608766D01*
X124557366Y-79497766D01*
X124896033Y-78608766D02*
X125446366Y-78608766D01*
X125150033Y-78947433D01*
X125277033Y-78947433D01*
X125361700Y-78989766D01*
X125404033Y-79032100D01*
X125446366Y-79116766D01*
X125446366Y-79328433D01*
X125404033Y-79413100D01*
X125361700Y-79455433D01*
X125277033Y-79497766D01*
X125023033Y-79497766D01*
X124938366Y-79455433D01*
X124896033Y-79413100D01*
X125785033Y-78693433D02*
X125827366Y-78651100D01*
X125912033Y-78608766D01*
X126123700Y-78608766D01*
X126208366Y-78651100D01*
X126250700Y-78693433D01*
X126293033Y-78778100D01*
X126293033Y-78862766D01*
X126250700Y-78989766D01*
X125742700Y-79497766D01*
X126293033Y-79497766D01*
X126970366Y-79032100D02*
X126674033Y-79032100D01*
X126674033Y-79497766D02*
X126674033Y-78608766D01*
X127097366Y-78608766D01*
X127901700Y-79497766D02*
X127393700Y-79497766D01*
X127647700Y-79497766D02*
X127647700Y-78608766D01*
X127563033Y-78735766D01*
X127478366Y-78820433D01*
X127393700Y-78862766D01*
X128452033Y-78608766D02*
X128536700Y-78608766D01*
X128621366Y-78651100D01*
X128663700Y-78693433D01*
X128706033Y-78778100D01*
X128748366Y-78947433D01*
X128748366Y-79159100D01*
X128706033Y-79328433D01*
X128663700Y-79413100D01*
X128621366Y-79455433D01*
X128536700Y-79497766D01*
X128452033Y-79497766D01*
X128367366Y-79455433D01*
X128325033Y-79413100D01*
X128282700Y-79328433D01*
X128240366Y-79159100D01*
X128240366Y-78947433D01*
X128282700Y-78778100D01*
X128325033Y-78693433D01*
X128367366Y-78651100D01*
X128452033Y-78608766D01*
X129044700Y-78608766D02*
X129595033Y-78608766D01*
X129298700Y-78947433D01*
X129425700Y-78947433D01*
X129510366Y-78989766D01*
X129552700Y-79032100D01*
X129595033Y-79116766D01*
X129595033Y-79328433D01*
X129552700Y-79413100D01*
X129510366Y-79455433D01*
X129425700Y-79497766D01*
X129171700Y-79497766D01*
X129087033Y-79455433D01*
X129044700Y-79413100D01*
X130484033Y-79413100D02*
X130441700Y-79455433D01*
X130314700Y-79497766D01*
X130230033Y-79497766D01*
X130103033Y-79455433D01*
X130018366Y-79370766D01*
X129976033Y-79286100D01*
X129933700Y-79116766D01*
X129933700Y-78989766D01*
X129976033Y-78820433D01*
X130018366Y-78735766D01*
X130103033Y-78651100D01*
X130230033Y-78608766D01*
X130314700Y-78608766D01*
X130441700Y-78651100D01*
X130484033Y-78693433D01*
%TO.C,H3*%
D12*
X160528095Y-104972380D02*
X160528095Y-103972380D01*
X160528095Y-104448571D02*
X161099523Y-104448571D01*
X161099523Y-104972380D02*
X161099523Y-103972380D01*
X161480476Y-103972380D02*
X162099523Y-103972380D01*
X161766190Y-104353333D01*
X161909047Y-104353333D01*
X162004285Y-104400952D01*
X162051904Y-104448571D01*
X162099523Y-104543809D01*
X162099523Y-104781904D01*
X162051904Y-104877142D01*
X162004285Y-104924761D01*
X161909047Y-104972380D01*
X161623333Y-104972380D01*
X161528095Y-104924761D01*
X161480476Y-104877142D01*
%TO.C,H2*%
X85598095Y-104972380D02*
X85598095Y-103972380D01*
X85598095Y-104448571D02*
X86169523Y-104448571D01*
X86169523Y-104972380D02*
X86169523Y-103972380D01*
X86598095Y-104067619D02*
X86645714Y-104020000D01*
X86740952Y-103972380D01*
X86979047Y-103972380D01*
X87074285Y-104020000D01*
X87121904Y-104067619D01*
X87169523Y-104162857D01*
X87169523Y-104258095D01*
X87121904Y-104400952D01*
X86550476Y-104972380D01*
X87169523Y-104972380D01*
%TO.C,H4*%
X160528095Y-71572380D02*
X160528095Y-70572380D01*
X160528095Y-71048571D02*
X161099523Y-71048571D01*
X161099523Y-71572380D02*
X161099523Y-70572380D01*
X162004285Y-70905714D02*
X162004285Y-71572380D01*
X161766190Y-70524761D02*
X161528095Y-71239047D01*
X162147142Y-71239047D01*
%TO.C,H1*%
X85598095Y-71572380D02*
X85598095Y-70572380D01*
X85598095Y-71048571D02*
X86169523Y-71048571D01*
X86169523Y-71572380D02*
X86169523Y-70572380D01*
X87169523Y-71572380D02*
X86598095Y-71572380D01*
X86883809Y-71572380D02*
X86883809Y-70572380D01*
X86788571Y-70715238D01*
X86693333Y-70810476D01*
X86598095Y-70858095D01*
%TO.C,R8*%
X156492380Y-97956666D02*
X156016190Y-98290000D01*
X156492380Y-98528095D02*
X155492380Y-98528095D01*
X155492380Y-98147142D01*
X155540000Y-98051904D01*
X155587619Y-98004285D01*
X155682857Y-97956666D01*
X155825714Y-97956666D01*
X155920952Y-98004285D01*
X155968571Y-98051904D01*
X156016190Y-98147142D01*
X156016190Y-98528095D01*
X155920952Y-97385238D02*
X155873333Y-97480476D01*
X155825714Y-97528095D01*
X155730476Y-97575714D01*
X155682857Y-97575714D01*
X155587619Y-97528095D01*
X155540000Y-97480476D01*
X155492380Y-97385238D01*
X155492380Y-97194761D01*
X155540000Y-97099523D01*
X155587619Y-97051904D01*
X155682857Y-97004285D01*
X155730476Y-97004285D01*
X155825714Y-97051904D01*
X155873333Y-97099523D01*
X155920952Y-97194761D01*
X155920952Y-97385238D01*
X155968571Y-97480476D01*
X156016190Y-97528095D01*
X156111428Y-97575714D01*
X156301904Y-97575714D01*
X156397142Y-97528095D01*
X156444761Y-97480476D01*
X156492380Y-97385238D01*
X156492380Y-97194761D01*
X156444761Y-97099523D01*
X156397142Y-97051904D01*
X156301904Y-97004285D01*
X156111428Y-97004285D01*
X156016190Y-97051904D01*
X155968571Y-97099523D01*
X155920952Y-97194761D01*
%TO.C,R7*%
X150142380Y-97956666D02*
X149666190Y-98290000D01*
X150142380Y-98528095D02*
X149142380Y-98528095D01*
X149142380Y-98147142D01*
X149190000Y-98051904D01*
X149237619Y-98004285D01*
X149332857Y-97956666D01*
X149475714Y-97956666D01*
X149570952Y-98004285D01*
X149618571Y-98051904D01*
X149666190Y-98147142D01*
X149666190Y-98528095D01*
X149142380Y-97623333D02*
X149142380Y-96956666D01*
X150142380Y-97385238D01*
%TO.C,R6*%
X104422380Y-97956666D02*
X103946190Y-98290000D01*
X104422380Y-98528095D02*
X103422380Y-98528095D01*
X103422380Y-98147142D01*
X103470000Y-98051904D01*
X103517619Y-98004285D01*
X103612857Y-97956666D01*
X103755714Y-97956666D01*
X103850952Y-98004285D01*
X103898571Y-98051904D01*
X103946190Y-98147142D01*
X103946190Y-98528095D01*
X103422380Y-97099523D02*
X103422380Y-97290000D01*
X103470000Y-97385238D01*
X103517619Y-97432857D01*
X103660476Y-97528095D01*
X103850952Y-97575714D01*
X104231904Y-97575714D01*
X104327142Y-97528095D01*
X104374761Y-97480476D01*
X104422380Y-97385238D01*
X104422380Y-97194761D01*
X104374761Y-97099523D01*
X104327142Y-97051904D01*
X104231904Y-97004285D01*
X103993809Y-97004285D01*
X103898571Y-97051904D01*
X103850952Y-97099523D01*
X103803333Y-97194761D01*
X103803333Y-97385238D01*
X103850952Y-97480476D01*
X103898571Y-97528095D01*
X103993809Y-97575714D01*
%TO.C,R5*%
X98072380Y-97956666D02*
X97596190Y-98290000D01*
X98072380Y-98528095D02*
X97072380Y-98528095D01*
X97072380Y-98147142D01*
X97120000Y-98051904D01*
X97167619Y-98004285D01*
X97262857Y-97956666D01*
X97405714Y-97956666D01*
X97500952Y-98004285D01*
X97548571Y-98051904D01*
X97596190Y-98147142D01*
X97596190Y-98528095D01*
X97072380Y-97051904D02*
X97072380Y-97528095D01*
X97548571Y-97575714D01*
X97500952Y-97528095D01*
X97453333Y-97432857D01*
X97453333Y-97194761D01*
X97500952Y-97099523D01*
X97548571Y-97051904D01*
X97643809Y-97004285D01*
X97881904Y-97004285D01*
X97977142Y-97051904D01*
X98024761Y-97099523D01*
X98072380Y-97194761D01*
X98072380Y-97432857D01*
X98024761Y-97528095D01*
X97977142Y-97575714D01*
%TO.C,R4*%
X138263333Y-98242380D02*
X137930000Y-97766190D01*
X137691904Y-98242380D02*
X137691904Y-97242380D01*
X138072857Y-97242380D01*
X138168095Y-97290000D01*
X138215714Y-97337619D01*
X138263333Y-97432857D01*
X138263333Y-97575714D01*
X138215714Y-97670952D01*
X138168095Y-97718571D01*
X138072857Y-97766190D01*
X137691904Y-97766190D01*
X139120476Y-97575714D02*
X139120476Y-98242380D01*
X138882380Y-97194761D02*
X138644285Y-97909047D01*
X139263333Y-97909047D01*
%TO.C,R3*%
X138263333Y-94432380D02*
X137930000Y-93956190D01*
X137691904Y-94432380D02*
X137691904Y-93432380D01*
X138072857Y-93432380D01*
X138168095Y-93480000D01*
X138215714Y-93527619D01*
X138263333Y-93622857D01*
X138263333Y-93765714D01*
X138215714Y-93860952D01*
X138168095Y-93908571D01*
X138072857Y-93956190D01*
X137691904Y-93956190D01*
X138596666Y-93432380D02*
X139215714Y-93432380D01*
X138882380Y-93813333D01*
X139025238Y-93813333D01*
X139120476Y-93860952D01*
X139168095Y-93908571D01*
X139215714Y-94003809D01*
X139215714Y-94241904D01*
X139168095Y-94337142D01*
X139120476Y-94384761D01*
X139025238Y-94432380D01*
X138739523Y-94432380D01*
X138644285Y-94384761D01*
X138596666Y-94337142D01*
%TO.C,R2*%
X120483333Y-98242380D02*
X120150000Y-97766190D01*
X119911904Y-98242380D02*
X119911904Y-97242380D01*
X120292857Y-97242380D01*
X120388095Y-97290000D01*
X120435714Y-97337619D01*
X120483333Y-97432857D01*
X120483333Y-97575714D01*
X120435714Y-97670952D01*
X120388095Y-97718571D01*
X120292857Y-97766190D01*
X119911904Y-97766190D01*
X120864285Y-97337619D02*
X120911904Y-97290000D01*
X121007142Y-97242380D01*
X121245238Y-97242380D01*
X121340476Y-97290000D01*
X121388095Y-97337619D01*
X121435714Y-97432857D01*
X121435714Y-97528095D01*
X121388095Y-97670952D01*
X120816666Y-98242380D01*
X121435714Y-98242380D01*
%TO.C,R1*%
X120483333Y-94432380D02*
X120150000Y-93956190D01*
X119911904Y-94432380D02*
X119911904Y-93432380D01*
X120292857Y-93432380D01*
X120388095Y-93480000D01*
X120435714Y-93527619D01*
X120483333Y-93622857D01*
X120483333Y-93765714D01*
X120435714Y-93860952D01*
X120388095Y-93908571D01*
X120292857Y-93956190D01*
X119911904Y-93956190D01*
X121435714Y-94432380D02*
X120864285Y-94432380D01*
X121150000Y-94432380D02*
X121150000Y-93432380D01*
X121054761Y-93575238D01*
X120959523Y-93670476D01*
X120864285Y-93718095D01*
%TO.C,D4*%
X151661904Y-105442380D02*
X151661904Y-104442380D01*
X151900000Y-104442380D01*
X152042857Y-104490000D01*
X152138095Y-104585238D01*
X152185714Y-104680476D01*
X152233333Y-104870952D01*
X152233333Y-105013809D01*
X152185714Y-105204285D01*
X152138095Y-105299523D01*
X152042857Y-105394761D01*
X151900000Y-105442380D01*
X151661904Y-105442380D01*
X153090476Y-104775714D02*
X153090476Y-105442380D01*
X152852380Y-104394761D02*
X152614285Y-105109047D01*
X153233333Y-105109047D01*
%TO.C,D3*%
X145311904Y-105442380D02*
X145311904Y-104442380D01*
X145550000Y-104442380D01*
X145692857Y-104490000D01*
X145788095Y-104585238D01*
X145835714Y-104680476D01*
X145883333Y-104870952D01*
X145883333Y-105013809D01*
X145835714Y-105204285D01*
X145788095Y-105299523D01*
X145692857Y-105394761D01*
X145550000Y-105442380D01*
X145311904Y-105442380D01*
X146216666Y-104442380D02*
X146835714Y-104442380D01*
X146502380Y-104823333D01*
X146645238Y-104823333D01*
X146740476Y-104870952D01*
X146788095Y-104918571D01*
X146835714Y-105013809D01*
X146835714Y-105251904D01*
X146788095Y-105347142D01*
X146740476Y-105394761D01*
X146645238Y-105442380D01*
X146359523Y-105442380D01*
X146264285Y-105394761D01*
X146216666Y-105347142D01*
%TO.C,D2*%
X99591904Y-105442380D02*
X99591904Y-104442380D01*
X99830000Y-104442380D01*
X99972857Y-104490000D01*
X100068095Y-104585238D01*
X100115714Y-104680476D01*
X100163333Y-104870952D01*
X100163333Y-105013809D01*
X100115714Y-105204285D01*
X100068095Y-105299523D01*
X99972857Y-105394761D01*
X99830000Y-105442380D01*
X99591904Y-105442380D01*
X100544285Y-104537619D02*
X100591904Y-104490000D01*
X100687142Y-104442380D01*
X100925238Y-104442380D01*
X101020476Y-104490000D01*
X101068095Y-104537619D01*
X101115714Y-104632857D01*
X101115714Y-104728095D01*
X101068095Y-104870952D01*
X100496666Y-105442380D01*
X101115714Y-105442380D01*
%TO.C,D1*%
X93241904Y-105442380D02*
X93241904Y-104442380D01*
X93480000Y-104442380D01*
X93622857Y-104490000D01*
X93718095Y-104585238D01*
X93765714Y-104680476D01*
X93813333Y-104870952D01*
X93813333Y-105013809D01*
X93765714Y-105204285D01*
X93718095Y-105299523D01*
X93622857Y-105394761D01*
X93480000Y-105442380D01*
X93241904Y-105442380D01*
X94765714Y-105442380D02*
X94194285Y-105442380D01*
X94480000Y-105442380D02*
X94480000Y-104442380D01*
X94384761Y-104585238D01*
X94289523Y-104680476D01*
X94194285Y-104728095D01*
%TD*%
M02*
