M48
; DRILL file {KiCad 5.1.6} date Thu Jan 14 16:45:32 2021
; FORMAT={-:-/ absolute / inch / decimal}
; #@! TF.CreationDate,2021-01-14T16:45:32+01:00
; #@! TF.GenerationSoftware,Kicad,Pcbnew,5.1.6
; #@! TF.FileFunction,Plated,1,4,PTH
FMAT,2
INCH
T1C0.0315
T2C0.0354
T3C0.0394
T4C0.0400
T5C0.1457
%
G90
G05
T1
X4.35Y-3.8
X4.75Y-3.8
X5.8Y-3.65
X5.8Y-4.05
X6.05Y-3.65
X6.05Y-4.05
X5.065Y-3.9898
X5.065Y-4.1
X5.1476Y-4.1
X5.25Y-4.1
X5.3327Y-3.9898
X5.3327Y-4.1
X4.0Y-3.65
X4.0Y-4.05
X4.365Y-3.9898
X4.365Y-4.1
X4.4476Y-4.1
X4.55Y-4.1
X4.6327Y-3.9898
X4.6327Y-4.1
X5.05Y-3.8
X5.45Y-3.8
X3.75Y-3.65
X3.75Y-4.05
X5.05Y-3.65
X5.45Y-3.65
X4.35Y-3.65
X4.75Y-3.65
T2
X3.65Y-4.25
X3.75Y-4.25
X5.7Y-4.25
X5.8Y-4.25
X5.95Y-4.25
X6.05Y-4.25
X3.9Y-4.25
X4.0Y-4.25
T3
X3.4Y-3.8
X3.4Y-3.9
T4
X3.902Y-2.8
X3.902Y-3.4
X4.002Y-2.8
X4.002Y-3.4
X4.102Y-2.8
X4.102Y-3.4
X4.202Y-2.8
X4.202Y-3.4
X4.302Y-2.8
X4.302Y-3.4
X4.402Y-2.8
X4.402Y-3.4
X4.502Y-2.8
X4.502Y-3.4
X4.602Y-2.8
X4.602Y-3.4
X4.702Y-2.8
X4.702Y-3.4
X4.802Y-2.8
X4.802Y-3.4
X4.902Y-2.8
X4.902Y-3.4
X5.002Y-2.8
X5.002Y-3.4
X5.102Y-2.8
X5.102Y-3.4
X5.202Y-2.8
X5.202Y-3.4
X5.302Y-2.8
X5.302Y-3.4
X5.402Y-2.8
X5.402Y-3.4
X5.502Y-2.8
X5.502Y-3.4
X5.602Y-2.8
X5.602Y-3.4
X5.702Y-2.8
X5.702Y-3.4
X5.802Y-2.8
X5.804Y-3.4
T5
X6.35Y-4.3
X3.4Y-2.65
X3.4Y-4.3
X6.35Y-2.65
T3
G00X4.9291Y-4.1827
M15
G01X4.9291Y-4.2417
M16
G05
G00X5.1594Y-4.2437
M15
G01X5.2382Y-4.2437
M16
G05
G00X5.4685Y-4.1827
M15
G01X5.4685Y-4.2417
M16
G05
G00X4.2291Y-4.1827
M15
G01X4.2291Y-4.2417
M16
G05
G00X4.4594Y-4.2437
M15
G01X4.5382Y-4.2437
M16
G05
G00X4.7685Y-4.1827
M15
G01X4.7685Y-4.2417
M16
G05
T0
M30
